G04 #@! TF.GenerationSoftware,KiCad,Pcbnew,7.0.5*
G04 #@! TF.CreationDate,2023-07-05T00:08:01+08:00*
G04 #@! TF.ProjectId,exModule,65784d6f-6475-46c6-952e-6b696361645f,rev?*
G04 #@! TF.SameCoordinates,PX5734380PY32de760*
G04 #@! TF.FileFunction,Soldermask,Bot*
G04 #@! TF.FilePolarity,Negative*
%FSLAX45Y45*%
G04 Gerber Fmt 4.5, Leading zero omitted, Abs format (unit mm)*
G04 Created by KiCad (PCBNEW 7.0.5) date 2023-07-05 00:08:01*
%MOMM*%
%LPD*%
G01*
G04 APERTURE LIST*
G04 APERTURE END LIST*
G36*
X-339192Y-1958288D02*
G01*
X-312250Y-1965836D01*
X-286587Y-1976983D01*
X-262681Y-1991521D01*
X-240977Y-2009179D01*
X-221879Y-2029627D01*
X-205744Y-2052485D01*
X-192872Y-2077328D01*
X-183502Y-2103692D01*
X-177809Y-2131086D01*
X-175900Y-2159000D01*
X-177809Y-2186914D01*
X-183502Y-2214308D01*
X-192872Y-2240672D01*
X-205744Y-2265515D01*
X-221879Y-2288373D01*
X-240977Y-2308821D01*
X-262681Y-2326479D01*
X-286587Y-2341017D01*
X-312250Y-2352164D01*
X-339192Y-2359712D01*
X-366910Y-2363522D01*
X-394890Y-2363522D01*
X-422608Y-2359712D01*
X-449550Y-2352164D01*
X-475213Y-2341017D01*
X-499119Y-2326479D01*
X-520823Y-2308821D01*
X-539921Y-2288373D01*
X-556056Y-2265515D01*
X-568928Y-2240672D01*
X-578298Y-2214308D01*
X-583991Y-2186914D01*
X-585900Y-2159000D01*
X-583991Y-2131086D01*
X-578298Y-2103692D01*
X-568928Y-2077328D01*
X-556056Y-2052485D01*
X-539921Y-2029627D01*
X-520823Y-2009179D01*
X-499119Y-1991521D01*
X-475213Y-1976983D01*
X-449550Y-1965836D01*
X-422608Y-1958288D01*
X-394890Y-1954478D01*
X-366910Y-1954478D01*
X-339192Y-1958288D01*
G37*
G36*
X549779Y-1958217D02*
G01*
X576721Y-1965766D01*
X602384Y-1976913D01*
X626290Y-1991450D01*
X647994Y-2009108D01*
X667092Y-2029556D01*
X683227Y-2052415D01*
X696099Y-2077257D01*
X705469Y-2103621D01*
X711161Y-2131015D01*
X713071Y-2158929D01*
X711161Y-2186844D01*
X705469Y-2214238D01*
X696099Y-2240602D01*
X683227Y-2265444D01*
X667092Y-2288302D01*
X647994Y-2308751D01*
X626290Y-2326408D01*
X602384Y-2340946D01*
X576721Y-2352093D01*
X549779Y-2359642D01*
X522060Y-2363451D01*
X494081Y-2363451D01*
X466362Y-2359642D01*
X439420Y-2352093D01*
X413757Y-2340946D01*
X389851Y-2326408D01*
X368147Y-2308751D01*
X349050Y-2288302D01*
X332915Y-2265444D01*
X320042Y-2240602D01*
X310673Y-2214238D01*
X304980Y-2186844D01*
X303071Y-2158929D01*
X304980Y-2131015D01*
X310673Y-2103621D01*
X320042Y-2077257D01*
X332915Y-2052415D01*
X349050Y-2029556D01*
X368147Y-2009108D01*
X389851Y-1991450D01*
X413757Y-1976913D01*
X439420Y-1965766D01*
X466362Y-1958217D01*
X494081Y-1954407D01*
X522060Y-1954407D01*
X549779Y-1958217D01*
G37*
G36*
X-3275734Y-1570160D02*
G01*
X-3259500Y-1577388D01*
X-3245124Y-1587833D01*
X-3233234Y-1601038D01*
X-3224349Y-1616427D01*
X-3218857Y-1633327D01*
X-3217000Y-1651000D01*
X-3218857Y-1668672D01*
X-3224349Y-1685573D01*
X-3233234Y-1700962D01*
X-3245124Y-1714167D01*
X-3259500Y-1724612D01*
X-3275734Y-1731840D01*
X-3293115Y-1735534D01*
X-3310885Y-1735534D01*
X-3328266Y-1731840D01*
X-3344500Y-1724612D01*
X-3358876Y-1714167D01*
X-3370766Y-1700962D01*
X-3379651Y-1685573D01*
X-3385142Y-1668672D01*
X-3387000Y-1651000D01*
X-3385142Y-1633327D01*
X-3379651Y-1616427D01*
X-3370766Y-1601038D01*
X-3358876Y-1587833D01*
X-3344500Y-1577388D01*
X-3328266Y-1570160D01*
X-3310885Y-1566466D01*
X-3293115Y-1566466D01*
X-3275734Y-1570160D01*
G37*
G36*
X3328266Y-1570160D02*
G01*
X3344500Y-1577388D01*
X3358876Y-1587833D01*
X3370766Y-1601038D01*
X3379651Y-1616427D01*
X3385142Y-1633327D01*
X3387000Y-1651000D01*
X3385142Y-1668672D01*
X3379651Y-1685573D01*
X3370766Y-1700962D01*
X3358876Y-1714167D01*
X3344500Y-1724612D01*
X3328266Y-1731840D01*
X3310885Y-1735534D01*
X3293115Y-1735534D01*
X3275734Y-1731840D01*
X3259500Y-1724612D01*
X3245124Y-1714167D01*
X3233234Y-1700962D01*
X3224349Y-1685573D01*
X3218857Y-1668672D01*
X3217000Y-1651000D01*
X3218857Y-1633327D01*
X3224349Y-1616427D01*
X3233234Y-1601038D01*
X3245124Y-1587833D01*
X3259500Y-1577388D01*
X3275734Y-1570160D01*
X3293115Y-1566466D01*
X3310885Y-1566466D01*
X3328266Y-1570160D01*
G37*
G36*
X-1990291Y-1069288D02*
G01*
X-1963350Y-1076837D01*
X-1937687Y-1087984D01*
X-1913780Y-1102521D01*
X-1892077Y-1120179D01*
X-1872979Y-1140627D01*
X-1856844Y-1163485D01*
X-1843972Y-1188328D01*
X-1834602Y-1214692D01*
X-1828909Y-1242086D01*
X-1827000Y-1270000D01*
X-1828909Y-1297914D01*
X-1834602Y-1325308D01*
X-1843972Y-1351672D01*
X-1856844Y-1376515D01*
X-1872979Y-1399373D01*
X-1892077Y-1419821D01*
X-1913780Y-1437479D01*
X-1937687Y-1452016D01*
X-1963350Y-1463163D01*
X-1990291Y-1470712D01*
X-2018010Y-1474522D01*
X-2045990Y-1474522D01*
X-2073708Y-1470712D01*
X-2100650Y-1463163D01*
X-2126313Y-1452016D01*
X-2150220Y-1437479D01*
X-2171923Y-1419821D01*
X-2191021Y-1399373D01*
X-2207156Y-1376515D01*
X-2220028Y-1351672D01*
X-2229398Y-1325308D01*
X-2235091Y-1297914D01*
X-2237000Y-1270000D01*
X-2235091Y-1242086D01*
X-2229398Y-1214692D01*
X-2220028Y-1188328D01*
X-2207156Y-1163485D01*
X-2191021Y-1140627D01*
X-2171923Y-1120179D01*
X-2150220Y-1102521D01*
X-2126313Y-1087984D01*
X-2100650Y-1076837D01*
X-2073708Y-1069288D01*
X-2045990Y-1065478D01*
X-2018010Y-1065478D01*
X-1990291Y-1069288D01*
G37*
G36*
X2073708Y-1069288D02*
G01*
X2100650Y-1076837D01*
X2126313Y-1087984D01*
X2150220Y-1102521D01*
X2171923Y-1120179D01*
X2191021Y-1140627D01*
X2207156Y-1163485D01*
X2220028Y-1188328D01*
X2229398Y-1214692D01*
X2235091Y-1242086D01*
X2237000Y-1270000D01*
X2235091Y-1297914D01*
X2229398Y-1325308D01*
X2220028Y-1351672D01*
X2207156Y-1376515D01*
X2191021Y-1399373D01*
X2171923Y-1419821D01*
X2150220Y-1437479D01*
X2126313Y-1452016D01*
X2100650Y-1463163D01*
X2073708Y-1470712D01*
X2045990Y-1474522D01*
X2018010Y-1474522D01*
X1990291Y-1470712D01*
X1963350Y-1463163D01*
X1937687Y-1452016D01*
X1913780Y-1437479D01*
X1892077Y-1419821D01*
X1872979Y-1399373D01*
X1856844Y-1376515D01*
X1843972Y-1351672D01*
X1834602Y-1325308D01*
X1828909Y-1297914D01*
X1827000Y-1270000D01*
X1828909Y-1242086D01*
X1834602Y-1214692D01*
X1843972Y-1188328D01*
X1856844Y-1163485D01*
X1872979Y-1140627D01*
X1892077Y-1120179D01*
X1913780Y-1102521D01*
X1937687Y-1087984D01*
X1963350Y-1076837D01*
X1990291Y-1069288D01*
X2018010Y-1065478D01*
X2045990Y-1065478D01*
X2073708Y-1069288D01*
G37*
G36*
X-2381529Y-905390D02*
G01*
X-2361740Y-913056D01*
X-2343697Y-924228D01*
X-2328014Y-938525D01*
X-2315225Y-955460D01*
X-2305766Y-974457D01*
X-2299958Y-994869D01*
X-2298000Y-1016000D01*
X-2299958Y-1037131D01*
X-2305766Y-1057543D01*
X-2315225Y-1076540D01*
X-2328014Y-1093475D01*
X-2343697Y-1107772D01*
X-2361740Y-1118944D01*
X-2381529Y-1126610D01*
X-2402389Y-1130509D01*
X-2423611Y-1130509D01*
X-2444471Y-1126610D01*
X-2464260Y-1118944D01*
X-2482303Y-1107772D01*
X-2497986Y-1093475D01*
X-2510775Y-1076540D01*
X-2520234Y-1057543D01*
X-2526042Y-1037131D01*
X-2528000Y-1016000D01*
X-2526042Y-994869D01*
X-2520234Y-974457D01*
X-2510775Y-955460D01*
X-2497986Y-938525D01*
X-2482303Y-924228D01*
X-2464260Y-913056D01*
X-2444471Y-905390D01*
X-2423611Y-901491D01*
X-2402389Y-901491D01*
X-2381529Y-905390D01*
G37*
G36*
X1682471Y-905390D02*
G01*
X1702260Y-913056D01*
X1720303Y-924228D01*
X1735986Y-938525D01*
X1748775Y-955460D01*
X1758234Y-974457D01*
X1764042Y-994869D01*
X1766000Y-1016000D01*
X1764042Y-1037131D01*
X1758234Y-1057543D01*
X1748775Y-1076540D01*
X1735986Y-1093475D01*
X1720303Y-1107772D01*
X1702260Y-1118944D01*
X1682471Y-1126610D01*
X1661611Y-1130509D01*
X1640389Y-1130509D01*
X1619529Y-1126610D01*
X1599740Y-1118944D01*
X1581697Y-1107772D01*
X1566014Y-1093475D01*
X1553225Y-1076540D01*
X1543766Y-1057543D01*
X1537958Y-1037131D01*
X1536000Y-1016000D01*
X1537958Y-994869D01*
X1543766Y-974457D01*
X1553225Y-955460D01*
X1566014Y-938525D01*
X1581697Y-924228D01*
X1599740Y-913056D01*
X1619529Y-905390D01*
X1640389Y-901491D01*
X1661611Y-901491D01*
X1682471Y-905390D01*
G37*
G36*
X-3275734Y-808160D02*
G01*
X-3259500Y-815388D01*
X-3245124Y-825833D01*
X-3233234Y-839038D01*
X-3224349Y-854427D01*
X-3218857Y-871327D01*
X-3217000Y-889000D01*
X-3218857Y-906672D01*
X-3224349Y-923573D01*
X-3233234Y-938962D01*
X-3245124Y-952167D01*
X-3259500Y-962612D01*
X-3275734Y-969840D01*
X-3293115Y-973534D01*
X-3310885Y-973534D01*
X-3328266Y-969840D01*
X-3344500Y-962612D01*
X-3358876Y-952167D01*
X-3370766Y-938962D01*
X-3379651Y-923573D01*
X-3385142Y-906672D01*
X-3387000Y-889000D01*
X-3385142Y-871327D01*
X-3379651Y-854427D01*
X-3370766Y-839038D01*
X-3358876Y-825833D01*
X-3344500Y-815388D01*
X-3328266Y-808160D01*
X-3310885Y-804466D01*
X-3293115Y-804466D01*
X-3275734Y-808160D01*
G37*
G36*
X3328266Y-808160D02*
G01*
X3344500Y-815388D01*
X3358876Y-825833D01*
X3370766Y-839038D01*
X3379651Y-854427D01*
X3385142Y-871327D01*
X3387000Y-889000D01*
X3385142Y-906672D01*
X3379651Y-923573D01*
X3370766Y-938962D01*
X3358876Y-952167D01*
X3344500Y-962612D01*
X3328266Y-969840D01*
X3310885Y-973534D01*
X3293115Y-973534D01*
X3275734Y-969840D01*
X3259500Y-962612D01*
X3245124Y-952167D01*
X3233234Y-938962D01*
X3224349Y-923573D01*
X3218857Y-906672D01*
X3217000Y-889000D01*
X3218857Y-871327D01*
X3224349Y-854427D01*
X3233234Y-839038D01*
X3245124Y-825833D01*
X3259500Y-815388D01*
X3275734Y-808160D01*
X3293115Y-804466D01*
X3310885Y-804466D01*
X3328266Y-808160D01*
G37*
G36*
X-1746529Y-651390D02*
G01*
X-1726740Y-659056D01*
X-1708697Y-670228D01*
X-1693014Y-684525D01*
X-1680225Y-701460D01*
X-1670766Y-720457D01*
X-1664958Y-740869D01*
X-1663000Y-762000D01*
X-1664958Y-783131D01*
X-1670766Y-803543D01*
X-1680225Y-822540D01*
X-1693014Y-839475D01*
X-1708697Y-853772D01*
X-1726740Y-864944D01*
X-1746529Y-872610D01*
X-1767389Y-876509D01*
X-1788611Y-876509D01*
X-1809471Y-872610D01*
X-1829260Y-864944D01*
X-1847303Y-853772D01*
X-1862986Y-839475D01*
X-1875775Y-822540D01*
X-1885234Y-803543D01*
X-1891042Y-783131D01*
X-1893000Y-762000D01*
X-1891042Y-740869D01*
X-1885234Y-720457D01*
X-1875775Y-701460D01*
X-1862986Y-684525D01*
X-1847303Y-670228D01*
X-1829260Y-659056D01*
X-1809471Y-651390D01*
X-1788611Y-647491D01*
X-1767389Y-647491D01*
X-1746529Y-651390D01*
G37*
G36*
X2317471Y-651390D02*
G01*
X2337260Y-659056D01*
X2355303Y-670228D01*
X2370986Y-684525D01*
X2383775Y-701460D01*
X2393234Y-720457D01*
X2399042Y-740869D01*
X2401000Y-762000D01*
X2399042Y-783131D01*
X2393234Y-803543D01*
X2383775Y-822540D01*
X2370986Y-839475D01*
X2355303Y-853772D01*
X2337260Y-864944D01*
X2317471Y-872610D01*
X2296611Y-876509D01*
X2275389Y-876509D01*
X2254529Y-872610D01*
X2234740Y-864944D01*
X2216697Y-853772D01*
X2201014Y-839475D01*
X2188225Y-822540D01*
X2178766Y-803543D01*
X2172958Y-783131D01*
X2171000Y-762000D01*
X2172958Y-740869D01*
X2178766Y-720457D01*
X2188225Y-701460D01*
X2201014Y-684525D01*
X2216697Y-670228D01*
X2234740Y-659056D01*
X2254529Y-651390D01*
X2275389Y-647491D01*
X2296611Y-647491D01*
X2317471Y-651390D01*
G37*
G36*
X-2819087Y104619D02*
G01*
X-2817464Y103535D01*
X-2816381Y101913D01*
X-2816000Y100000D01*
X-2816000Y-100000D01*
X-2816381Y-101913D01*
X-2817464Y-103535D01*
X-2819087Y-104619D01*
X-2821000Y-105000D01*
X-3021000Y-105000D01*
X-3022913Y-104619D01*
X-3024535Y-103535D01*
X-3025619Y-101913D01*
X-3026000Y-100000D01*
X-3026000Y100000D01*
X-3025619Y101913D01*
X-3024535Y103535D01*
X-3022913Y104619D01*
X-3021000Y105000D01*
X-2821000Y105000D01*
X-2819087Y104619D01*
G37*
G36*
X-2662236Y104531D02*
G01*
X-2657314Y104531D01*
X-2651833Y103506D01*
X-2646516Y102982D01*
X-2642476Y101757D01*
X-2638271Y100971D01*
X-2632449Y98715D01*
X-2626818Y97007D01*
X-2623601Y95288D01*
X-2620207Y93973D01*
X-2614309Y90321D01*
X-2608665Y87304D01*
X-2606294Y85358D01*
X-2603737Y83775D01*
X-2598069Y78609D01*
X-2592754Y74246D01*
X-2591179Y72327D01*
X-2589420Y70724D01*
X-2584313Y63961D01*
X-2579696Y58335D01*
X-2578803Y56664D01*
X-2577746Y55264D01*
X-2573540Y46818D01*
X-2569993Y40182D01*
X-2569614Y38935D01*
X-2569110Y37923D01*
X-2566134Y27461D01*
X-2564018Y20485D01*
X-2563948Y19779D01*
X-2563809Y19290D01*
X-2562364Y3691D01*
X-2562000Y0D01*
X-2562364Y-3691D01*
X-2563809Y-19290D01*
X-2563948Y-19778D01*
X-2564018Y-20485D01*
X-2566134Y-27462D01*
X-2569110Y-37922D01*
X-2569614Y-38934D01*
X-2569993Y-40182D01*
X-2573541Y-46820D01*
X-2577746Y-55264D01*
X-2578803Y-56664D01*
X-2579696Y-58335D01*
X-2584314Y-63963D01*
X-2589420Y-70724D01*
X-2591179Y-72327D01*
X-2592754Y-74246D01*
X-2598070Y-78609D01*
X-2603737Y-83775D01*
X-2606293Y-85358D01*
X-2608665Y-87304D01*
X-2614310Y-90321D01*
X-2620207Y-93973D01*
X-2623601Y-95287D01*
X-2626818Y-97007D01*
X-2632450Y-98716D01*
X-2638271Y-100971D01*
X-2642475Y-101757D01*
X-2646516Y-102982D01*
X-2651833Y-103506D01*
X-2657314Y-104531D01*
X-2662236Y-104531D01*
X-2667000Y-105000D01*
X-2671764Y-104531D01*
X-2676686Y-104531D01*
X-2682167Y-103506D01*
X-2687485Y-102982D01*
X-2691525Y-101757D01*
X-2695729Y-100971D01*
X-2701551Y-98715D01*
X-2707182Y-97007D01*
X-2710399Y-95288D01*
X-2713793Y-93973D01*
X-2719691Y-90321D01*
X-2725335Y-87304D01*
X-2727706Y-85358D01*
X-2730264Y-83775D01*
X-2735931Y-78608D01*
X-2741246Y-74246D01*
X-2742821Y-72327D01*
X-2744580Y-70724D01*
X-2749687Y-63961D01*
X-2754304Y-58335D01*
X-2755197Y-56664D01*
X-2756255Y-55264D01*
X-2760461Y-46817D01*
X-2764007Y-40182D01*
X-2764386Y-38935D01*
X-2764890Y-37922D01*
X-2767868Y-27457D01*
X-2769983Y-20485D01*
X-2770052Y-19779D01*
X-2770191Y-19290D01*
X-2771638Y-3674D01*
X-2772000Y0D01*
X-2771638Y3674D01*
X-2770191Y19290D01*
X-2770052Y19779D01*
X-2769983Y20485D01*
X-2767868Y27455D01*
X-2764890Y37923D01*
X-2764386Y38935D01*
X-2764007Y40182D01*
X-2760462Y46816D01*
X-2756255Y55264D01*
X-2755197Y56664D01*
X-2754304Y58335D01*
X-2749688Y63960D01*
X-2744580Y70724D01*
X-2742821Y72328D01*
X-2741246Y74246D01*
X-2735932Y78608D01*
X-2730264Y83775D01*
X-2727706Y85359D01*
X-2725335Y87304D01*
X-2719692Y90320D01*
X-2713793Y93973D01*
X-2710399Y95288D01*
X-2707182Y97007D01*
X-2701552Y98715D01*
X-2695729Y100971D01*
X-2691524Y101757D01*
X-2687485Y102982D01*
X-2682167Y103506D01*
X-2676686Y104531D01*
X-2671764Y104531D01*
X-2667000Y105000D01*
X-2662236Y104531D01*
G37*
G36*
X-2408236Y104531D02*
G01*
X-2403314Y104531D01*
X-2397833Y103506D01*
X-2392516Y102982D01*
X-2388476Y101757D01*
X-2384271Y100971D01*
X-2378449Y98715D01*
X-2372818Y97007D01*
X-2369601Y95288D01*
X-2366207Y93973D01*
X-2360309Y90321D01*
X-2354665Y87304D01*
X-2352294Y85358D01*
X-2349737Y83775D01*
X-2344069Y78609D01*
X-2338754Y74246D01*
X-2337179Y72327D01*
X-2335420Y70724D01*
X-2330313Y63961D01*
X-2325696Y58335D01*
X-2324803Y56664D01*
X-2323746Y55264D01*
X-2319540Y46818D01*
X-2315993Y40182D01*
X-2315614Y38935D01*
X-2315110Y37923D01*
X-2312134Y27461D01*
X-2310018Y20485D01*
X-2309948Y19779D01*
X-2309809Y19290D01*
X-2308364Y3691D01*
X-2308000Y0D01*
X-2308364Y-3691D01*
X-2309809Y-19290D01*
X-2309948Y-19778D01*
X-2310018Y-20485D01*
X-2312134Y-27462D01*
X-2315110Y-37922D01*
X-2315614Y-38934D01*
X-2315993Y-40182D01*
X-2319541Y-46820D01*
X-2323746Y-55264D01*
X-2324803Y-56664D01*
X-2325696Y-58335D01*
X-2330314Y-63963D01*
X-2335420Y-70724D01*
X-2337179Y-72327D01*
X-2338754Y-74246D01*
X-2344070Y-78609D01*
X-2349737Y-83775D01*
X-2352293Y-85358D01*
X-2354665Y-87304D01*
X-2360310Y-90321D01*
X-2366207Y-93973D01*
X-2369601Y-95287D01*
X-2372818Y-97007D01*
X-2378450Y-98716D01*
X-2384271Y-100971D01*
X-2388475Y-101757D01*
X-2392516Y-102982D01*
X-2397833Y-103506D01*
X-2403314Y-104531D01*
X-2408236Y-104531D01*
X-2413000Y-105000D01*
X-2417764Y-104531D01*
X-2422686Y-104531D01*
X-2428167Y-103506D01*
X-2433485Y-102982D01*
X-2437525Y-101757D01*
X-2441729Y-100971D01*
X-2447551Y-98715D01*
X-2453182Y-97007D01*
X-2456399Y-95288D01*
X-2459793Y-93973D01*
X-2465691Y-90321D01*
X-2471335Y-87304D01*
X-2473706Y-85358D01*
X-2476264Y-83775D01*
X-2481931Y-78608D01*
X-2487246Y-74246D01*
X-2488821Y-72327D01*
X-2490580Y-70724D01*
X-2495687Y-63961D01*
X-2500304Y-58335D01*
X-2501197Y-56664D01*
X-2502255Y-55264D01*
X-2506461Y-46817D01*
X-2510007Y-40182D01*
X-2510386Y-38935D01*
X-2510890Y-37922D01*
X-2513868Y-27457D01*
X-2515983Y-20485D01*
X-2516052Y-19779D01*
X-2516191Y-19290D01*
X-2517638Y-3674D01*
X-2518000Y0D01*
X-2517638Y3674D01*
X-2516191Y19290D01*
X-2516052Y19779D01*
X-2515983Y20485D01*
X-2513868Y27455D01*
X-2510890Y37923D01*
X-2510386Y38935D01*
X-2510007Y40182D01*
X-2506462Y46816D01*
X-2502255Y55264D01*
X-2501197Y56664D01*
X-2500304Y58335D01*
X-2495688Y63960D01*
X-2490580Y70724D01*
X-2488821Y72328D01*
X-2487246Y74246D01*
X-2481932Y78608D01*
X-2476264Y83775D01*
X-2473706Y85359D01*
X-2471335Y87304D01*
X-2465692Y90320D01*
X-2459793Y93973D01*
X-2456399Y95288D01*
X-2453182Y97007D01*
X-2447552Y98715D01*
X-2441729Y100971D01*
X-2437524Y101757D01*
X-2433485Y102982D01*
X-2428167Y103506D01*
X-2422686Y104531D01*
X-2417764Y104531D01*
X-2413000Y105000D01*
X-2408236Y104531D01*
G37*
G36*
X-2154236Y104531D02*
G01*
X-2149314Y104531D01*
X-2143833Y103506D01*
X-2138516Y102982D01*
X-2134476Y101757D01*
X-2130271Y100971D01*
X-2124449Y98715D01*
X-2118818Y97007D01*
X-2115601Y95288D01*
X-2112207Y93973D01*
X-2106309Y90321D01*
X-2100665Y87304D01*
X-2098294Y85358D01*
X-2095736Y83775D01*
X-2090069Y78609D01*
X-2084754Y74246D01*
X-2083179Y72327D01*
X-2081420Y70724D01*
X-2076313Y63961D01*
X-2071696Y58335D01*
X-2070803Y56664D01*
X-2069745Y55264D01*
X-2065540Y46818D01*
X-2061993Y40182D01*
X-2061614Y38935D01*
X-2061110Y37923D01*
X-2058134Y27461D01*
X-2056017Y20485D01*
X-2055948Y19779D01*
X-2055809Y19290D01*
X-2054364Y3691D01*
X-2054000Y0D01*
X-2054364Y-3691D01*
X-2055809Y-19290D01*
X-2055948Y-19778D01*
X-2056017Y-20485D01*
X-2058134Y-27462D01*
X-2061110Y-37922D01*
X-2061614Y-38934D01*
X-2061993Y-40182D01*
X-2065541Y-46820D01*
X-2069745Y-55264D01*
X-2070802Y-56664D01*
X-2071696Y-58335D01*
X-2076314Y-63963D01*
X-2081420Y-70724D01*
X-2083179Y-72327D01*
X-2084754Y-74246D01*
X-2090070Y-78609D01*
X-2095736Y-83775D01*
X-2098293Y-85358D01*
X-2100665Y-87304D01*
X-2106310Y-90321D01*
X-2112207Y-93973D01*
X-2115601Y-95287D01*
X-2118818Y-97007D01*
X-2124450Y-98716D01*
X-2130271Y-100971D01*
X-2134475Y-101757D01*
X-2138516Y-102982D01*
X-2143833Y-103506D01*
X-2149314Y-104531D01*
X-2154236Y-104531D01*
X-2159000Y-105000D01*
X-2163764Y-104531D01*
X-2168686Y-104531D01*
X-2174167Y-103506D01*
X-2179485Y-102982D01*
X-2183525Y-101757D01*
X-2187729Y-100971D01*
X-2193551Y-98715D01*
X-2199182Y-97007D01*
X-2202399Y-95288D01*
X-2205793Y-93973D01*
X-2211691Y-90321D01*
X-2217335Y-87304D01*
X-2219706Y-85358D01*
X-2222264Y-83775D01*
X-2227931Y-78608D01*
X-2233246Y-74246D01*
X-2234821Y-72327D01*
X-2236580Y-70724D01*
X-2241687Y-63961D01*
X-2246304Y-58335D01*
X-2247197Y-56664D01*
X-2248255Y-55264D01*
X-2252461Y-46817D01*
X-2256007Y-40182D01*
X-2256386Y-38935D01*
X-2256890Y-37922D01*
X-2259868Y-27457D01*
X-2261983Y-20485D01*
X-2262052Y-19779D01*
X-2262191Y-19290D01*
X-2263638Y-3674D01*
X-2264000Y0D01*
X-2263638Y3674D01*
X-2262191Y19290D01*
X-2262052Y19779D01*
X-2261983Y20485D01*
X-2259868Y27455D01*
X-2256890Y37923D01*
X-2256386Y38935D01*
X-2256007Y40182D01*
X-2252462Y46816D01*
X-2248255Y55264D01*
X-2247197Y56664D01*
X-2246304Y58335D01*
X-2241688Y63960D01*
X-2236580Y70724D01*
X-2234821Y72328D01*
X-2233246Y74246D01*
X-2227932Y78608D01*
X-2222264Y83775D01*
X-2219706Y85359D01*
X-2217335Y87304D01*
X-2211692Y90320D01*
X-2205793Y93973D01*
X-2202399Y95288D01*
X-2199182Y97007D01*
X-2193552Y98715D01*
X-2187729Y100971D01*
X-2183524Y101757D01*
X-2179485Y102982D01*
X-2174167Y103506D01*
X-2168686Y104531D01*
X-2163764Y104531D01*
X-2159000Y105000D01*
X-2154236Y104531D01*
G37*
G36*
X-675087Y343619D02*
G01*
X-673465Y342536D01*
X-672381Y340913D01*
X-672000Y339000D01*
X-672000Y0D01*
X-672381Y-1913D01*
X-673465Y-3535D01*
X-675087Y-4619D01*
X-677000Y-5000D01*
X-847000Y-5000D01*
X-848913Y-4619D01*
X-850535Y-3535D01*
X-851619Y-1913D01*
X-852000Y0D01*
X-852000Y339000D01*
X-851619Y340913D01*
X-850535Y342536D01*
X-848913Y343619D01*
X-847000Y344000D01*
X-677000Y344000D01*
X-675087Y343619D01*
G37*
G36*
X-505621Y343507D02*
G01*
X-498592Y343507D01*
X-496390Y343039D01*
X-494375Y342937D01*
X-487342Y341116D01*
X-480188Y339595D01*
X-478408Y338803D01*
X-476751Y338374D01*
X-469936Y335030D01*
X-463000Y331942D01*
X-461669Y330975D01*
X-460407Y330356D01*
X-454140Y325505D01*
X-447778Y320883D01*
X-446880Y319886D01*
X-446011Y319213D01*
X-440617Y312930D01*
X-435188Y306901D01*
X-434669Y306001D01*
X-434152Y305399D01*
X-429941Y297812D01*
X-425781Y290606D01*
X-425554Y289908D01*
X-425318Y289482D01*
X-422565Y280710D01*
X-419967Y272712D01*
X-419922Y272284D01*
X-419868Y272111D01*
X-418794Y261553D01*
X-418000Y254000D01*
X-418000Y85000D01*
X-418012Y84882D01*
X-418462Y76022D01*
X-419448Y71224D01*
X-419967Y66288D01*
X-421315Y62138D01*
X-422152Y58065D01*
X-424155Y53398D01*
X-425781Y48394D01*
X-427812Y44875D01*
X-429331Y41335D01*
X-432408Y36915D01*
X-435188Y32099D01*
X-437706Y29303D01*
X-439731Y26393D01*
X-443858Y22470D01*
X-447778Y18117D01*
X-450578Y16083D01*
X-452926Y13850D01*
X-458022Y10675D01*
X-463000Y7058D01*
X-465886Y5773D01*
X-468376Y4221D01*
X-474298Y2028D01*
X-480188Y-595D01*
X-482983Y-1189D01*
X-485448Y-2102D01*
X-492000Y-3106D01*
X-498592Y-4507D01*
X-501147Y-4507D01*
X-503443Y-4859D01*
X-510377Y-4507D01*
X-517408Y-4507D01*
X-519611Y-4039D01*
X-521625Y-3937D01*
X-528656Y-2116D01*
X-535812Y-595D01*
X-537592Y198D01*
X-539249Y627D01*
X-546063Y3969D01*
X-553000Y7058D01*
X-554331Y8025D01*
X-555593Y8644D01*
X-561860Y13495D01*
X-568222Y18117D01*
X-569120Y19115D01*
X-569989Y19788D01*
X-575383Y26071D01*
X-580812Y32099D01*
X-581331Y32999D01*
X-581848Y33601D01*
X-586060Y41191D01*
X-590219Y48394D01*
X-590446Y49092D01*
X-590683Y49518D01*
X-593437Y58296D01*
X-596033Y66288D01*
X-596078Y66716D01*
X-596133Y66889D01*
X-597207Y77455D01*
X-598000Y85000D01*
X-598000Y254000D01*
X-597988Y254118D01*
X-597538Y262978D01*
X-596552Y267778D01*
X-596033Y272712D01*
X-594685Y276861D01*
X-593848Y280935D01*
X-591845Y285603D01*
X-590219Y290606D01*
X-588188Y294124D01*
X-586669Y297665D01*
X-583591Y302087D01*
X-580812Y306901D01*
X-578295Y309696D01*
X-576269Y312607D01*
X-572141Y316531D01*
X-568222Y320883D01*
X-565423Y322917D01*
X-563074Y325150D01*
X-557977Y328327D01*
X-553000Y331942D01*
X-550115Y333227D01*
X-547624Y334779D01*
X-541700Y336973D01*
X-535812Y339595D01*
X-533018Y340189D01*
X-530552Y341102D01*
X-523998Y342106D01*
X-517408Y343507D01*
X-514854Y343507D01*
X-512557Y343859D01*
X-505621Y343507D01*
G37*
G36*
X-251621Y343507D02*
G01*
X-244592Y343507D01*
X-242390Y343039D01*
X-240375Y342937D01*
X-233342Y341116D01*
X-226188Y339595D01*
X-224408Y338803D01*
X-222751Y338374D01*
X-215936Y335030D01*
X-209000Y331942D01*
X-207669Y330975D01*
X-206407Y330356D01*
X-200140Y325505D01*
X-193778Y320883D01*
X-192880Y319886D01*
X-192011Y319213D01*
X-186617Y312930D01*
X-181188Y306901D01*
X-180669Y306001D01*
X-180152Y305399D01*
X-175941Y297812D01*
X-171781Y290606D01*
X-171554Y289908D01*
X-171318Y289482D01*
X-168565Y280710D01*
X-165967Y272712D01*
X-165922Y272284D01*
X-165868Y272111D01*
X-164794Y261553D01*
X-164000Y254000D01*
X-164000Y85000D01*
X-164013Y84882D01*
X-164462Y76022D01*
X-165448Y71224D01*
X-165967Y66288D01*
X-167315Y62138D01*
X-168152Y58065D01*
X-170155Y53398D01*
X-171781Y48394D01*
X-173813Y44875D01*
X-175331Y41335D01*
X-178408Y36915D01*
X-181188Y32099D01*
X-183706Y29303D01*
X-185731Y26393D01*
X-189858Y22470D01*
X-193778Y18117D01*
X-196578Y16083D01*
X-198926Y13850D01*
X-204022Y10675D01*
X-209000Y7058D01*
X-211886Y5773D01*
X-214376Y4221D01*
X-220298Y2028D01*
X-226188Y-595D01*
X-228983Y-1189D01*
X-231448Y-2102D01*
X-238000Y-3106D01*
X-244592Y-4507D01*
X-247147Y-4507D01*
X-249443Y-4859D01*
X-256377Y-4507D01*
X-263408Y-4507D01*
X-265611Y-4039D01*
X-267625Y-3937D01*
X-274656Y-2116D01*
X-281812Y-595D01*
X-283592Y198D01*
X-285249Y627D01*
X-292063Y3969D01*
X-299000Y7058D01*
X-300331Y8025D01*
X-301593Y8644D01*
X-307860Y13495D01*
X-314222Y18117D01*
X-315120Y19115D01*
X-315989Y19788D01*
X-321383Y26071D01*
X-326812Y32099D01*
X-327331Y32999D01*
X-327848Y33601D01*
X-332060Y41191D01*
X-336219Y48394D01*
X-336446Y49092D01*
X-336683Y49518D01*
X-339437Y58296D01*
X-342033Y66288D01*
X-342078Y66716D01*
X-342133Y66889D01*
X-343207Y77455D01*
X-344000Y85000D01*
X-344000Y254000D01*
X-343988Y254118D01*
X-343538Y262978D01*
X-342552Y267778D01*
X-342033Y272712D01*
X-340685Y276861D01*
X-339848Y280935D01*
X-337845Y285603D01*
X-336219Y290606D01*
X-334188Y294124D01*
X-332669Y297665D01*
X-329591Y302087D01*
X-326812Y306901D01*
X-324295Y309696D01*
X-322269Y312607D01*
X-318141Y316531D01*
X-314222Y320883D01*
X-311423Y322917D01*
X-309074Y325150D01*
X-303977Y328327D01*
X-299000Y331942D01*
X-296115Y333227D01*
X-293624Y334779D01*
X-287700Y336973D01*
X-281812Y339595D01*
X-279018Y340189D01*
X-276552Y341102D01*
X-269998Y342106D01*
X-263408Y343507D01*
X-260854Y343507D01*
X-258557Y343859D01*
X-251621Y343507D01*
G37*
G36*
X2379Y343507D02*
G01*
X9408Y343507D01*
X11610Y343039D01*
X13625Y342937D01*
X20658Y341116D01*
X27811Y339595D01*
X29591Y338803D01*
X31249Y338374D01*
X38064Y335030D01*
X45000Y331942D01*
X46331Y330975D01*
X47593Y330356D01*
X53860Y325505D01*
X60222Y320883D01*
X61120Y319886D01*
X61989Y319213D01*
X67383Y312930D01*
X72812Y306901D01*
X73331Y306001D01*
X73848Y305399D01*
X78059Y297812D01*
X82219Y290606D01*
X82446Y289908D01*
X82682Y289482D01*
X85435Y280710D01*
X88033Y272712D01*
X88078Y272284D01*
X88132Y272111D01*
X89206Y261553D01*
X90000Y254000D01*
X90000Y85000D01*
X89987Y84882D01*
X89538Y76022D01*
X88552Y71224D01*
X88033Y66288D01*
X86685Y62138D01*
X85848Y58065D01*
X83845Y53398D01*
X82219Y48394D01*
X80188Y44875D01*
X78669Y41335D01*
X75592Y36915D01*
X72812Y32099D01*
X70294Y29303D01*
X68269Y26393D01*
X64142Y22470D01*
X60222Y18117D01*
X57421Y16083D01*
X55073Y13850D01*
X49978Y10675D01*
X45000Y7058D01*
X42114Y5773D01*
X39624Y4221D01*
X33702Y2028D01*
X27811Y-595D01*
X25016Y-1189D01*
X22552Y-2102D01*
X16000Y-3106D01*
X9408Y-4507D01*
X6853Y-4507D01*
X4557Y-4859D01*
X-2378Y-4507D01*
X-9408Y-4507D01*
X-11611Y-4039D01*
X-13625Y-3937D01*
X-20656Y-2116D01*
X-27811Y-595D01*
X-29592Y198D01*
X-31249Y627D01*
X-38063Y3969D01*
X-45000Y7058D01*
X-46331Y8025D01*
X-47593Y8644D01*
X-53860Y13495D01*
X-60222Y18117D01*
X-61120Y19115D01*
X-61989Y19788D01*
X-67383Y26071D01*
X-72812Y32099D01*
X-73331Y32999D01*
X-73848Y33601D01*
X-78060Y41191D01*
X-82219Y48394D01*
X-82446Y49092D01*
X-82683Y49518D01*
X-85437Y58296D01*
X-88033Y66288D01*
X-88078Y66716D01*
X-88132Y66889D01*
X-89207Y77455D01*
X-90000Y85000D01*
X-90000Y254000D01*
X-89988Y254118D01*
X-89538Y262978D01*
X-88552Y267778D01*
X-88033Y272712D01*
X-86685Y276861D01*
X-85848Y280935D01*
X-83845Y285603D01*
X-82219Y290606D01*
X-80188Y294124D01*
X-78669Y297665D01*
X-75591Y302087D01*
X-72812Y306901D01*
X-70295Y309696D01*
X-68269Y312607D01*
X-64140Y316531D01*
X-60222Y320883D01*
X-57422Y322917D01*
X-55074Y325150D01*
X-49976Y328327D01*
X-45000Y331942D01*
X-42115Y333227D01*
X-39624Y334779D01*
X-33700Y336973D01*
X-27811Y339595D01*
X-25017Y340189D01*
X-22552Y341102D01*
X-15998Y342106D01*
X-9408Y343507D01*
X-6854Y343507D01*
X-4558Y343859D01*
X2379Y343507D01*
G37*
G36*
X256379Y343507D02*
G01*
X263408Y343507D01*
X265610Y343039D01*
X267625Y342937D01*
X274658Y341116D01*
X281812Y339595D01*
X283592Y338803D01*
X285249Y338374D01*
X292064Y335030D01*
X299000Y331942D01*
X300331Y330975D01*
X301593Y330356D01*
X307860Y325505D01*
X314222Y320883D01*
X315120Y319886D01*
X315989Y319213D01*
X321383Y312930D01*
X326812Y306901D01*
X327331Y306001D01*
X327848Y305399D01*
X332059Y297812D01*
X336219Y290606D01*
X336446Y289908D01*
X336682Y289482D01*
X339435Y280710D01*
X342033Y272712D01*
X342078Y272284D01*
X342132Y272111D01*
X343206Y261553D01*
X344000Y254000D01*
X344000Y85000D01*
X343988Y84882D01*
X343538Y76022D01*
X342552Y71224D01*
X342033Y66288D01*
X340685Y62138D01*
X339848Y58065D01*
X337845Y53398D01*
X336219Y48394D01*
X334188Y44875D01*
X332669Y41335D01*
X329592Y36915D01*
X326812Y32099D01*
X324294Y29303D01*
X322269Y26393D01*
X318142Y22470D01*
X314222Y18117D01*
X311422Y16083D01*
X309074Y13850D01*
X303978Y10675D01*
X299000Y7058D01*
X296114Y5773D01*
X293624Y4221D01*
X287702Y2028D01*
X281812Y-595D01*
X279017Y-1189D01*
X276552Y-2102D01*
X270000Y-3106D01*
X263408Y-4507D01*
X260853Y-4507D01*
X258557Y-4859D01*
X251622Y-4507D01*
X244592Y-4507D01*
X242389Y-4039D01*
X240375Y-3937D01*
X233344Y-2116D01*
X226188Y-595D01*
X224408Y198D01*
X222751Y627D01*
X215937Y3969D01*
X209000Y7058D01*
X207669Y8025D01*
X206407Y8644D01*
X200140Y13495D01*
X193778Y18117D01*
X192880Y19115D01*
X192011Y19788D01*
X186617Y26071D01*
X181188Y32099D01*
X180669Y32999D01*
X180152Y33601D01*
X175940Y41191D01*
X171781Y48394D01*
X171554Y49092D01*
X171318Y49518D01*
X168563Y58296D01*
X165967Y66288D01*
X165922Y66716D01*
X165868Y66889D01*
X164793Y77455D01*
X164000Y85000D01*
X164000Y254000D01*
X164012Y254118D01*
X164462Y262978D01*
X165448Y267778D01*
X165967Y272712D01*
X167315Y276861D01*
X168152Y280935D01*
X170155Y285603D01*
X171781Y290606D01*
X173812Y294124D01*
X175331Y297665D01*
X178409Y302087D01*
X181188Y306901D01*
X183705Y309696D01*
X185731Y312607D01*
X189859Y316531D01*
X193778Y320883D01*
X196577Y322917D01*
X198926Y325150D01*
X204023Y328327D01*
X209000Y331942D01*
X211885Y333227D01*
X214376Y334779D01*
X220300Y336973D01*
X226188Y339595D01*
X228982Y340189D01*
X231448Y341102D01*
X238002Y342106D01*
X244592Y343507D01*
X247146Y343507D01*
X249442Y343859D01*
X256379Y343507D01*
G37*
G36*
X510379Y343507D02*
G01*
X517408Y343507D01*
X519610Y343039D01*
X521625Y342937D01*
X528658Y341116D01*
X535812Y339595D01*
X537592Y338803D01*
X539249Y338374D01*
X546064Y335030D01*
X553000Y331942D01*
X554331Y330975D01*
X555593Y330356D01*
X561860Y325505D01*
X568222Y320883D01*
X569120Y319886D01*
X569989Y319213D01*
X575383Y312930D01*
X580812Y306901D01*
X581331Y306001D01*
X581848Y305399D01*
X586059Y297812D01*
X590219Y290606D01*
X590446Y289908D01*
X590682Y289482D01*
X593435Y280710D01*
X596033Y272712D01*
X596078Y272284D01*
X596132Y272111D01*
X597206Y261553D01*
X598000Y254000D01*
X598000Y85000D01*
X597988Y84882D01*
X597538Y76022D01*
X596552Y71224D01*
X596033Y66288D01*
X594685Y62138D01*
X593848Y58065D01*
X591845Y53398D01*
X590219Y48394D01*
X588188Y44875D01*
X586669Y41335D01*
X583592Y36915D01*
X580812Y32099D01*
X578294Y29303D01*
X576269Y26393D01*
X572142Y22470D01*
X568222Y18117D01*
X565422Y16083D01*
X563074Y13850D01*
X557978Y10675D01*
X553000Y7058D01*
X550114Y5773D01*
X547624Y4221D01*
X541702Y2028D01*
X535812Y-595D01*
X533017Y-1189D01*
X530552Y-2102D01*
X524000Y-3106D01*
X517408Y-4507D01*
X514853Y-4507D01*
X512557Y-4859D01*
X505622Y-4507D01*
X498592Y-4507D01*
X496389Y-4039D01*
X494375Y-3937D01*
X487344Y-2116D01*
X480188Y-595D01*
X478408Y198D01*
X476751Y627D01*
X469937Y3969D01*
X463000Y7058D01*
X461669Y8025D01*
X460407Y8644D01*
X454140Y13495D01*
X447778Y18117D01*
X446880Y19115D01*
X446011Y19788D01*
X440617Y26071D01*
X435188Y32099D01*
X434669Y32999D01*
X434152Y33601D01*
X429940Y41191D01*
X425781Y48394D01*
X425554Y49092D01*
X425317Y49518D01*
X422563Y58296D01*
X419967Y66288D01*
X419922Y66716D01*
X419867Y66889D01*
X418793Y77455D01*
X418000Y85000D01*
X418000Y254000D01*
X418012Y254118D01*
X418462Y262978D01*
X419448Y267778D01*
X419967Y272712D01*
X421315Y276861D01*
X422152Y280935D01*
X424155Y285603D01*
X425781Y290606D01*
X427812Y294124D01*
X429331Y297665D01*
X432409Y302087D01*
X435188Y306901D01*
X437705Y309696D01*
X439731Y312607D01*
X443859Y316531D01*
X447778Y320883D01*
X450577Y322917D01*
X452926Y325150D01*
X458023Y328327D01*
X463000Y331942D01*
X465885Y333227D01*
X468376Y334779D01*
X474300Y336973D01*
X480188Y339595D01*
X482982Y340189D01*
X485448Y341102D01*
X492002Y342106D01*
X498592Y343507D01*
X501146Y343507D01*
X503442Y343859D01*
X510379Y343507D01*
G37*
G36*
X764379Y343507D02*
G01*
X771408Y343507D01*
X773610Y343039D01*
X775625Y342937D01*
X782658Y341116D01*
X789811Y339595D01*
X791591Y338803D01*
X793249Y338374D01*
X800064Y335030D01*
X807000Y331942D01*
X808331Y330975D01*
X809593Y330356D01*
X815860Y325505D01*
X822222Y320883D01*
X823120Y319886D01*
X823989Y319213D01*
X829383Y312930D01*
X834811Y306901D01*
X835331Y306001D01*
X835847Y305399D01*
X840059Y297812D01*
X844219Y290606D01*
X844446Y289908D01*
X844682Y289482D01*
X847435Y280710D01*
X850033Y272712D01*
X850078Y272284D01*
X850132Y272111D01*
X851206Y261553D01*
X852000Y254000D01*
X852000Y85000D01*
X851987Y84882D01*
X851538Y76022D01*
X850552Y71224D01*
X850033Y66288D01*
X848685Y62138D01*
X847848Y58065D01*
X845845Y53398D01*
X844219Y48394D01*
X842187Y44875D01*
X840669Y41335D01*
X837592Y36915D01*
X834811Y32099D01*
X832294Y29303D01*
X830269Y26393D01*
X826142Y22470D01*
X822222Y18117D01*
X819421Y16083D01*
X817073Y13850D01*
X811978Y10675D01*
X807000Y7058D01*
X804114Y5773D01*
X801624Y4221D01*
X795702Y2028D01*
X789811Y-595D01*
X787016Y-1189D01*
X784552Y-2102D01*
X778000Y-3106D01*
X771408Y-4507D01*
X768853Y-4507D01*
X766557Y-4859D01*
X759622Y-4507D01*
X752592Y-4507D01*
X750389Y-4039D01*
X748375Y-3937D01*
X741344Y-2116D01*
X734188Y-595D01*
X732408Y198D01*
X730751Y627D01*
X723937Y3969D01*
X717000Y7058D01*
X715669Y8025D01*
X714407Y8644D01*
X708140Y13495D01*
X701778Y18117D01*
X700880Y19115D01*
X700011Y19788D01*
X694617Y26071D01*
X689189Y32099D01*
X688669Y32999D01*
X688152Y33601D01*
X683940Y41191D01*
X679781Y48394D01*
X679554Y49092D01*
X679318Y49518D01*
X676563Y58296D01*
X673967Y66288D01*
X673922Y66716D01*
X673868Y66889D01*
X672793Y77455D01*
X672000Y85000D01*
X672000Y254000D01*
X672012Y254118D01*
X672462Y262978D01*
X673448Y267778D01*
X673967Y272712D01*
X675315Y276861D01*
X676152Y280935D01*
X678155Y285603D01*
X679781Y290606D01*
X681812Y294124D01*
X683331Y297665D01*
X686409Y302087D01*
X689189Y306901D01*
X691705Y309696D01*
X693731Y312607D01*
X697860Y316531D01*
X701778Y320883D01*
X704577Y322917D01*
X706926Y325150D01*
X712023Y328327D01*
X717000Y331942D01*
X719885Y333227D01*
X722376Y334779D01*
X728300Y336973D01*
X734188Y339595D01*
X736982Y340189D01*
X739448Y341102D01*
X746002Y342106D01*
X752592Y343507D01*
X755146Y343507D01*
X757442Y343859D01*
X764379Y343507D01*
G37*
G36*
X1018379Y343507D02*
G01*
X1025408Y343507D01*
X1027610Y343039D01*
X1029625Y342937D01*
X1036658Y341116D01*
X1043811Y339595D01*
X1045591Y338803D01*
X1047249Y338374D01*
X1054064Y335030D01*
X1061000Y331942D01*
X1062331Y330975D01*
X1063593Y330356D01*
X1069860Y325505D01*
X1076222Y320883D01*
X1077120Y319886D01*
X1077989Y319213D01*
X1083383Y312930D01*
X1088812Y306901D01*
X1089331Y306001D01*
X1089848Y305399D01*
X1094059Y297812D01*
X1098219Y290606D01*
X1098446Y289908D01*
X1098682Y289482D01*
X1101435Y280710D01*
X1104033Y272712D01*
X1104078Y272284D01*
X1104132Y272111D01*
X1105206Y261553D01*
X1106000Y254000D01*
X1106000Y85000D01*
X1105988Y84882D01*
X1105538Y76022D01*
X1104552Y71224D01*
X1104033Y66288D01*
X1102685Y62138D01*
X1101848Y58065D01*
X1099845Y53398D01*
X1098219Y48394D01*
X1096188Y44875D01*
X1094669Y41335D01*
X1091592Y36915D01*
X1088812Y32099D01*
X1086294Y29303D01*
X1084269Y26393D01*
X1080142Y22470D01*
X1076222Y18117D01*
X1073422Y16083D01*
X1071074Y13850D01*
X1065978Y10675D01*
X1061000Y7058D01*
X1058114Y5773D01*
X1055624Y4221D01*
X1049702Y2028D01*
X1043811Y-595D01*
X1041016Y-1189D01*
X1038552Y-2102D01*
X1032000Y-3106D01*
X1025408Y-4507D01*
X1022853Y-4507D01*
X1020557Y-4859D01*
X1013622Y-4507D01*
X1006592Y-4507D01*
X1004389Y-4039D01*
X1002375Y-3937D01*
X995344Y-2116D01*
X988188Y-595D01*
X986408Y198D01*
X984751Y627D01*
X977937Y3969D01*
X971000Y7058D01*
X969669Y8025D01*
X968407Y8644D01*
X962140Y13495D01*
X955778Y18117D01*
X954880Y19115D01*
X954011Y19788D01*
X948617Y26071D01*
X943188Y32099D01*
X942669Y32999D01*
X942152Y33601D01*
X937940Y41191D01*
X933781Y48394D01*
X933554Y49092D01*
X933317Y49518D01*
X930563Y58296D01*
X927967Y66288D01*
X927922Y66716D01*
X927867Y66889D01*
X926793Y77455D01*
X926000Y85000D01*
X926000Y254000D01*
X926012Y254118D01*
X926462Y262978D01*
X927448Y267778D01*
X927967Y272712D01*
X929315Y276861D01*
X930152Y280935D01*
X932155Y285603D01*
X933781Y290606D01*
X935812Y294124D01*
X937331Y297665D01*
X940409Y302087D01*
X943188Y306901D01*
X945705Y309696D01*
X947731Y312607D01*
X951859Y316531D01*
X955778Y320883D01*
X958577Y322917D01*
X960926Y325150D01*
X966023Y328327D01*
X971000Y331942D01*
X973885Y333227D01*
X976376Y334779D01*
X982300Y336973D01*
X988188Y339595D01*
X990982Y340189D01*
X993448Y341102D01*
X1000002Y342106D01*
X1006592Y343507D01*
X1009146Y343507D01*
X1011442Y343859D01*
X1018379Y343507D01*
G37*
G36*
X1272379Y343507D02*
G01*
X1279408Y343507D01*
X1281610Y343039D01*
X1283625Y342937D01*
X1290658Y341116D01*
X1297812Y339595D01*
X1299592Y338803D01*
X1301249Y338374D01*
X1308064Y335030D01*
X1315000Y331942D01*
X1316331Y330975D01*
X1317593Y330356D01*
X1323860Y325505D01*
X1330222Y320883D01*
X1331120Y319886D01*
X1331989Y319213D01*
X1337383Y312930D01*
X1342812Y306901D01*
X1343331Y306001D01*
X1343848Y305399D01*
X1348059Y297812D01*
X1352219Y290606D01*
X1352446Y289908D01*
X1352682Y289482D01*
X1355435Y280710D01*
X1358033Y272712D01*
X1358078Y272284D01*
X1358132Y272111D01*
X1359206Y261553D01*
X1360000Y254000D01*
X1360000Y85000D01*
X1359988Y84882D01*
X1359538Y76022D01*
X1358552Y71224D01*
X1358033Y66288D01*
X1356685Y62138D01*
X1355848Y58065D01*
X1353845Y53398D01*
X1352219Y48394D01*
X1350188Y44875D01*
X1348669Y41335D01*
X1345592Y36915D01*
X1342812Y32099D01*
X1340294Y29303D01*
X1338269Y26393D01*
X1334142Y22470D01*
X1330222Y18117D01*
X1327422Y16083D01*
X1325074Y13850D01*
X1319978Y10675D01*
X1315000Y7058D01*
X1312114Y5773D01*
X1309624Y4221D01*
X1303702Y2028D01*
X1297812Y-595D01*
X1295017Y-1189D01*
X1292552Y-2102D01*
X1286000Y-3106D01*
X1279408Y-4507D01*
X1276853Y-4507D01*
X1274557Y-4859D01*
X1267623Y-4507D01*
X1260592Y-4507D01*
X1258389Y-4039D01*
X1256375Y-3937D01*
X1249344Y-2116D01*
X1242189Y-595D01*
X1240408Y198D01*
X1238751Y627D01*
X1231937Y3969D01*
X1225000Y7058D01*
X1223669Y8025D01*
X1222407Y8644D01*
X1216140Y13495D01*
X1209778Y18117D01*
X1208880Y19115D01*
X1208011Y19788D01*
X1202617Y26071D01*
X1197189Y32099D01*
X1196669Y32999D01*
X1196152Y33601D01*
X1191940Y41191D01*
X1187781Y48394D01*
X1187554Y49092D01*
X1187318Y49518D01*
X1184563Y58296D01*
X1181967Y66288D01*
X1181922Y66716D01*
X1181868Y66889D01*
X1180793Y77455D01*
X1180000Y85000D01*
X1180000Y254000D01*
X1180012Y254118D01*
X1180462Y262978D01*
X1181448Y267778D01*
X1181967Y272712D01*
X1183315Y276861D01*
X1184152Y280935D01*
X1186155Y285603D01*
X1187781Y290606D01*
X1189812Y294124D01*
X1191331Y297665D01*
X1194409Y302087D01*
X1197189Y306901D01*
X1199705Y309696D01*
X1201731Y312607D01*
X1205860Y316531D01*
X1209778Y320883D01*
X1212578Y322917D01*
X1214926Y325150D01*
X1220024Y328327D01*
X1225000Y331942D01*
X1227885Y333227D01*
X1230376Y334779D01*
X1236300Y336973D01*
X1242189Y339595D01*
X1244983Y340189D01*
X1247448Y341102D01*
X1254002Y342106D01*
X1260592Y343507D01*
X1263146Y343507D01*
X1265443Y343859D01*
X1272379Y343507D01*
G37*
G36*
X1526379Y343507D02*
G01*
X1533408Y343507D01*
X1535610Y343039D01*
X1537625Y342937D01*
X1544658Y341116D01*
X1551811Y339595D01*
X1553591Y338803D01*
X1555249Y338374D01*
X1562064Y335030D01*
X1569000Y331942D01*
X1570331Y330975D01*
X1571593Y330356D01*
X1577860Y325505D01*
X1584222Y320883D01*
X1585120Y319886D01*
X1585989Y319213D01*
X1591383Y312930D01*
X1596811Y306901D01*
X1597331Y306001D01*
X1597847Y305399D01*
X1602059Y297812D01*
X1606219Y290606D01*
X1606446Y289908D01*
X1606682Y289482D01*
X1609435Y280710D01*
X1612033Y272712D01*
X1612078Y272284D01*
X1612132Y272111D01*
X1613206Y261553D01*
X1614000Y254000D01*
X1614000Y85000D01*
X1613987Y84882D01*
X1613538Y76022D01*
X1612552Y71224D01*
X1612033Y66288D01*
X1610685Y62138D01*
X1609848Y58065D01*
X1607845Y53398D01*
X1606219Y48394D01*
X1604187Y44875D01*
X1602669Y41335D01*
X1599592Y36915D01*
X1596811Y32099D01*
X1594294Y29303D01*
X1592269Y26393D01*
X1588142Y22470D01*
X1584222Y18117D01*
X1581421Y16083D01*
X1579073Y13850D01*
X1573978Y10675D01*
X1569000Y7058D01*
X1566114Y5773D01*
X1563624Y4221D01*
X1557702Y2028D01*
X1551811Y-595D01*
X1549016Y-1189D01*
X1546552Y-2102D01*
X1540000Y-3106D01*
X1533408Y-4507D01*
X1530853Y-4507D01*
X1528557Y-4859D01*
X1521622Y-4507D01*
X1514592Y-4507D01*
X1512389Y-4039D01*
X1510375Y-3937D01*
X1503344Y-2116D01*
X1496188Y-595D01*
X1494408Y198D01*
X1492751Y627D01*
X1485937Y3969D01*
X1479000Y7058D01*
X1477669Y8025D01*
X1476407Y8644D01*
X1470140Y13495D01*
X1463778Y18117D01*
X1462880Y19115D01*
X1462011Y19788D01*
X1456617Y26071D01*
X1451188Y32099D01*
X1450669Y32999D01*
X1450152Y33601D01*
X1445940Y41191D01*
X1441781Y48394D01*
X1441554Y49092D01*
X1441317Y49518D01*
X1438563Y58296D01*
X1435967Y66288D01*
X1435922Y66716D01*
X1435867Y66889D01*
X1434793Y77455D01*
X1434000Y85000D01*
X1434000Y254000D01*
X1434012Y254118D01*
X1434462Y262978D01*
X1435448Y267778D01*
X1435967Y272712D01*
X1437315Y276861D01*
X1438152Y280935D01*
X1440155Y285603D01*
X1441781Y290606D01*
X1443812Y294124D01*
X1445331Y297665D01*
X1448409Y302087D01*
X1451188Y306901D01*
X1453705Y309696D01*
X1455731Y312607D01*
X1459859Y316531D01*
X1463778Y320883D01*
X1466577Y322917D01*
X1468926Y325150D01*
X1474023Y328327D01*
X1479000Y331942D01*
X1481885Y333227D01*
X1484376Y334779D01*
X1490300Y336973D01*
X1496188Y339595D01*
X1498982Y340189D01*
X1501448Y341102D01*
X1508002Y342106D01*
X1514592Y343507D01*
X1517146Y343507D01*
X1519442Y343859D01*
X1526379Y343507D01*
G37*
G36*
X1780379Y343507D02*
G01*
X1787408Y343507D01*
X1789610Y343039D01*
X1791625Y342937D01*
X1798658Y341116D01*
X1805811Y339595D01*
X1807591Y338803D01*
X1809249Y338374D01*
X1816064Y335030D01*
X1823000Y331942D01*
X1824331Y330975D01*
X1825593Y330356D01*
X1831860Y325505D01*
X1838222Y320883D01*
X1839120Y319886D01*
X1839989Y319213D01*
X1845383Y312930D01*
X1850811Y306901D01*
X1851331Y306001D01*
X1851847Y305399D01*
X1856059Y297812D01*
X1860219Y290606D01*
X1860446Y289908D01*
X1860682Y289482D01*
X1863435Y280710D01*
X1866033Y272712D01*
X1866078Y272284D01*
X1866132Y272111D01*
X1867206Y261553D01*
X1868000Y254000D01*
X1868000Y85000D01*
X1867987Y84882D01*
X1867538Y76022D01*
X1866552Y71224D01*
X1866033Y66288D01*
X1864685Y62138D01*
X1863848Y58065D01*
X1861845Y53398D01*
X1860219Y48394D01*
X1858187Y44875D01*
X1856669Y41335D01*
X1853592Y36915D01*
X1850811Y32099D01*
X1848294Y29303D01*
X1846269Y26393D01*
X1842142Y22470D01*
X1838222Y18117D01*
X1835421Y16083D01*
X1833073Y13850D01*
X1827978Y10675D01*
X1823000Y7058D01*
X1820114Y5773D01*
X1817624Y4221D01*
X1811702Y2028D01*
X1805811Y-595D01*
X1803016Y-1189D01*
X1800552Y-2102D01*
X1794000Y-3106D01*
X1787408Y-4507D01*
X1784853Y-4507D01*
X1782557Y-4859D01*
X1775622Y-4507D01*
X1768592Y-4507D01*
X1766389Y-4039D01*
X1764375Y-3937D01*
X1757344Y-2116D01*
X1750188Y-595D01*
X1748408Y198D01*
X1746751Y627D01*
X1739937Y3969D01*
X1733000Y7058D01*
X1731669Y8025D01*
X1730407Y8644D01*
X1724140Y13495D01*
X1717778Y18117D01*
X1716880Y19115D01*
X1716011Y19788D01*
X1710617Y26071D01*
X1705188Y32099D01*
X1704669Y32999D01*
X1704152Y33601D01*
X1699940Y41191D01*
X1695781Y48394D01*
X1695554Y49092D01*
X1695317Y49518D01*
X1692563Y58296D01*
X1689967Y66288D01*
X1689922Y66716D01*
X1689867Y66889D01*
X1688793Y77455D01*
X1688000Y85000D01*
X1688000Y254000D01*
X1688012Y254118D01*
X1688462Y262978D01*
X1689448Y267778D01*
X1689967Y272712D01*
X1691315Y276861D01*
X1692152Y280935D01*
X1694155Y285603D01*
X1695781Y290606D01*
X1697812Y294124D01*
X1699331Y297665D01*
X1702409Y302087D01*
X1705188Y306901D01*
X1707705Y309696D01*
X1709731Y312607D01*
X1713859Y316531D01*
X1717778Y320883D01*
X1720577Y322917D01*
X1722926Y325150D01*
X1728023Y328327D01*
X1733000Y331942D01*
X1735885Y333227D01*
X1738376Y334779D01*
X1744300Y336973D01*
X1750188Y339595D01*
X1752982Y340189D01*
X1755448Y341102D01*
X1762002Y342106D01*
X1768592Y343507D01*
X1771146Y343507D01*
X1773442Y343859D01*
X1780379Y343507D01*
G37*
G36*
X2034379Y343507D02*
G01*
X2041408Y343507D01*
X2043610Y343039D01*
X2045625Y342937D01*
X2052658Y341116D01*
X2059811Y339595D01*
X2061591Y338803D01*
X2063249Y338374D01*
X2070064Y335030D01*
X2077000Y331942D01*
X2078331Y330975D01*
X2079593Y330356D01*
X2085860Y325505D01*
X2092222Y320883D01*
X2093120Y319886D01*
X2093989Y319213D01*
X2099383Y312930D01*
X2104812Y306901D01*
X2105331Y306001D01*
X2105848Y305399D01*
X2110059Y297812D01*
X2114219Y290606D01*
X2114446Y289908D01*
X2114682Y289482D01*
X2117435Y280710D01*
X2120033Y272712D01*
X2120078Y272284D01*
X2120132Y272111D01*
X2121206Y261553D01*
X2122000Y254000D01*
X2122000Y85000D01*
X2121988Y84882D01*
X2121538Y76022D01*
X2120552Y71224D01*
X2120033Y66288D01*
X2118685Y62138D01*
X2117848Y58065D01*
X2115845Y53398D01*
X2114219Y48394D01*
X2112188Y44875D01*
X2110669Y41335D01*
X2107592Y36915D01*
X2104812Y32099D01*
X2102294Y29303D01*
X2100269Y26393D01*
X2096142Y22470D01*
X2092222Y18117D01*
X2089421Y16083D01*
X2087073Y13850D01*
X2081978Y10675D01*
X2077000Y7058D01*
X2074114Y5773D01*
X2071624Y4221D01*
X2065702Y2028D01*
X2059811Y-595D01*
X2057016Y-1189D01*
X2054552Y-2102D01*
X2048000Y-3106D01*
X2041408Y-4507D01*
X2038853Y-4507D01*
X2036557Y-4859D01*
X2029622Y-4507D01*
X2022592Y-4507D01*
X2020389Y-4039D01*
X2018375Y-3937D01*
X2011344Y-2116D01*
X2004188Y-595D01*
X2002408Y198D01*
X2000751Y627D01*
X1993937Y3969D01*
X1987000Y7058D01*
X1985669Y8025D01*
X1984407Y8644D01*
X1978140Y13495D01*
X1971778Y18117D01*
X1970880Y19115D01*
X1970011Y19788D01*
X1964617Y26071D01*
X1959188Y32099D01*
X1958669Y32999D01*
X1958152Y33601D01*
X1953940Y41191D01*
X1949781Y48394D01*
X1949554Y49092D01*
X1949317Y49518D01*
X1946563Y58296D01*
X1943967Y66288D01*
X1943922Y66716D01*
X1943867Y66889D01*
X1942793Y77455D01*
X1942000Y85000D01*
X1942000Y254000D01*
X1942012Y254118D01*
X1942462Y262978D01*
X1943448Y267778D01*
X1943967Y272712D01*
X1945315Y276861D01*
X1946152Y280935D01*
X1948155Y285603D01*
X1949781Y290606D01*
X1951812Y294124D01*
X1953331Y297665D01*
X1956409Y302087D01*
X1959188Y306901D01*
X1961705Y309696D01*
X1963731Y312607D01*
X1967859Y316531D01*
X1971778Y320883D01*
X1974577Y322917D01*
X1976926Y325150D01*
X1982023Y328327D01*
X1987000Y331942D01*
X1989885Y333227D01*
X1992376Y334779D01*
X1998300Y336973D01*
X2004188Y339595D01*
X2006982Y340189D01*
X2009448Y341102D01*
X2016002Y342106D01*
X2022592Y343507D01*
X2025146Y343507D01*
X2027442Y343859D01*
X2034379Y343507D01*
G37*
G36*
X2288379Y343507D02*
G01*
X2295408Y343507D01*
X2297610Y343039D01*
X2299625Y342937D01*
X2306658Y341116D01*
X2313812Y339595D01*
X2315592Y338803D01*
X2317249Y338374D01*
X2324064Y335030D01*
X2331000Y331942D01*
X2332331Y330975D01*
X2333593Y330356D01*
X2339860Y325505D01*
X2346222Y320883D01*
X2347120Y319886D01*
X2347989Y319213D01*
X2353383Y312930D01*
X2358812Y306901D01*
X2359331Y306001D01*
X2359848Y305399D01*
X2364059Y297812D01*
X2368219Y290606D01*
X2368446Y289908D01*
X2368682Y289482D01*
X2371435Y280710D01*
X2374033Y272712D01*
X2374078Y272284D01*
X2374132Y272111D01*
X2375206Y261553D01*
X2376000Y254000D01*
X2376000Y85000D01*
X2375988Y84882D01*
X2375538Y76022D01*
X2374552Y71224D01*
X2374033Y66288D01*
X2372685Y62138D01*
X2371848Y58065D01*
X2369845Y53398D01*
X2368219Y48394D01*
X2366188Y44875D01*
X2364669Y41335D01*
X2361592Y36915D01*
X2358812Y32099D01*
X2356294Y29303D01*
X2354269Y26393D01*
X2350142Y22470D01*
X2346222Y18117D01*
X2343422Y16083D01*
X2341074Y13850D01*
X2335978Y10675D01*
X2331000Y7058D01*
X2328114Y5773D01*
X2325624Y4221D01*
X2319702Y2028D01*
X2313812Y-595D01*
X2311017Y-1189D01*
X2308552Y-2102D01*
X2302000Y-3106D01*
X2295408Y-4507D01*
X2292853Y-4507D01*
X2290557Y-4859D01*
X2283623Y-4507D01*
X2276592Y-4507D01*
X2274389Y-4039D01*
X2272375Y-3937D01*
X2265344Y-2116D01*
X2258189Y-595D01*
X2256408Y198D01*
X2254751Y627D01*
X2247937Y3969D01*
X2241000Y7058D01*
X2239669Y8025D01*
X2238407Y8644D01*
X2232140Y13495D01*
X2225778Y18117D01*
X2224880Y19115D01*
X2224011Y19788D01*
X2218617Y26071D01*
X2213189Y32099D01*
X2212669Y32999D01*
X2212152Y33601D01*
X2207940Y41191D01*
X2203781Y48394D01*
X2203554Y49092D01*
X2203318Y49518D01*
X2200563Y58296D01*
X2197967Y66288D01*
X2197922Y66716D01*
X2197868Y66889D01*
X2196793Y77455D01*
X2196000Y85000D01*
X2196000Y254000D01*
X2196012Y254118D01*
X2196462Y262978D01*
X2197448Y267778D01*
X2197967Y272712D01*
X2199315Y276861D01*
X2200152Y280935D01*
X2202155Y285603D01*
X2203781Y290606D01*
X2205812Y294124D01*
X2207331Y297665D01*
X2210409Y302087D01*
X2213189Y306901D01*
X2215705Y309696D01*
X2217731Y312607D01*
X2221860Y316531D01*
X2225778Y320883D01*
X2228578Y322917D01*
X2230926Y325150D01*
X2236024Y328327D01*
X2241000Y331942D01*
X2243885Y333227D01*
X2246376Y334779D01*
X2252300Y336973D01*
X2258189Y339595D01*
X2260983Y340189D01*
X2263448Y341102D01*
X2270002Y342106D01*
X2276592Y343507D01*
X2279146Y343507D01*
X2281443Y343859D01*
X2288379Y343507D01*
G37*
G36*
X2542379Y343507D02*
G01*
X2549408Y343507D01*
X2551610Y343039D01*
X2553625Y342937D01*
X2560658Y341116D01*
X2567812Y339595D01*
X2569592Y338803D01*
X2571249Y338374D01*
X2578064Y335030D01*
X2585000Y331942D01*
X2586331Y330975D01*
X2587593Y330356D01*
X2593860Y325505D01*
X2600222Y320883D01*
X2601120Y319886D01*
X2601989Y319213D01*
X2607383Y312930D01*
X2612812Y306901D01*
X2613331Y306001D01*
X2613848Y305399D01*
X2618059Y297812D01*
X2622219Y290606D01*
X2622446Y289908D01*
X2622682Y289482D01*
X2625435Y280710D01*
X2628033Y272712D01*
X2628078Y272284D01*
X2628132Y272111D01*
X2629206Y261553D01*
X2630000Y254000D01*
X2630000Y85000D01*
X2629988Y84882D01*
X2629538Y76022D01*
X2628552Y71224D01*
X2628033Y66288D01*
X2626685Y62138D01*
X2625848Y58065D01*
X2623845Y53398D01*
X2622219Y48394D01*
X2620188Y44875D01*
X2618669Y41335D01*
X2615592Y36915D01*
X2612812Y32099D01*
X2610294Y29303D01*
X2608269Y26393D01*
X2604142Y22470D01*
X2600222Y18117D01*
X2597422Y16083D01*
X2595074Y13850D01*
X2589978Y10675D01*
X2585000Y7058D01*
X2582114Y5773D01*
X2579624Y4221D01*
X2573702Y2028D01*
X2567812Y-595D01*
X2565017Y-1189D01*
X2562552Y-2102D01*
X2556000Y-3106D01*
X2549408Y-4507D01*
X2546853Y-4507D01*
X2544557Y-4859D01*
X2537623Y-4507D01*
X2530592Y-4507D01*
X2528389Y-4039D01*
X2526375Y-3937D01*
X2519344Y-2116D01*
X2512189Y-595D01*
X2510408Y198D01*
X2508751Y627D01*
X2501937Y3969D01*
X2495000Y7058D01*
X2493669Y8025D01*
X2492407Y8644D01*
X2486140Y13495D01*
X2479778Y18117D01*
X2478880Y19115D01*
X2478011Y19788D01*
X2472617Y26071D01*
X2467189Y32099D01*
X2466669Y32999D01*
X2466152Y33601D01*
X2461940Y41191D01*
X2457781Y48394D01*
X2457554Y49092D01*
X2457318Y49518D01*
X2454563Y58296D01*
X2451967Y66288D01*
X2451922Y66716D01*
X2451868Y66889D01*
X2450793Y77455D01*
X2450000Y85000D01*
X2450000Y254000D01*
X2450012Y254118D01*
X2450462Y262978D01*
X2451448Y267778D01*
X2451967Y272712D01*
X2453315Y276861D01*
X2454152Y280935D01*
X2456155Y285603D01*
X2457781Y290606D01*
X2459812Y294124D01*
X2461331Y297665D01*
X2464409Y302087D01*
X2467189Y306901D01*
X2469705Y309696D01*
X2471731Y312607D01*
X2475860Y316531D01*
X2479778Y320883D01*
X2482578Y322917D01*
X2484926Y325150D01*
X2490024Y328327D01*
X2495000Y331942D01*
X2497885Y333227D01*
X2500376Y334779D01*
X2506300Y336973D01*
X2512189Y339595D01*
X2514983Y340189D01*
X2517448Y341102D01*
X2524002Y342106D01*
X2530592Y343507D01*
X2533146Y343507D01*
X2535443Y343859D01*
X2542379Y343507D01*
G37*
G36*
X2796379Y343507D02*
G01*
X2803408Y343507D01*
X2805610Y343039D01*
X2807625Y342937D01*
X2814658Y341116D01*
X2821811Y339595D01*
X2823591Y338803D01*
X2825249Y338374D01*
X2832064Y335030D01*
X2839000Y331942D01*
X2840331Y330975D01*
X2841593Y330356D01*
X2847860Y325505D01*
X2854222Y320883D01*
X2855120Y319886D01*
X2855989Y319213D01*
X2861383Y312930D01*
X2866811Y306901D01*
X2867331Y306001D01*
X2867847Y305399D01*
X2872059Y297812D01*
X2876219Y290606D01*
X2876446Y289908D01*
X2876682Y289482D01*
X2879435Y280710D01*
X2882033Y272712D01*
X2882078Y272284D01*
X2882132Y272111D01*
X2883206Y261553D01*
X2884000Y254000D01*
X2884000Y85000D01*
X2883987Y84882D01*
X2883538Y76022D01*
X2882552Y71224D01*
X2882033Y66288D01*
X2880685Y62138D01*
X2879848Y58065D01*
X2877845Y53398D01*
X2876219Y48394D01*
X2874187Y44875D01*
X2872669Y41335D01*
X2869592Y36915D01*
X2866811Y32099D01*
X2864294Y29303D01*
X2862269Y26393D01*
X2858142Y22470D01*
X2854222Y18117D01*
X2851421Y16083D01*
X2849073Y13850D01*
X2843978Y10675D01*
X2839000Y7058D01*
X2836114Y5773D01*
X2833624Y4221D01*
X2827702Y2028D01*
X2821811Y-595D01*
X2819016Y-1189D01*
X2816552Y-2102D01*
X2810000Y-3106D01*
X2803408Y-4507D01*
X2800853Y-4507D01*
X2798557Y-4859D01*
X2791623Y-4507D01*
X2784592Y-4507D01*
X2782389Y-4039D01*
X2780375Y-3937D01*
X2773344Y-2116D01*
X2766189Y-595D01*
X2764408Y198D01*
X2762751Y627D01*
X2755937Y3969D01*
X2749000Y7058D01*
X2747669Y8025D01*
X2746407Y8644D01*
X2740140Y13495D01*
X2733778Y18117D01*
X2732880Y19115D01*
X2732011Y19788D01*
X2726617Y26071D01*
X2721189Y32099D01*
X2720669Y32999D01*
X2720152Y33601D01*
X2715940Y41191D01*
X2711781Y48394D01*
X2711554Y49092D01*
X2711318Y49518D01*
X2708563Y58296D01*
X2705967Y66288D01*
X2705922Y66716D01*
X2705868Y66889D01*
X2704793Y77455D01*
X2704000Y85000D01*
X2704000Y254000D01*
X2704012Y254118D01*
X2704462Y262978D01*
X2705448Y267778D01*
X2705967Y272712D01*
X2707315Y276861D01*
X2708152Y280935D01*
X2710155Y285603D01*
X2711781Y290606D01*
X2713812Y294124D01*
X2715331Y297665D01*
X2718409Y302087D01*
X2721189Y306901D01*
X2723705Y309696D01*
X2725731Y312607D01*
X2729860Y316531D01*
X2733778Y320883D01*
X2736578Y322917D01*
X2738926Y325150D01*
X2744024Y328327D01*
X2749000Y331942D01*
X2751885Y333227D01*
X2754376Y334779D01*
X2760300Y336973D01*
X2766189Y339595D01*
X2768983Y340189D01*
X2771448Y341102D01*
X2778002Y342106D01*
X2784592Y343507D01*
X2787146Y343507D01*
X2789443Y343859D01*
X2796379Y343507D01*
G37*
G36*
X3050379Y343507D02*
G01*
X3057408Y343507D01*
X3059610Y343039D01*
X3061625Y342937D01*
X3068658Y341116D01*
X3075811Y339595D01*
X3077591Y338803D01*
X3079249Y338374D01*
X3086064Y335030D01*
X3093000Y331942D01*
X3094331Y330975D01*
X3095593Y330356D01*
X3101860Y325505D01*
X3108222Y320883D01*
X3109120Y319886D01*
X3109989Y319213D01*
X3115383Y312930D01*
X3120811Y306901D01*
X3121331Y306001D01*
X3121847Y305399D01*
X3126059Y297812D01*
X3130219Y290606D01*
X3130446Y289908D01*
X3130682Y289482D01*
X3133435Y280710D01*
X3136033Y272712D01*
X3136078Y272284D01*
X3136132Y272111D01*
X3137206Y261553D01*
X3138000Y254000D01*
X3138000Y85000D01*
X3137987Y84882D01*
X3137538Y76022D01*
X3136552Y71224D01*
X3136033Y66288D01*
X3134685Y62138D01*
X3133848Y58065D01*
X3131845Y53398D01*
X3130219Y48394D01*
X3128187Y44875D01*
X3126669Y41335D01*
X3123592Y36915D01*
X3120811Y32099D01*
X3118294Y29303D01*
X3116269Y26393D01*
X3112142Y22470D01*
X3108222Y18117D01*
X3105421Y16083D01*
X3103073Y13850D01*
X3097978Y10675D01*
X3093000Y7058D01*
X3090114Y5773D01*
X3087624Y4221D01*
X3081702Y2028D01*
X3075811Y-595D01*
X3073016Y-1189D01*
X3070552Y-2102D01*
X3064000Y-3106D01*
X3057408Y-4507D01*
X3054853Y-4507D01*
X3052557Y-4859D01*
X3045622Y-4507D01*
X3038592Y-4507D01*
X3036389Y-4039D01*
X3034375Y-3937D01*
X3027344Y-2116D01*
X3020188Y-595D01*
X3018408Y198D01*
X3016751Y627D01*
X3009937Y3969D01*
X3003000Y7058D01*
X3001669Y8025D01*
X3000407Y8644D01*
X2994140Y13495D01*
X2987778Y18117D01*
X2986880Y19115D01*
X2986011Y19788D01*
X2980617Y26071D01*
X2975188Y32099D01*
X2974669Y32999D01*
X2974152Y33601D01*
X2969940Y41191D01*
X2965781Y48394D01*
X2965554Y49092D01*
X2965317Y49518D01*
X2962563Y58296D01*
X2959967Y66288D01*
X2959922Y66716D01*
X2959867Y66889D01*
X2958793Y77455D01*
X2958000Y85000D01*
X2958000Y254000D01*
X2958012Y254118D01*
X2958462Y262978D01*
X2959448Y267778D01*
X2959967Y272712D01*
X2961315Y276861D01*
X2962152Y280935D01*
X2964155Y285603D01*
X2965781Y290606D01*
X2967812Y294124D01*
X2969331Y297665D01*
X2972409Y302087D01*
X2975188Y306901D01*
X2977705Y309696D01*
X2979731Y312607D01*
X2983859Y316531D01*
X2987778Y320883D01*
X2990577Y322917D01*
X2992926Y325150D01*
X2998023Y328327D01*
X3003000Y331942D01*
X3005885Y333227D01*
X3008376Y334779D01*
X3014300Y336973D01*
X3020188Y339595D01*
X3022982Y340189D01*
X3025448Y341102D01*
X3032002Y342106D01*
X3038592Y343507D01*
X3041146Y343507D01*
X3043442Y343859D01*
X3050379Y343507D01*
G37*
G36*
X-675087Y2290619D02*
G01*
X-673465Y2289536D01*
X-672381Y2287913D01*
X-672000Y2286000D01*
X-672000Y1947000D01*
X-672381Y1945087D01*
X-673465Y1943464D01*
X-675087Y1942381D01*
X-677000Y1942000D01*
X-847000Y1942000D01*
X-848913Y1942381D01*
X-850535Y1943464D01*
X-851619Y1945087D01*
X-852000Y1947000D01*
X-852000Y2286000D01*
X-851619Y2287913D01*
X-850535Y2289536D01*
X-848913Y2290619D01*
X-847000Y2291000D01*
X-677000Y2291000D01*
X-675087Y2290619D01*
G37*
G36*
X-505621Y2290507D02*
G01*
X-498592Y2290507D01*
X-496390Y2290039D01*
X-494375Y2289937D01*
X-487342Y2288116D01*
X-480188Y2286595D01*
X-478408Y2285803D01*
X-476751Y2285374D01*
X-469936Y2282030D01*
X-463000Y2278942D01*
X-461669Y2277975D01*
X-460407Y2277356D01*
X-454140Y2272505D01*
X-447778Y2267883D01*
X-446880Y2266886D01*
X-446011Y2266213D01*
X-440617Y2259930D01*
X-435188Y2253901D01*
X-434669Y2253001D01*
X-434152Y2252399D01*
X-429941Y2244812D01*
X-425781Y2237606D01*
X-425554Y2236908D01*
X-425318Y2236482D01*
X-422565Y2227710D01*
X-419967Y2219712D01*
X-419922Y2219284D01*
X-419868Y2219111D01*
X-418794Y2208553D01*
X-418000Y2201000D01*
X-418000Y2032000D01*
X-418012Y2031882D01*
X-418462Y2023022D01*
X-419448Y2018224D01*
X-419967Y2013288D01*
X-421315Y2009138D01*
X-422152Y2005065D01*
X-424155Y2000398D01*
X-425781Y1995394D01*
X-427812Y1991875D01*
X-429331Y1988335D01*
X-432408Y1983915D01*
X-435188Y1979099D01*
X-437706Y1976303D01*
X-439731Y1973393D01*
X-443858Y1969470D01*
X-447778Y1965117D01*
X-450578Y1963083D01*
X-452926Y1960850D01*
X-458022Y1957674D01*
X-463000Y1954058D01*
X-465886Y1952773D01*
X-468376Y1951221D01*
X-474298Y1949028D01*
X-480188Y1946405D01*
X-482983Y1945811D01*
X-485448Y1944898D01*
X-492000Y1943894D01*
X-498592Y1942493D01*
X-501147Y1942493D01*
X-503443Y1942141D01*
X-510377Y1942493D01*
X-517408Y1942493D01*
X-519611Y1942961D01*
X-521625Y1943063D01*
X-528656Y1944884D01*
X-535812Y1946405D01*
X-537592Y1947198D01*
X-539249Y1947627D01*
X-546063Y1950969D01*
X-553000Y1954058D01*
X-554331Y1955025D01*
X-555593Y1955644D01*
X-561860Y1960495D01*
X-568222Y1965117D01*
X-569120Y1966114D01*
X-569989Y1966787D01*
X-575383Y1973071D01*
X-580812Y1979099D01*
X-581331Y1979999D01*
X-581848Y1980601D01*
X-586060Y1988190D01*
X-590219Y1995394D01*
X-590446Y1996092D01*
X-590683Y1996518D01*
X-593437Y2005296D01*
X-596033Y2013288D01*
X-596078Y2013716D01*
X-596133Y2013889D01*
X-597207Y2024454D01*
X-598000Y2032000D01*
X-598000Y2201000D01*
X-597988Y2201118D01*
X-597538Y2209978D01*
X-596552Y2214778D01*
X-596033Y2219712D01*
X-594685Y2223861D01*
X-593848Y2227935D01*
X-591845Y2232603D01*
X-590219Y2237606D01*
X-588188Y2241124D01*
X-586669Y2244665D01*
X-583591Y2249087D01*
X-580812Y2253901D01*
X-578295Y2256696D01*
X-576269Y2259607D01*
X-572141Y2263531D01*
X-568222Y2267883D01*
X-565423Y2269917D01*
X-563074Y2272150D01*
X-557977Y2275327D01*
X-553000Y2278942D01*
X-550115Y2280227D01*
X-547624Y2281779D01*
X-541700Y2283973D01*
X-535812Y2286595D01*
X-533018Y2287189D01*
X-530552Y2288102D01*
X-523998Y2289106D01*
X-517408Y2290507D01*
X-514854Y2290507D01*
X-512557Y2290859D01*
X-505621Y2290507D01*
G37*
G36*
X-251621Y2290507D02*
G01*
X-244592Y2290507D01*
X-242390Y2290039D01*
X-240375Y2289937D01*
X-233342Y2288116D01*
X-226188Y2286595D01*
X-224408Y2285803D01*
X-222751Y2285374D01*
X-215936Y2282030D01*
X-209000Y2278942D01*
X-207669Y2277975D01*
X-206407Y2277356D01*
X-200140Y2272505D01*
X-193778Y2267883D01*
X-192880Y2266886D01*
X-192011Y2266213D01*
X-186617Y2259930D01*
X-181188Y2253901D01*
X-180669Y2253001D01*
X-180152Y2252399D01*
X-175941Y2244812D01*
X-171781Y2237606D01*
X-171554Y2236908D01*
X-171318Y2236482D01*
X-168565Y2227710D01*
X-165967Y2219712D01*
X-165922Y2219284D01*
X-165868Y2219111D01*
X-164794Y2208553D01*
X-164000Y2201000D01*
X-164000Y2032000D01*
X-164013Y2031882D01*
X-164462Y2023022D01*
X-165448Y2018224D01*
X-165967Y2013288D01*
X-167315Y2009138D01*
X-168152Y2005065D01*
X-170155Y2000398D01*
X-171781Y1995394D01*
X-173813Y1991875D01*
X-175331Y1988335D01*
X-178408Y1983915D01*
X-181188Y1979099D01*
X-183706Y1976303D01*
X-185731Y1973393D01*
X-189858Y1969470D01*
X-193778Y1965117D01*
X-196578Y1963083D01*
X-198926Y1960850D01*
X-204022Y1957674D01*
X-209000Y1954058D01*
X-211886Y1952773D01*
X-214376Y1951221D01*
X-220298Y1949028D01*
X-226188Y1946405D01*
X-228983Y1945811D01*
X-231448Y1944898D01*
X-238000Y1943894D01*
X-244592Y1942493D01*
X-247147Y1942493D01*
X-249443Y1942141D01*
X-256377Y1942493D01*
X-263408Y1942493D01*
X-265611Y1942961D01*
X-267625Y1943063D01*
X-274656Y1944884D01*
X-281812Y1946405D01*
X-283592Y1947198D01*
X-285249Y1947627D01*
X-292063Y1950969D01*
X-299000Y1954058D01*
X-300331Y1955025D01*
X-301593Y1955644D01*
X-307860Y1960495D01*
X-314222Y1965117D01*
X-315120Y1966114D01*
X-315989Y1966787D01*
X-321383Y1973071D01*
X-326812Y1979099D01*
X-327331Y1979999D01*
X-327848Y1980601D01*
X-332060Y1988190D01*
X-336219Y1995394D01*
X-336446Y1996092D01*
X-336683Y1996518D01*
X-339437Y2005296D01*
X-342033Y2013288D01*
X-342078Y2013716D01*
X-342133Y2013889D01*
X-343207Y2024454D01*
X-344000Y2032000D01*
X-344000Y2201000D01*
X-343988Y2201118D01*
X-343538Y2209978D01*
X-342552Y2214778D01*
X-342033Y2219712D01*
X-340685Y2223861D01*
X-339848Y2227935D01*
X-337845Y2232603D01*
X-336219Y2237606D01*
X-334188Y2241124D01*
X-332669Y2244665D01*
X-329591Y2249087D01*
X-326812Y2253901D01*
X-324295Y2256696D01*
X-322269Y2259607D01*
X-318141Y2263531D01*
X-314222Y2267883D01*
X-311423Y2269917D01*
X-309074Y2272150D01*
X-303977Y2275327D01*
X-299000Y2278942D01*
X-296115Y2280227D01*
X-293624Y2281779D01*
X-287700Y2283973D01*
X-281812Y2286595D01*
X-279018Y2287189D01*
X-276552Y2288102D01*
X-269998Y2289106D01*
X-263408Y2290507D01*
X-260854Y2290507D01*
X-258557Y2290859D01*
X-251621Y2290507D01*
G37*
G36*
X2379Y2290507D02*
G01*
X9408Y2290507D01*
X11610Y2290039D01*
X13625Y2289937D01*
X20658Y2288116D01*
X27811Y2286595D01*
X29591Y2285803D01*
X31249Y2285374D01*
X38064Y2282030D01*
X45000Y2278942D01*
X46331Y2277975D01*
X47593Y2277356D01*
X53860Y2272505D01*
X60222Y2267883D01*
X61120Y2266886D01*
X61989Y2266213D01*
X67383Y2259930D01*
X72812Y2253901D01*
X73331Y2253001D01*
X73848Y2252399D01*
X78059Y2244812D01*
X82219Y2237606D01*
X82446Y2236908D01*
X82682Y2236482D01*
X85435Y2227710D01*
X88033Y2219712D01*
X88078Y2219284D01*
X88132Y2219111D01*
X89206Y2208553D01*
X90000Y2201000D01*
X90000Y2032000D01*
X89987Y2031882D01*
X89538Y2023022D01*
X88552Y2018224D01*
X88033Y2013288D01*
X86685Y2009138D01*
X85848Y2005065D01*
X83845Y2000398D01*
X82219Y1995394D01*
X80188Y1991875D01*
X78669Y1988335D01*
X75592Y1983915D01*
X72812Y1979099D01*
X70294Y1976303D01*
X68269Y1973393D01*
X64142Y1969470D01*
X60222Y1965117D01*
X57421Y1963083D01*
X55073Y1960850D01*
X49978Y1957674D01*
X45000Y1954058D01*
X42114Y1952773D01*
X39624Y1951221D01*
X33702Y1949028D01*
X27811Y1946405D01*
X25016Y1945811D01*
X22552Y1944898D01*
X16000Y1943894D01*
X9408Y1942493D01*
X6853Y1942493D01*
X4557Y1942141D01*
X-2378Y1942493D01*
X-9408Y1942493D01*
X-11611Y1942961D01*
X-13625Y1943063D01*
X-20656Y1944884D01*
X-27811Y1946405D01*
X-29592Y1947198D01*
X-31249Y1947627D01*
X-38063Y1950969D01*
X-45000Y1954058D01*
X-46331Y1955025D01*
X-47593Y1955644D01*
X-53860Y1960495D01*
X-60222Y1965117D01*
X-61120Y1966114D01*
X-61989Y1966787D01*
X-67383Y1973071D01*
X-72812Y1979099D01*
X-73331Y1979999D01*
X-73848Y1980601D01*
X-78060Y1988190D01*
X-82219Y1995394D01*
X-82446Y1996092D01*
X-82683Y1996518D01*
X-85437Y2005296D01*
X-88033Y2013288D01*
X-88078Y2013716D01*
X-88132Y2013889D01*
X-89207Y2024454D01*
X-90000Y2032000D01*
X-90000Y2201000D01*
X-89988Y2201118D01*
X-89538Y2209978D01*
X-88552Y2214778D01*
X-88033Y2219712D01*
X-86685Y2223861D01*
X-85848Y2227935D01*
X-83845Y2232603D01*
X-82219Y2237606D01*
X-80188Y2241124D01*
X-78669Y2244665D01*
X-75591Y2249087D01*
X-72812Y2253901D01*
X-70295Y2256696D01*
X-68269Y2259607D01*
X-64140Y2263531D01*
X-60222Y2267883D01*
X-57422Y2269917D01*
X-55074Y2272150D01*
X-49976Y2275327D01*
X-45000Y2278942D01*
X-42115Y2280227D01*
X-39624Y2281779D01*
X-33700Y2283973D01*
X-27811Y2286595D01*
X-25017Y2287189D01*
X-22552Y2288102D01*
X-15998Y2289106D01*
X-9408Y2290507D01*
X-6854Y2290507D01*
X-4558Y2290859D01*
X2379Y2290507D01*
G37*
G36*
X256379Y2290507D02*
G01*
X263408Y2290507D01*
X265610Y2290039D01*
X267625Y2289937D01*
X274658Y2288116D01*
X281812Y2286595D01*
X283592Y2285803D01*
X285249Y2285374D01*
X292064Y2282030D01*
X299000Y2278942D01*
X300331Y2277975D01*
X301593Y2277356D01*
X307860Y2272505D01*
X314222Y2267883D01*
X315120Y2266886D01*
X315989Y2266213D01*
X321383Y2259930D01*
X326812Y2253901D01*
X327331Y2253001D01*
X327848Y2252399D01*
X332059Y2244812D01*
X336219Y2237606D01*
X336446Y2236908D01*
X336682Y2236482D01*
X339435Y2227710D01*
X342033Y2219712D01*
X342078Y2219284D01*
X342132Y2219111D01*
X343206Y2208553D01*
X344000Y2201000D01*
X344000Y2032000D01*
X343988Y2031882D01*
X343538Y2023022D01*
X342552Y2018224D01*
X342033Y2013288D01*
X340685Y2009138D01*
X339848Y2005065D01*
X337845Y2000398D01*
X336219Y1995394D01*
X334188Y1991875D01*
X332669Y1988335D01*
X329592Y1983915D01*
X326812Y1979099D01*
X324294Y1976303D01*
X322269Y1973393D01*
X318142Y1969470D01*
X314222Y1965117D01*
X311422Y1963083D01*
X309074Y1960850D01*
X303978Y1957674D01*
X299000Y1954058D01*
X296114Y1952773D01*
X293624Y1951221D01*
X287702Y1949028D01*
X281812Y1946405D01*
X279017Y1945811D01*
X276552Y1944898D01*
X270000Y1943894D01*
X263408Y1942493D01*
X260853Y1942493D01*
X258557Y1942141D01*
X251622Y1942493D01*
X244592Y1942493D01*
X242389Y1942961D01*
X240375Y1943063D01*
X233344Y1944884D01*
X226188Y1946405D01*
X224408Y1947198D01*
X222751Y1947627D01*
X215937Y1950969D01*
X209000Y1954058D01*
X207669Y1955025D01*
X206407Y1955644D01*
X200140Y1960495D01*
X193778Y1965117D01*
X192880Y1966114D01*
X192011Y1966787D01*
X186617Y1973071D01*
X181188Y1979099D01*
X180669Y1979999D01*
X180152Y1980601D01*
X175940Y1988190D01*
X171781Y1995394D01*
X171554Y1996092D01*
X171318Y1996518D01*
X168563Y2005296D01*
X165967Y2013288D01*
X165922Y2013716D01*
X165868Y2013889D01*
X164793Y2024454D01*
X164000Y2032000D01*
X164000Y2201000D01*
X164012Y2201118D01*
X164462Y2209978D01*
X165448Y2214778D01*
X165967Y2219712D01*
X167315Y2223861D01*
X168152Y2227935D01*
X170155Y2232603D01*
X171781Y2237606D01*
X173812Y2241124D01*
X175331Y2244665D01*
X178409Y2249087D01*
X181188Y2253901D01*
X183705Y2256696D01*
X185731Y2259607D01*
X189859Y2263531D01*
X193778Y2267883D01*
X196577Y2269917D01*
X198926Y2272150D01*
X204023Y2275327D01*
X209000Y2278942D01*
X211885Y2280227D01*
X214376Y2281779D01*
X220300Y2283973D01*
X226188Y2286595D01*
X228982Y2287189D01*
X231448Y2288102D01*
X238002Y2289106D01*
X244592Y2290507D01*
X247146Y2290507D01*
X249442Y2290859D01*
X256379Y2290507D01*
G37*
G36*
X510379Y2290507D02*
G01*
X517408Y2290507D01*
X519610Y2290039D01*
X521625Y2289937D01*
X528658Y2288116D01*
X535812Y2286595D01*
X537592Y2285803D01*
X539249Y2285374D01*
X546064Y2282030D01*
X553000Y2278942D01*
X554331Y2277975D01*
X555593Y2277356D01*
X561860Y2272505D01*
X568222Y2267883D01*
X569120Y2266886D01*
X569989Y2266213D01*
X575383Y2259930D01*
X580812Y2253901D01*
X581331Y2253001D01*
X581848Y2252399D01*
X586059Y2244812D01*
X590219Y2237606D01*
X590446Y2236908D01*
X590682Y2236482D01*
X593435Y2227710D01*
X596033Y2219712D01*
X596078Y2219284D01*
X596132Y2219111D01*
X597206Y2208553D01*
X598000Y2201000D01*
X598000Y2032000D01*
X597988Y2031882D01*
X597538Y2023022D01*
X596552Y2018224D01*
X596033Y2013288D01*
X594685Y2009138D01*
X593848Y2005065D01*
X591845Y2000398D01*
X590219Y1995394D01*
X588188Y1991875D01*
X586669Y1988335D01*
X583592Y1983915D01*
X580812Y1979099D01*
X578294Y1976303D01*
X576269Y1973393D01*
X572142Y1969470D01*
X568222Y1965117D01*
X565422Y1963083D01*
X563074Y1960850D01*
X557978Y1957674D01*
X553000Y1954058D01*
X550114Y1952773D01*
X547624Y1951221D01*
X541702Y1949028D01*
X535812Y1946405D01*
X533017Y1945811D01*
X530552Y1944898D01*
X524000Y1943894D01*
X517408Y1942493D01*
X514853Y1942493D01*
X512557Y1942141D01*
X505622Y1942493D01*
X498592Y1942493D01*
X496389Y1942961D01*
X494375Y1943063D01*
X487344Y1944884D01*
X480188Y1946405D01*
X478408Y1947198D01*
X476751Y1947627D01*
X469937Y1950969D01*
X463000Y1954058D01*
X461669Y1955025D01*
X460407Y1955644D01*
X454140Y1960495D01*
X447778Y1965117D01*
X446880Y1966114D01*
X446011Y1966787D01*
X440617Y1973071D01*
X435188Y1979099D01*
X434669Y1979999D01*
X434152Y1980601D01*
X429940Y1988190D01*
X425781Y1995394D01*
X425554Y1996092D01*
X425317Y1996518D01*
X422563Y2005296D01*
X419967Y2013288D01*
X419922Y2013716D01*
X419867Y2013889D01*
X418793Y2024454D01*
X418000Y2032000D01*
X418000Y2201000D01*
X418012Y2201118D01*
X418462Y2209978D01*
X419448Y2214778D01*
X419967Y2219712D01*
X421315Y2223861D01*
X422152Y2227935D01*
X424155Y2232603D01*
X425781Y2237606D01*
X427812Y2241124D01*
X429331Y2244665D01*
X432409Y2249087D01*
X435188Y2253901D01*
X437705Y2256696D01*
X439731Y2259607D01*
X443859Y2263531D01*
X447778Y2267883D01*
X450577Y2269917D01*
X452926Y2272150D01*
X458023Y2275327D01*
X463000Y2278942D01*
X465885Y2280227D01*
X468376Y2281779D01*
X474300Y2283973D01*
X480188Y2286595D01*
X482982Y2287189D01*
X485448Y2288102D01*
X492002Y2289106D01*
X498592Y2290507D01*
X501146Y2290507D01*
X503442Y2290859D01*
X510379Y2290507D01*
G37*
G36*
X764379Y2290507D02*
G01*
X771408Y2290507D01*
X773610Y2290039D01*
X775625Y2289937D01*
X782658Y2288116D01*
X789811Y2286595D01*
X791591Y2285803D01*
X793249Y2285374D01*
X800064Y2282030D01*
X807000Y2278942D01*
X808331Y2277975D01*
X809593Y2277356D01*
X815860Y2272505D01*
X822222Y2267883D01*
X823120Y2266886D01*
X823989Y2266213D01*
X829383Y2259930D01*
X834811Y2253901D01*
X835331Y2253001D01*
X835847Y2252399D01*
X840059Y2244812D01*
X844219Y2237606D01*
X844446Y2236908D01*
X844682Y2236482D01*
X847435Y2227710D01*
X850033Y2219712D01*
X850078Y2219284D01*
X850132Y2219111D01*
X851206Y2208553D01*
X852000Y2201000D01*
X852000Y2032000D01*
X851987Y2031882D01*
X851538Y2023022D01*
X850552Y2018224D01*
X850033Y2013288D01*
X848685Y2009138D01*
X847848Y2005065D01*
X845845Y2000398D01*
X844219Y1995394D01*
X842187Y1991875D01*
X840669Y1988335D01*
X837592Y1983915D01*
X834811Y1979099D01*
X832294Y1976303D01*
X830269Y1973393D01*
X826142Y1969470D01*
X822222Y1965117D01*
X819421Y1963083D01*
X817073Y1960850D01*
X811978Y1957674D01*
X807000Y1954058D01*
X804114Y1952773D01*
X801624Y1951221D01*
X795702Y1949028D01*
X789811Y1946405D01*
X787016Y1945811D01*
X784552Y1944898D01*
X778000Y1943894D01*
X771408Y1942493D01*
X768853Y1942493D01*
X766557Y1942141D01*
X759622Y1942493D01*
X752592Y1942493D01*
X750389Y1942961D01*
X748375Y1943063D01*
X741344Y1944884D01*
X734188Y1946405D01*
X732408Y1947198D01*
X730751Y1947627D01*
X723937Y1950969D01*
X717000Y1954058D01*
X715669Y1955025D01*
X714407Y1955644D01*
X708140Y1960495D01*
X701778Y1965117D01*
X700880Y1966114D01*
X700011Y1966787D01*
X694617Y1973071D01*
X689189Y1979099D01*
X688669Y1979999D01*
X688152Y1980601D01*
X683940Y1988190D01*
X679781Y1995394D01*
X679554Y1996092D01*
X679318Y1996518D01*
X676563Y2005296D01*
X673967Y2013288D01*
X673922Y2013716D01*
X673868Y2013889D01*
X672793Y2024454D01*
X672000Y2032000D01*
X672000Y2201000D01*
X672012Y2201118D01*
X672462Y2209978D01*
X673448Y2214778D01*
X673967Y2219712D01*
X675315Y2223861D01*
X676152Y2227935D01*
X678155Y2232603D01*
X679781Y2237606D01*
X681812Y2241124D01*
X683331Y2244665D01*
X686409Y2249087D01*
X689189Y2253901D01*
X691705Y2256696D01*
X693731Y2259607D01*
X697860Y2263531D01*
X701778Y2267883D01*
X704577Y2269917D01*
X706926Y2272150D01*
X712023Y2275327D01*
X717000Y2278942D01*
X719885Y2280227D01*
X722376Y2281779D01*
X728300Y2283973D01*
X734188Y2286595D01*
X736982Y2287189D01*
X739448Y2288102D01*
X746002Y2289106D01*
X752592Y2290507D01*
X755146Y2290507D01*
X757442Y2290859D01*
X764379Y2290507D01*
G37*
G36*
X1018379Y2290507D02*
G01*
X1025408Y2290507D01*
X1027610Y2290039D01*
X1029625Y2289937D01*
X1036658Y2288116D01*
X1043811Y2286595D01*
X1045591Y2285803D01*
X1047249Y2285374D01*
X1054064Y2282030D01*
X1061000Y2278942D01*
X1062331Y2277975D01*
X1063593Y2277356D01*
X1069860Y2272505D01*
X1076222Y2267883D01*
X1077120Y2266886D01*
X1077989Y2266213D01*
X1083383Y2259930D01*
X1088812Y2253901D01*
X1089331Y2253001D01*
X1089848Y2252399D01*
X1094059Y2244812D01*
X1098219Y2237606D01*
X1098446Y2236908D01*
X1098682Y2236482D01*
X1101435Y2227710D01*
X1104033Y2219712D01*
X1104078Y2219284D01*
X1104132Y2219111D01*
X1105206Y2208553D01*
X1106000Y2201000D01*
X1106000Y2032000D01*
X1105988Y2031882D01*
X1105538Y2023022D01*
X1104552Y2018224D01*
X1104033Y2013288D01*
X1102685Y2009138D01*
X1101848Y2005065D01*
X1099845Y2000398D01*
X1098219Y1995394D01*
X1096188Y1991875D01*
X1094669Y1988335D01*
X1091592Y1983915D01*
X1088812Y1979099D01*
X1086294Y1976303D01*
X1084269Y1973393D01*
X1080142Y1969470D01*
X1076222Y1965117D01*
X1073422Y1963083D01*
X1071074Y1960850D01*
X1065978Y1957674D01*
X1061000Y1954058D01*
X1058114Y1952773D01*
X1055624Y1951221D01*
X1049702Y1949028D01*
X1043811Y1946405D01*
X1041016Y1945811D01*
X1038552Y1944898D01*
X1032000Y1943894D01*
X1025408Y1942493D01*
X1022853Y1942493D01*
X1020557Y1942141D01*
X1013622Y1942493D01*
X1006592Y1942493D01*
X1004389Y1942961D01*
X1002375Y1943063D01*
X995344Y1944884D01*
X988188Y1946405D01*
X986408Y1947198D01*
X984751Y1947627D01*
X977937Y1950969D01*
X971000Y1954058D01*
X969669Y1955025D01*
X968407Y1955644D01*
X962140Y1960495D01*
X955778Y1965117D01*
X954880Y1966114D01*
X954011Y1966787D01*
X948617Y1973071D01*
X943188Y1979099D01*
X942669Y1979999D01*
X942152Y1980601D01*
X937940Y1988190D01*
X933781Y1995394D01*
X933554Y1996092D01*
X933317Y1996518D01*
X930563Y2005296D01*
X927967Y2013288D01*
X927922Y2013716D01*
X927867Y2013889D01*
X926793Y2024454D01*
X926000Y2032000D01*
X926000Y2201000D01*
X926012Y2201118D01*
X926462Y2209978D01*
X927448Y2214778D01*
X927967Y2219712D01*
X929315Y2223861D01*
X930152Y2227935D01*
X932155Y2232603D01*
X933781Y2237606D01*
X935812Y2241124D01*
X937331Y2244665D01*
X940409Y2249087D01*
X943188Y2253901D01*
X945705Y2256696D01*
X947731Y2259607D01*
X951859Y2263531D01*
X955778Y2267883D01*
X958577Y2269917D01*
X960926Y2272150D01*
X966023Y2275327D01*
X971000Y2278942D01*
X973885Y2280227D01*
X976376Y2281779D01*
X982300Y2283973D01*
X988188Y2286595D01*
X990982Y2287189D01*
X993448Y2288102D01*
X1000002Y2289106D01*
X1006592Y2290507D01*
X1009146Y2290507D01*
X1011442Y2290859D01*
X1018379Y2290507D01*
G37*
G36*
X1272379Y2290507D02*
G01*
X1279408Y2290507D01*
X1281610Y2290039D01*
X1283625Y2289937D01*
X1290658Y2288116D01*
X1297812Y2286595D01*
X1299592Y2285803D01*
X1301249Y2285374D01*
X1308064Y2282030D01*
X1315000Y2278942D01*
X1316331Y2277975D01*
X1317593Y2277356D01*
X1323860Y2272505D01*
X1330222Y2267883D01*
X1331120Y2266886D01*
X1331989Y2266213D01*
X1337383Y2259930D01*
X1342812Y2253901D01*
X1343331Y2253001D01*
X1343848Y2252399D01*
X1348059Y2244812D01*
X1352219Y2237606D01*
X1352446Y2236908D01*
X1352682Y2236482D01*
X1355435Y2227710D01*
X1358033Y2219712D01*
X1358078Y2219284D01*
X1358132Y2219111D01*
X1359206Y2208553D01*
X1360000Y2201000D01*
X1360000Y2032000D01*
X1359988Y2031882D01*
X1359538Y2023022D01*
X1358552Y2018224D01*
X1358033Y2013288D01*
X1356685Y2009138D01*
X1355848Y2005065D01*
X1353845Y2000398D01*
X1352219Y1995394D01*
X1350188Y1991875D01*
X1348669Y1988335D01*
X1345592Y1983915D01*
X1342812Y1979099D01*
X1340294Y1976303D01*
X1338269Y1973393D01*
X1334142Y1969470D01*
X1330222Y1965117D01*
X1327422Y1963083D01*
X1325074Y1960850D01*
X1319978Y1957674D01*
X1315000Y1954058D01*
X1312114Y1952773D01*
X1309624Y1951221D01*
X1303702Y1949028D01*
X1297812Y1946405D01*
X1295017Y1945811D01*
X1292552Y1944898D01*
X1286000Y1943894D01*
X1279408Y1942493D01*
X1276853Y1942493D01*
X1274557Y1942141D01*
X1267623Y1942493D01*
X1260592Y1942493D01*
X1258389Y1942961D01*
X1256375Y1943063D01*
X1249344Y1944884D01*
X1242189Y1946405D01*
X1240408Y1947198D01*
X1238751Y1947627D01*
X1231937Y1950969D01*
X1225000Y1954058D01*
X1223669Y1955025D01*
X1222407Y1955644D01*
X1216140Y1960495D01*
X1209778Y1965117D01*
X1208880Y1966114D01*
X1208011Y1966787D01*
X1202617Y1973071D01*
X1197189Y1979099D01*
X1196669Y1979999D01*
X1196152Y1980601D01*
X1191940Y1988190D01*
X1187781Y1995394D01*
X1187554Y1996092D01*
X1187318Y1996518D01*
X1184563Y2005296D01*
X1181967Y2013288D01*
X1181922Y2013716D01*
X1181868Y2013889D01*
X1180793Y2024454D01*
X1180000Y2032000D01*
X1180000Y2201000D01*
X1180012Y2201118D01*
X1180462Y2209978D01*
X1181448Y2214778D01*
X1181967Y2219712D01*
X1183315Y2223861D01*
X1184152Y2227935D01*
X1186155Y2232603D01*
X1187781Y2237606D01*
X1189812Y2241124D01*
X1191331Y2244665D01*
X1194409Y2249087D01*
X1197189Y2253901D01*
X1199705Y2256696D01*
X1201731Y2259607D01*
X1205860Y2263531D01*
X1209778Y2267883D01*
X1212578Y2269917D01*
X1214926Y2272150D01*
X1220024Y2275327D01*
X1225000Y2278942D01*
X1227885Y2280227D01*
X1230376Y2281779D01*
X1236300Y2283973D01*
X1242189Y2286595D01*
X1244983Y2287189D01*
X1247448Y2288102D01*
X1254002Y2289106D01*
X1260592Y2290507D01*
X1263146Y2290507D01*
X1265443Y2290859D01*
X1272379Y2290507D01*
G37*
G36*
X1526379Y2290507D02*
G01*
X1533408Y2290507D01*
X1535610Y2290039D01*
X1537625Y2289937D01*
X1544658Y2288116D01*
X1551811Y2286595D01*
X1553591Y2285803D01*
X1555249Y2285374D01*
X1562064Y2282030D01*
X1569000Y2278942D01*
X1570331Y2277975D01*
X1571593Y2277356D01*
X1577860Y2272505D01*
X1584222Y2267883D01*
X1585120Y2266886D01*
X1585989Y2266213D01*
X1591383Y2259930D01*
X1596811Y2253901D01*
X1597331Y2253001D01*
X1597847Y2252399D01*
X1602059Y2244812D01*
X1606219Y2237606D01*
X1606446Y2236908D01*
X1606682Y2236482D01*
X1609435Y2227710D01*
X1612033Y2219712D01*
X1612078Y2219284D01*
X1612132Y2219111D01*
X1613206Y2208553D01*
X1614000Y2201000D01*
X1614000Y2032000D01*
X1613987Y2031882D01*
X1613538Y2023022D01*
X1612552Y2018224D01*
X1612033Y2013288D01*
X1610685Y2009138D01*
X1609848Y2005065D01*
X1607845Y2000398D01*
X1606219Y1995394D01*
X1604187Y1991875D01*
X1602669Y1988335D01*
X1599592Y1983915D01*
X1596811Y1979099D01*
X1594294Y1976303D01*
X1592269Y1973393D01*
X1588142Y1969470D01*
X1584222Y1965117D01*
X1581421Y1963083D01*
X1579073Y1960850D01*
X1573978Y1957674D01*
X1569000Y1954058D01*
X1566114Y1952773D01*
X1563624Y1951221D01*
X1557702Y1949028D01*
X1551811Y1946405D01*
X1549016Y1945811D01*
X1546552Y1944898D01*
X1540000Y1943894D01*
X1533408Y1942493D01*
X1530853Y1942493D01*
X1528557Y1942141D01*
X1521622Y1942493D01*
X1514592Y1942493D01*
X1512389Y1942961D01*
X1510375Y1943063D01*
X1503344Y1944884D01*
X1496188Y1946405D01*
X1494408Y1947198D01*
X1492751Y1947627D01*
X1485937Y1950969D01*
X1479000Y1954058D01*
X1477669Y1955025D01*
X1476407Y1955644D01*
X1470140Y1960495D01*
X1463778Y1965117D01*
X1462880Y1966114D01*
X1462011Y1966787D01*
X1456617Y1973071D01*
X1451188Y1979099D01*
X1450669Y1979999D01*
X1450152Y1980601D01*
X1445940Y1988190D01*
X1441781Y1995394D01*
X1441554Y1996092D01*
X1441317Y1996518D01*
X1438563Y2005296D01*
X1435967Y2013288D01*
X1435922Y2013716D01*
X1435867Y2013889D01*
X1434793Y2024454D01*
X1434000Y2032000D01*
X1434000Y2201000D01*
X1434012Y2201118D01*
X1434462Y2209978D01*
X1435448Y2214778D01*
X1435967Y2219712D01*
X1437315Y2223861D01*
X1438152Y2227935D01*
X1440155Y2232603D01*
X1441781Y2237606D01*
X1443812Y2241124D01*
X1445331Y2244665D01*
X1448409Y2249087D01*
X1451188Y2253901D01*
X1453705Y2256696D01*
X1455731Y2259607D01*
X1459859Y2263531D01*
X1463778Y2267883D01*
X1466577Y2269917D01*
X1468926Y2272150D01*
X1474023Y2275327D01*
X1479000Y2278942D01*
X1481885Y2280227D01*
X1484376Y2281779D01*
X1490300Y2283973D01*
X1496188Y2286595D01*
X1498982Y2287189D01*
X1501448Y2288102D01*
X1508002Y2289106D01*
X1514592Y2290507D01*
X1517146Y2290507D01*
X1519442Y2290859D01*
X1526379Y2290507D01*
G37*
G36*
X1780379Y2290507D02*
G01*
X1787408Y2290507D01*
X1789610Y2290039D01*
X1791625Y2289937D01*
X1798658Y2288116D01*
X1805811Y2286595D01*
X1807591Y2285803D01*
X1809249Y2285374D01*
X1816064Y2282030D01*
X1823000Y2278942D01*
X1824331Y2277975D01*
X1825593Y2277356D01*
X1831860Y2272505D01*
X1838222Y2267883D01*
X1839120Y2266886D01*
X1839989Y2266213D01*
X1845383Y2259930D01*
X1850811Y2253901D01*
X1851331Y2253001D01*
X1851847Y2252399D01*
X1856059Y2244812D01*
X1860219Y2237606D01*
X1860446Y2236908D01*
X1860682Y2236482D01*
X1863435Y2227710D01*
X1866033Y2219712D01*
X1866078Y2219284D01*
X1866132Y2219111D01*
X1867206Y2208553D01*
X1868000Y2201000D01*
X1868000Y2032000D01*
X1867987Y2031882D01*
X1867538Y2023022D01*
X1866552Y2018224D01*
X1866033Y2013288D01*
X1864685Y2009138D01*
X1863848Y2005065D01*
X1861845Y2000398D01*
X1860219Y1995394D01*
X1858187Y1991875D01*
X1856669Y1988335D01*
X1853592Y1983915D01*
X1850811Y1979099D01*
X1848294Y1976303D01*
X1846269Y1973393D01*
X1842142Y1969470D01*
X1838222Y1965117D01*
X1835421Y1963083D01*
X1833073Y1960850D01*
X1827978Y1957674D01*
X1823000Y1954058D01*
X1820114Y1952773D01*
X1817624Y1951221D01*
X1811702Y1949028D01*
X1805811Y1946405D01*
X1803016Y1945811D01*
X1800552Y1944898D01*
X1794000Y1943894D01*
X1787408Y1942493D01*
X1784853Y1942493D01*
X1782557Y1942141D01*
X1775622Y1942493D01*
X1768592Y1942493D01*
X1766389Y1942961D01*
X1764375Y1943063D01*
X1757344Y1944884D01*
X1750188Y1946405D01*
X1748408Y1947198D01*
X1746751Y1947627D01*
X1739937Y1950969D01*
X1733000Y1954058D01*
X1731669Y1955025D01*
X1730407Y1955644D01*
X1724140Y1960495D01*
X1717778Y1965117D01*
X1716880Y1966114D01*
X1716011Y1966787D01*
X1710617Y1973071D01*
X1705188Y1979099D01*
X1704669Y1979999D01*
X1704152Y1980601D01*
X1699940Y1988190D01*
X1695781Y1995394D01*
X1695554Y1996092D01*
X1695317Y1996518D01*
X1692563Y2005296D01*
X1689967Y2013288D01*
X1689922Y2013716D01*
X1689867Y2013889D01*
X1688793Y2024454D01*
X1688000Y2032000D01*
X1688000Y2201000D01*
X1688012Y2201118D01*
X1688462Y2209978D01*
X1689448Y2214778D01*
X1689967Y2219712D01*
X1691315Y2223861D01*
X1692152Y2227935D01*
X1694155Y2232603D01*
X1695781Y2237606D01*
X1697812Y2241124D01*
X1699331Y2244665D01*
X1702409Y2249087D01*
X1705188Y2253901D01*
X1707705Y2256696D01*
X1709731Y2259607D01*
X1713859Y2263531D01*
X1717778Y2267883D01*
X1720577Y2269917D01*
X1722926Y2272150D01*
X1728023Y2275327D01*
X1733000Y2278942D01*
X1735885Y2280227D01*
X1738376Y2281779D01*
X1744300Y2283973D01*
X1750188Y2286595D01*
X1752982Y2287189D01*
X1755448Y2288102D01*
X1762002Y2289106D01*
X1768592Y2290507D01*
X1771146Y2290507D01*
X1773442Y2290859D01*
X1780379Y2290507D01*
G37*
G36*
X2034379Y2290507D02*
G01*
X2041408Y2290507D01*
X2043610Y2290039D01*
X2045625Y2289937D01*
X2052658Y2288116D01*
X2059811Y2286595D01*
X2061591Y2285803D01*
X2063249Y2285374D01*
X2070064Y2282030D01*
X2077000Y2278942D01*
X2078331Y2277975D01*
X2079593Y2277356D01*
X2085860Y2272505D01*
X2092222Y2267883D01*
X2093120Y2266886D01*
X2093989Y2266213D01*
X2099383Y2259930D01*
X2104812Y2253901D01*
X2105331Y2253001D01*
X2105848Y2252399D01*
X2110059Y2244812D01*
X2114219Y2237606D01*
X2114446Y2236908D01*
X2114682Y2236482D01*
X2117435Y2227710D01*
X2120033Y2219712D01*
X2120078Y2219284D01*
X2120132Y2219111D01*
X2121206Y2208553D01*
X2122000Y2201000D01*
X2122000Y2032000D01*
X2121988Y2031882D01*
X2121538Y2023022D01*
X2120552Y2018224D01*
X2120033Y2013288D01*
X2118685Y2009138D01*
X2117848Y2005065D01*
X2115845Y2000398D01*
X2114219Y1995394D01*
X2112188Y1991875D01*
X2110669Y1988335D01*
X2107592Y1983915D01*
X2104812Y1979099D01*
X2102294Y1976303D01*
X2100269Y1973393D01*
X2096142Y1969470D01*
X2092222Y1965117D01*
X2089421Y1963083D01*
X2087073Y1960850D01*
X2081978Y1957674D01*
X2077000Y1954058D01*
X2074114Y1952773D01*
X2071624Y1951221D01*
X2065702Y1949028D01*
X2059811Y1946405D01*
X2057016Y1945811D01*
X2054552Y1944898D01*
X2048000Y1943894D01*
X2041408Y1942493D01*
X2038853Y1942493D01*
X2036557Y1942141D01*
X2029622Y1942493D01*
X2022592Y1942493D01*
X2020389Y1942961D01*
X2018375Y1943063D01*
X2011344Y1944884D01*
X2004188Y1946405D01*
X2002408Y1947198D01*
X2000751Y1947627D01*
X1993937Y1950969D01*
X1987000Y1954058D01*
X1985669Y1955025D01*
X1984407Y1955644D01*
X1978140Y1960495D01*
X1971778Y1965117D01*
X1970880Y1966114D01*
X1970011Y1966787D01*
X1964617Y1973071D01*
X1959188Y1979099D01*
X1958669Y1979999D01*
X1958152Y1980601D01*
X1953940Y1988190D01*
X1949781Y1995394D01*
X1949554Y1996092D01*
X1949317Y1996518D01*
X1946563Y2005296D01*
X1943967Y2013288D01*
X1943922Y2013716D01*
X1943867Y2013889D01*
X1942793Y2024454D01*
X1942000Y2032000D01*
X1942000Y2201000D01*
X1942012Y2201118D01*
X1942462Y2209978D01*
X1943448Y2214778D01*
X1943967Y2219712D01*
X1945315Y2223861D01*
X1946152Y2227935D01*
X1948155Y2232603D01*
X1949781Y2237606D01*
X1951812Y2241124D01*
X1953331Y2244665D01*
X1956409Y2249087D01*
X1959188Y2253901D01*
X1961705Y2256696D01*
X1963731Y2259607D01*
X1967859Y2263531D01*
X1971778Y2267883D01*
X1974577Y2269917D01*
X1976926Y2272150D01*
X1982023Y2275327D01*
X1987000Y2278942D01*
X1989885Y2280227D01*
X1992376Y2281779D01*
X1998300Y2283973D01*
X2004188Y2286595D01*
X2006982Y2287189D01*
X2009448Y2288102D01*
X2016002Y2289106D01*
X2022592Y2290507D01*
X2025146Y2290507D01*
X2027442Y2290859D01*
X2034379Y2290507D01*
G37*
G36*
X2288379Y2290507D02*
G01*
X2295408Y2290507D01*
X2297610Y2290039D01*
X2299625Y2289937D01*
X2306658Y2288116D01*
X2313812Y2286595D01*
X2315592Y2285803D01*
X2317249Y2285374D01*
X2324064Y2282030D01*
X2331000Y2278942D01*
X2332331Y2277975D01*
X2333593Y2277356D01*
X2339860Y2272505D01*
X2346222Y2267883D01*
X2347120Y2266886D01*
X2347989Y2266213D01*
X2353383Y2259930D01*
X2358812Y2253901D01*
X2359331Y2253001D01*
X2359848Y2252399D01*
X2364059Y2244812D01*
X2368219Y2237606D01*
X2368446Y2236908D01*
X2368682Y2236482D01*
X2371435Y2227710D01*
X2374033Y2219712D01*
X2374078Y2219284D01*
X2374132Y2219111D01*
X2375206Y2208553D01*
X2376000Y2201000D01*
X2376000Y2032000D01*
X2375988Y2031882D01*
X2375538Y2023022D01*
X2374552Y2018224D01*
X2374033Y2013288D01*
X2372685Y2009138D01*
X2371848Y2005065D01*
X2369845Y2000398D01*
X2368219Y1995394D01*
X2366188Y1991875D01*
X2364669Y1988335D01*
X2361592Y1983915D01*
X2358812Y1979099D01*
X2356294Y1976303D01*
X2354269Y1973393D01*
X2350142Y1969470D01*
X2346222Y1965117D01*
X2343422Y1963083D01*
X2341074Y1960850D01*
X2335978Y1957674D01*
X2331000Y1954058D01*
X2328114Y1952773D01*
X2325624Y1951221D01*
X2319702Y1949028D01*
X2313812Y1946405D01*
X2311017Y1945811D01*
X2308552Y1944898D01*
X2302000Y1943894D01*
X2295408Y1942493D01*
X2292853Y1942493D01*
X2290557Y1942141D01*
X2283623Y1942493D01*
X2276592Y1942493D01*
X2274389Y1942961D01*
X2272375Y1943063D01*
X2265344Y1944884D01*
X2258189Y1946405D01*
X2256408Y1947198D01*
X2254751Y1947627D01*
X2247937Y1950969D01*
X2241000Y1954058D01*
X2239669Y1955025D01*
X2238407Y1955644D01*
X2232140Y1960495D01*
X2225778Y1965117D01*
X2224880Y1966114D01*
X2224011Y1966787D01*
X2218617Y1973071D01*
X2213189Y1979099D01*
X2212669Y1979999D01*
X2212152Y1980601D01*
X2207940Y1988190D01*
X2203781Y1995394D01*
X2203554Y1996092D01*
X2203318Y1996518D01*
X2200563Y2005296D01*
X2197967Y2013288D01*
X2197922Y2013716D01*
X2197868Y2013889D01*
X2196793Y2024454D01*
X2196000Y2032000D01*
X2196000Y2201000D01*
X2196012Y2201118D01*
X2196462Y2209978D01*
X2197448Y2214778D01*
X2197967Y2219712D01*
X2199315Y2223861D01*
X2200152Y2227935D01*
X2202155Y2232603D01*
X2203781Y2237606D01*
X2205812Y2241124D01*
X2207331Y2244665D01*
X2210409Y2249087D01*
X2213189Y2253901D01*
X2215705Y2256696D01*
X2217731Y2259607D01*
X2221860Y2263531D01*
X2225778Y2267883D01*
X2228578Y2269917D01*
X2230926Y2272150D01*
X2236024Y2275327D01*
X2241000Y2278942D01*
X2243885Y2280227D01*
X2246376Y2281779D01*
X2252300Y2283973D01*
X2258189Y2286595D01*
X2260983Y2287189D01*
X2263448Y2288102D01*
X2270002Y2289106D01*
X2276592Y2290507D01*
X2279146Y2290507D01*
X2281443Y2290859D01*
X2288379Y2290507D01*
G37*
G36*
X2542379Y2290507D02*
G01*
X2549408Y2290507D01*
X2551610Y2290039D01*
X2553625Y2289937D01*
X2560658Y2288116D01*
X2567812Y2286595D01*
X2569592Y2285803D01*
X2571249Y2285374D01*
X2578064Y2282030D01*
X2585000Y2278942D01*
X2586331Y2277975D01*
X2587593Y2277356D01*
X2593860Y2272505D01*
X2600222Y2267883D01*
X2601120Y2266886D01*
X2601989Y2266213D01*
X2607383Y2259930D01*
X2612812Y2253901D01*
X2613331Y2253001D01*
X2613848Y2252399D01*
X2618059Y2244812D01*
X2622219Y2237606D01*
X2622446Y2236908D01*
X2622682Y2236482D01*
X2625435Y2227710D01*
X2628033Y2219712D01*
X2628078Y2219284D01*
X2628132Y2219111D01*
X2629206Y2208553D01*
X2630000Y2201000D01*
X2630000Y2032000D01*
X2629988Y2031882D01*
X2629538Y2023022D01*
X2628552Y2018224D01*
X2628033Y2013288D01*
X2626685Y2009138D01*
X2625848Y2005065D01*
X2623845Y2000398D01*
X2622219Y1995394D01*
X2620188Y1991875D01*
X2618669Y1988335D01*
X2615592Y1983915D01*
X2612812Y1979099D01*
X2610294Y1976303D01*
X2608269Y1973393D01*
X2604142Y1969470D01*
X2600222Y1965117D01*
X2597422Y1963083D01*
X2595074Y1960850D01*
X2589978Y1957674D01*
X2585000Y1954058D01*
X2582114Y1952773D01*
X2579624Y1951221D01*
X2573702Y1949028D01*
X2567812Y1946405D01*
X2565017Y1945811D01*
X2562552Y1944898D01*
X2556000Y1943894D01*
X2549408Y1942493D01*
X2546853Y1942493D01*
X2544557Y1942141D01*
X2537623Y1942493D01*
X2530592Y1942493D01*
X2528389Y1942961D01*
X2526375Y1943063D01*
X2519344Y1944884D01*
X2512189Y1946405D01*
X2510408Y1947198D01*
X2508751Y1947627D01*
X2501937Y1950969D01*
X2495000Y1954058D01*
X2493669Y1955025D01*
X2492407Y1955644D01*
X2486140Y1960495D01*
X2479778Y1965117D01*
X2478880Y1966114D01*
X2478011Y1966787D01*
X2472617Y1973071D01*
X2467189Y1979099D01*
X2466669Y1979999D01*
X2466152Y1980601D01*
X2461940Y1988190D01*
X2457781Y1995394D01*
X2457554Y1996092D01*
X2457318Y1996518D01*
X2454563Y2005296D01*
X2451967Y2013288D01*
X2451922Y2013716D01*
X2451868Y2013889D01*
X2450793Y2024454D01*
X2450000Y2032000D01*
X2450000Y2201000D01*
X2450012Y2201118D01*
X2450462Y2209978D01*
X2451448Y2214778D01*
X2451967Y2219712D01*
X2453315Y2223861D01*
X2454152Y2227935D01*
X2456155Y2232603D01*
X2457781Y2237606D01*
X2459812Y2241124D01*
X2461331Y2244665D01*
X2464409Y2249087D01*
X2467189Y2253901D01*
X2469705Y2256696D01*
X2471731Y2259607D01*
X2475860Y2263531D01*
X2479778Y2267883D01*
X2482578Y2269917D01*
X2484926Y2272150D01*
X2490024Y2275327D01*
X2495000Y2278942D01*
X2497885Y2280227D01*
X2500376Y2281779D01*
X2506300Y2283973D01*
X2512189Y2286595D01*
X2514983Y2287189D01*
X2517448Y2288102D01*
X2524002Y2289106D01*
X2530592Y2290507D01*
X2533146Y2290507D01*
X2535443Y2290859D01*
X2542379Y2290507D01*
G37*
G36*
X2796379Y2290507D02*
G01*
X2803408Y2290507D01*
X2805610Y2290039D01*
X2807625Y2289937D01*
X2814658Y2288116D01*
X2821811Y2286595D01*
X2823591Y2285803D01*
X2825249Y2285374D01*
X2832064Y2282030D01*
X2839000Y2278942D01*
X2840331Y2277975D01*
X2841593Y2277356D01*
X2847860Y2272505D01*
X2854222Y2267883D01*
X2855120Y2266886D01*
X2855989Y2266213D01*
X2861383Y2259930D01*
X2866811Y2253901D01*
X2867331Y2253001D01*
X2867847Y2252399D01*
X2872059Y2244812D01*
X2876219Y2237606D01*
X2876446Y2236908D01*
X2876682Y2236482D01*
X2879435Y2227710D01*
X2882033Y2219712D01*
X2882078Y2219284D01*
X2882132Y2219111D01*
X2883206Y2208553D01*
X2884000Y2201000D01*
X2884000Y2032000D01*
X2883987Y2031882D01*
X2883538Y2023022D01*
X2882552Y2018224D01*
X2882033Y2013288D01*
X2880685Y2009138D01*
X2879848Y2005065D01*
X2877845Y2000398D01*
X2876219Y1995394D01*
X2874187Y1991875D01*
X2872669Y1988335D01*
X2869592Y1983915D01*
X2866811Y1979099D01*
X2864294Y1976303D01*
X2862269Y1973393D01*
X2858142Y1969470D01*
X2854222Y1965117D01*
X2851421Y1963083D01*
X2849073Y1960850D01*
X2843978Y1957674D01*
X2839000Y1954058D01*
X2836114Y1952773D01*
X2833624Y1951221D01*
X2827702Y1949028D01*
X2821811Y1946405D01*
X2819016Y1945811D01*
X2816552Y1944898D01*
X2810000Y1943894D01*
X2803408Y1942493D01*
X2800853Y1942493D01*
X2798557Y1942141D01*
X2791623Y1942493D01*
X2784592Y1942493D01*
X2782389Y1942961D01*
X2780375Y1943063D01*
X2773344Y1944884D01*
X2766189Y1946405D01*
X2764408Y1947198D01*
X2762751Y1947627D01*
X2755937Y1950969D01*
X2749000Y1954058D01*
X2747669Y1955025D01*
X2746407Y1955644D01*
X2740140Y1960495D01*
X2733778Y1965117D01*
X2732880Y1966114D01*
X2732011Y1966787D01*
X2726617Y1973071D01*
X2721189Y1979099D01*
X2720669Y1979999D01*
X2720152Y1980601D01*
X2715940Y1988190D01*
X2711781Y1995394D01*
X2711554Y1996092D01*
X2711318Y1996518D01*
X2708563Y2005296D01*
X2705967Y2013288D01*
X2705922Y2013716D01*
X2705868Y2013889D01*
X2704793Y2024454D01*
X2704000Y2032000D01*
X2704000Y2201000D01*
X2704012Y2201118D01*
X2704462Y2209978D01*
X2705448Y2214778D01*
X2705967Y2219712D01*
X2707315Y2223861D01*
X2708152Y2227935D01*
X2710155Y2232603D01*
X2711781Y2237606D01*
X2713812Y2241124D01*
X2715331Y2244665D01*
X2718409Y2249087D01*
X2721189Y2253901D01*
X2723705Y2256696D01*
X2725731Y2259607D01*
X2729860Y2263531D01*
X2733778Y2267883D01*
X2736578Y2269917D01*
X2738926Y2272150D01*
X2744024Y2275327D01*
X2749000Y2278942D01*
X2751885Y2280227D01*
X2754376Y2281779D01*
X2760300Y2283973D01*
X2766189Y2286595D01*
X2768983Y2287189D01*
X2771448Y2288102D01*
X2778002Y2289106D01*
X2784592Y2290507D01*
X2787146Y2290507D01*
X2789443Y2290859D01*
X2796379Y2290507D01*
G37*
G36*
X3050379Y2290507D02*
G01*
X3057408Y2290507D01*
X3059610Y2290039D01*
X3061625Y2289937D01*
X3068658Y2288116D01*
X3075811Y2286595D01*
X3077591Y2285803D01*
X3079249Y2285374D01*
X3086064Y2282030D01*
X3093000Y2278942D01*
X3094331Y2277975D01*
X3095593Y2277356D01*
X3101860Y2272505D01*
X3108222Y2267883D01*
X3109120Y2266886D01*
X3109989Y2266213D01*
X3115383Y2259930D01*
X3120811Y2253901D01*
X3121331Y2253001D01*
X3121847Y2252399D01*
X3126059Y2244812D01*
X3130219Y2237606D01*
X3130446Y2236908D01*
X3130682Y2236482D01*
X3133435Y2227710D01*
X3136033Y2219712D01*
X3136078Y2219284D01*
X3136132Y2219111D01*
X3137206Y2208553D01*
X3138000Y2201000D01*
X3138000Y2032000D01*
X3137987Y2031882D01*
X3137538Y2023022D01*
X3136552Y2018224D01*
X3136033Y2013288D01*
X3134685Y2009138D01*
X3133848Y2005065D01*
X3131845Y2000398D01*
X3130219Y1995394D01*
X3128187Y1991875D01*
X3126669Y1988335D01*
X3123592Y1983915D01*
X3120811Y1979099D01*
X3118294Y1976303D01*
X3116269Y1973393D01*
X3112142Y1969470D01*
X3108222Y1965117D01*
X3105421Y1963083D01*
X3103073Y1960850D01*
X3097978Y1957674D01*
X3093000Y1954058D01*
X3090114Y1952773D01*
X3087624Y1951221D01*
X3081702Y1949028D01*
X3075811Y1946405D01*
X3073016Y1945811D01*
X3070552Y1944898D01*
X3064000Y1943894D01*
X3057408Y1942493D01*
X3054853Y1942493D01*
X3052557Y1942141D01*
X3045622Y1942493D01*
X3038592Y1942493D01*
X3036389Y1942961D01*
X3034375Y1943063D01*
X3027344Y1944884D01*
X3020188Y1946405D01*
X3018408Y1947198D01*
X3016751Y1947627D01*
X3009937Y1950969D01*
X3003000Y1954058D01*
X3001669Y1955025D01*
X3000407Y1955644D01*
X2994140Y1960495D01*
X2987778Y1965117D01*
X2986880Y1966114D01*
X2986011Y1966787D01*
X2980617Y1973071D01*
X2975188Y1979099D01*
X2974669Y1979999D01*
X2974152Y1980601D01*
X2969940Y1988190D01*
X2965781Y1995394D01*
X2965554Y1996092D01*
X2965317Y1996518D01*
X2962563Y2005296D01*
X2959967Y2013288D01*
X2959922Y2013716D01*
X2959867Y2013889D01*
X2958793Y2024454D01*
X2958000Y2032000D01*
X2958000Y2201000D01*
X2958012Y2201118D01*
X2958462Y2209978D01*
X2959448Y2214778D01*
X2959967Y2219712D01*
X2961315Y2223861D01*
X2962152Y2227935D01*
X2964155Y2232603D01*
X2965781Y2237606D01*
X2967812Y2241124D01*
X2969331Y2244665D01*
X2972409Y2249087D01*
X2975188Y2253901D01*
X2977705Y2256696D01*
X2979731Y2259607D01*
X2983859Y2263531D01*
X2987778Y2267883D01*
X2990577Y2269917D01*
X2992926Y2272150D01*
X2998023Y2275327D01*
X3003000Y2278942D01*
X3005885Y2280227D01*
X3008376Y2281779D01*
X3014300Y2283973D01*
X3020188Y2286595D01*
X3022982Y2287189D01*
X3025448Y2288102D01*
X3032002Y2289106D01*
X3038592Y2290507D01*
X3041146Y2290507D01*
X3043442Y2290859D01*
X3050379Y2290507D01*
G37*
G36*
X-2627292Y2400712D02*
G01*
X-2600350Y2393164D01*
X-2574687Y2382017D01*
X-2550781Y2367479D01*
X-2529077Y2349821D01*
X-2509979Y2329373D01*
X-2493844Y2306515D01*
X-2480972Y2281672D01*
X-2471602Y2255308D01*
X-2465909Y2227914D01*
X-2464000Y2200000D01*
X-2465909Y2172086D01*
X-2471602Y2144692D01*
X-2480972Y2118328D01*
X-2493844Y2093485D01*
X-2509979Y2070627D01*
X-2529077Y2050179D01*
X-2550781Y2032521D01*
X-2574687Y2017983D01*
X-2600350Y2006836D01*
X-2627292Y1999288D01*
X-2655010Y1995478D01*
X-2682990Y1995478D01*
X-2710709Y1999288D01*
X-2737650Y2006836D01*
X-2763313Y2017983D01*
X-2787220Y2032521D01*
X-2808923Y2050179D01*
X-2828021Y2070627D01*
X-2844156Y2093485D01*
X-2857028Y2118328D01*
X-2866398Y2144692D01*
X-2872091Y2172086D01*
X-2874000Y2200000D01*
X-2872091Y2227914D01*
X-2866398Y2255308D01*
X-2857028Y2281672D01*
X-2844156Y2306515D01*
X-2828021Y2329373D01*
X-2808923Y2349821D01*
X-2787220Y2367479D01*
X-2763313Y2382017D01*
X-2737650Y2393164D01*
X-2710709Y2400712D01*
X-2682990Y2404522D01*
X-2655010Y2404522D01*
X-2627292Y2400712D01*
G37*
G36*
X-2032291Y2400712D02*
G01*
X-2005350Y2393164D01*
X-1979687Y2382017D01*
X-1955780Y2367479D01*
X-1934077Y2349821D01*
X-1914979Y2329373D01*
X-1898844Y2306515D01*
X-1885972Y2281672D01*
X-1876602Y2255308D01*
X-1870909Y2227914D01*
X-1869000Y2200000D01*
X-1870909Y2172086D01*
X-1876602Y2144692D01*
X-1885972Y2118328D01*
X-1898844Y2093485D01*
X-1914979Y2070627D01*
X-1934077Y2050179D01*
X-1955780Y2032521D01*
X-1979687Y2017983D01*
X-2005350Y2006836D01*
X-2032291Y1999288D01*
X-2060010Y1995478D01*
X-2087990Y1995478D01*
X-2115709Y1999288D01*
X-2142650Y2006836D01*
X-2168313Y2017983D01*
X-2192220Y2032521D01*
X-2213923Y2050179D01*
X-2233021Y2070627D01*
X-2249156Y2093485D01*
X-2262028Y2118328D01*
X-2271398Y2144692D01*
X-2277091Y2172086D01*
X-2279000Y2200000D01*
X-2277091Y2227914D01*
X-2271398Y2255308D01*
X-2262028Y2281672D01*
X-2249156Y2306515D01*
X-2233021Y2329373D01*
X-2213923Y2349821D01*
X-2192220Y2367479D01*
X-2168313Y2382017D01*
X-2142650Y2393164D01*
X-2115709Y2400712D01*
X-2087990Y2404522D01*
X-2060010Y2404522D01*
X-2032291Y2400712D01*
G37*
M02*
