G04 #@! TF.GenerationSoftware,KiCad,Pcbnew,7.0.5*
G04 #@! TF.CreationDate,2023-07-05T00:08:00+08:00*
G04 #@! TF.ProjectId,exModule,65784d6f-6475-46c6-952e-6b696361645f,rev?*
G04 #@! TF.SameCoordinates,PX5734380PY32de760*
G04 #@! TF.FileFunction,Copper,L1,Top*
G04 #@! TF.FilePolarity,Positive*
%FSLAX45Y45*%
G04 Gerber Fmt 4.5, Leading zero omitted, Abs format (unit mm)*
G04 Created by KiCad (PCBNEW 7.0.5) date 2023-07-05 00:08:00*
%MOMM*%
%LPD*%
G01*
G04 APERTURE LIST*
G04 #@! TA.AperFunction,ComponentPad*
%ADD10C,4.000000*%
G04 #@! TD*
G04 #@! TA.AperFunction,ComponentPad*
%ADD11C,2.000000*%
G04 #@! TD*
G04 #@! TA.AperFunction,ComponentPad*
%ADD12R,2.000000X2.000000*%
G04 #@! TD*
G04 #@! TA.AperFunction,ComponentPad*
%ADD13O,1.700000X3.390000*%
G04 #@! TD*
G04 #@! TA.AperFunction,ComponentPad*
%ADD14R,1.700000X3.390000*%
G04 #@! TD*
G04 #@! TA.AperFunction,ComponentPad*
%ADD15C,2.200000*%
G04 #@! TD*
G04 #@! TA.AperFunction,ComponentPad*
%ADD16C,1.600000*%
G04 #@! TD*
G04 #@! TA.AperFunction,ComponentPad*
%ADD17O,1.600000X1.600000*%
G04 #@! TD*
G04 #@! TA.AperFunction,ViaPad*
%ADD18C,0.800000*%
G04 #@! TD*
G04 #@! TA.AperFunction,Conductor*
%ADD19C,0.500000*%
G04 #@! TD*
G04 #@! TA.AperFunction,Conductor*
%ADD20C,0.150000*%
G04 #@! TD*
G04 #@! TA.AperFunction,Conductor*
%ADD21C,1.000000*%
G04 #@! TD*
G04 #@! TA.AperFunction,Conductor*
%ADD22C,0.800000*%
G04 #@! TD*
G04 APERTURE END LIST*
D10*
G04 #@! TO.P,REF\u002A\u002A,1*
G04 #@! TO.N,/12v*
X508071Y-2158929D03*
G04 #@! TD*
G04 #@! TO.P,REF\u002A\u002A,1*
G04 #@! TO.N,Net-(U2-GND)*
X-380900Y-2159000D03*
G04 #@! TD*
G04 #@! TO.P,REF\u002A\u002A,1*
G04 #@! TO.N,/open*
X-2074000Y2200000D03*
G04 #@! TD*
G04 #@! TO.P,REF\u002A\u002A,1*
G04 #@! TO.N,/lock*
X-2669000Y2200000D03*
G04 #@! TD*
D11*
G04 #@! TO.P,U2,4,VO+*
G04 #@! TO.N,Net-(U2-VO+)*
X-2159000Y0D03*
G04 #@! TO.P,U2,3,GND*
G04 #@! TO.N,Net-(U2-GND)*
X-2413000Y0D03*
G04 #@! TO.P,U2,2,IN+*
G04 #@! TO.N,/12v*
X-2667000Y0D03*
D12*
G04 #@! TO.P,U2,1,EN*
G04 #@! TO.N,unconnected-(U2-EN-Pad1)*
X-2921000Y0D03*
G04 #@! TD*
D13*
G04 #@! TO.P,J1,32,GND*
G04 #@! TO.N,Net-(U2-GND)*
X3048000Y2116500D03*
G04 #@! TO.P,J1,31,5V*
G04 #@! TO.N,Net-(U2-VO+)*
X2794000Y2116500D03*
G04 #@! TO.P,J1,30,GPIO9*
G04 #@! TO.N,unconnected-(J1-GPIO9-Pad30)*
X2540000Y2116500D03*
G04 #@! TO.P,J1,29,GPIO8*
G04 #@! TO.N,unconnected-(J1-GPIO8-Pad29)*
X2286000Y2116500D03*
G04 #@! TO.P,J1,28,GPIO4*
G04 #@! TO.N,unconnected-(J1-GPIO4-Pad28)*
X2032000Y2116500D03*
G04 #@! TO.P,J1,27,GPIO5*
G04 #@! TO.N,unconnected-(J1-GPIO5-Pad27)*
X1778000Y2116500D03*
G04 #@! TO.P,J1,26,3V3*
G04 #@! TO.N,unconnected-(J1-3V3-Pad26)*
X1524000Y2116500D03*
G04 #@! TO.P,J1,25,GND*
G04 #@! TO.N,unconnected-(J1-GND-Pad25)*
X1270000Y2116500D03*
G04 #@! TO.P,J1,24,GPIO11*
G04 #@! TO.N,/open*
X1016000Y2116500D03*
G04 #@! TO.P,J1,23,GPIO07*
G04 #@! TO.N,unconnected-(J1-GPIO07-Pad23)*
X762000Y2116500D03*
G04 #@! TO.P,J1,22,GPIO06*
G04 #@! TO.N,/lock*
X508000Y2116500D03*
G04 #@! TO.P,J1,21,GPIO10*
G04 #@! TO.N,unconnected-(J1-GPIO10-Pad21)*
X254000Y2116500D03*
G04 #@! TO.P,J1,20,GPIO3*
G04 #@! TO.N,unconnected-(J1-GPIO3-Pad20)*
X0Y2116500D03*
G04 #@! TO.P,J1,19,GPIO2*
G04 #@! TO.N,unconnected-(J1-GPIO2-Pad19)*
X-254000Y2116500D03*
G04 #@! TO.P,J1,18,3v3*
G04 #@! TO.N,unconnected-(J1-3v3-Pad18)*
X-508000Y2116500D03*
D14*
G04 #@! TO.P,J1,17,GND*
G04 #@! TO.N,unconnected-(J1-GND-Pad17)*
X-762000Y2116500D03*
D13*
G04 #@! TO.P,J1,16,5V*
G04 #@! TO.N,unconnected-(J1-5V-Pad16)*
X3048000Y169500D03*
G04 #@! TO.P,J1,15,PWB*
G04 #@! TO.N,unconnected-(J1-PWB-Pad15)*
X2794000Y169500D03*
G04 #@! TO.P,J1,14,GND*
G04 #@! TO.N,unconnected-(J1-GND-Pad14)*
X2540000Y169500D03*
G04 #@! TO.P,J1,13,3V3*
G04 #@! TO.N,Net-(J1-3V3-Pad13)*
X2286000Y169500D03*
G04 #@! TO.P,J1,12,REST*
G04 #@! TO.N,unconnected-(J1-REST-Pad12)*
X2032000Y169500D03*
G04 #@! TO.P,J1,11,NC*
G04 #@! TO.N,unconnected-(J1-NC-Pad11)*
X1778000Y169500D03*
G04 #@! TO.P,J1,10,GPIO13*
G04 #@! TO.N,unconnected-(J1-GPIO13-Pad10)*
X1524000Y169500D03*
G04 #@! TO.P,J1,9,UART0_RX*
G04 #@! TO.N,unconnected-(J1-UART0_RX-Pad9)*
X1270000Y169500D03*
G04 #@! TO.P,J1,8,UART0_TX*
G04 #@! TO.N,unconnected-(J1-UART0_TX-Pad8)*
X1016000Y169500D03*
G04 #@! TO.P,J1,7,GND*
G04 #@! TO.N,unconnected-(J1-GND-Pad7)*
X762000Y169500D03*
G04 #@! TO.P,J1,6,GPIO19*
G04 #@! TO.N,unconnected-(J1-GPIO19-Pad6)*
X508000Y169500D03*
G04 #@! TO.P,J1,5,GPIO18*
G04 #@! TO.N,Net-(J1-GPIO18)*
X254000Y169500D03*
G04 #@! TO.P,J1,4,GPIO12*
G04 #@! TO.N,Net-(J1-GPIO12)*
X0Y169500D03*
G04 #@! TO.P,J1,3,GPIO1*
G04 #@! TO.N,unconnected-(J1-GPIO1-Pad3)*
X-254000Y169500D03*
G04 #@! TO.P,J1,2,GPIO0*
G04 #@! TO.N,unconnected-(J1-GPIO0-Pad2)*
X-508000Y169500D03*
D14*
G04 #@! TO.P,J1,1,GND*
G04 #@! TO.N,Net-(J1-GND-Pad1)*
X-762000Y169500D03*
G04 #@! TD*
D15*
G04 #@! TO.P,SW2,1*
G04 #@! TO.N,Net-(J1-3V3-Pad13)*
X2286000Y-762000D03*
G04 #@! TO.P,SW2,2*
G04 #@! TO.N,Net-(J1-GPIO18)*
X1651000Y-1016000D03*
G04 #@! TD*
G04 #@! TO.P,SW1,2*
G04 #@! TO.N,Net-(J1-GPIO12)*
X-2413000Y-1016000D03*
G04 #@! TO.P,SW1,1*
G04 #@! TO.N,Net-(J1-3V3-Pad13)*
X-1778000Y-762000D03*
G04 #@! TD*
D16*
G04 #@! TO.P,R2,1*
G04 #@! TO.N,Net-(J1-GPIO18)*
X3302000Y-889000D03*
D17*
G04 #@! TO.P,R2,2*
G04 #@! TO.N,Net-(J1-GND-Pad1)*
X3302000Y-1651000D03*
G04 #@! TD*
G04 #@! TO.P,R1,2*
G04 #@! TO.N,Net-(J1-GND-Pad1)*
X-3302000Y-889000D03*
D16*
G04 #@! TO.P,R1,1*
G04 #@! TO.N,Net-(J1-GPIO12)*
X-3302000Y-1651000D03*
G04 #@! TD*
D18*
G04 #@! TO.N,Net-(U2-GND)*
X-2286000Y-2159000D03*
G04 #@! TO.N,Net-(J1-GND-Pad1)*
X0Y-635000D03*
G04 #@! TD*
D19*
G04 #@! TO.N,/lock*
X-2618000Y2200000D02*
X-1930289Y1512289D01*
X-1930290Y1512289D02*
G75*
G03*
X-1859579Y1483000I70710J70711D01*
G01*
X-1859579Y1483000D02*
X-82421Y1483000D01*
X-82421Y1483001D02*
G75*
G03*
X-11711Y1512289I1J99999D01*
G01*
X-11711Y1512289D02*
X508000Y2032000D01*
D20*
G04 #@! TO.N,Net-(J1-GPIO18)*
X254001Y-339579D02*
G75*
G03*
X283289Y-410289I99999J-1D01*
G01*
X859710Y-986711D02*
G75*
G03*
X930421Y-1016000I70710J70711D01*
G01*
G04 #@! TO.N,Net-(J1-GND-Pad1)*
X-1400579Y253999D02*
G75*
G03*
X-1471289Y224711I-1J-99999D01*
G01*
X-2626421Y-888999D02*
G75*
G03*
X-2555711Y-859711I1J99999D01*
G01*
G04 #@! TO.N,Net-(J1-GPIO12)*
X-29289Y-384290D02*
G75*
G03*
X0Y-313579I-70711J70710D01*
G01*
X-702421Y-1015999D02*
G75*
G03*
X-631711Y-986711I1J99999D01*
G01*
D19*
G04 #@! TO.N,/open*
X790139Y2356713D02*
G75*
G03*
X719426Y2386000I-70709J-70713D01*
G01*
X-1805579Y2385999D02*
G75*
G03*
X-1876289Y2356711I-1J-99999D01*
G01*
D20*
G04 #@! TO.N,Net-(J1-GND-Pad1)*
X986710Y-1621711D02*
G75*
G03*
X1057421Y-1651000I70710J70711D01*
G01*
D21*
G04 #@! TO.N,Net-(U2-VO+)*
X1736579Y1016001D02*
G75*
G03*
X1807289Y1045289I1J99999D01*
G01*
X-1355579Y1015999D02*
G75*
G03*
X-1426289Y986711I-1J-99999D01*
G01*
X-2129711Y283290D02*
G75*
G03*
X-2159000Y212579I70711J-70710D01*
G01*
D20*
G04 #@! TO.N,Net-(J1-GPIO12)*
X-3089421Y-1650999D02*
G75*
G03*
X-3018711Y-1621711I1J99999D01*
G01*
G04 #@! TO.N,Net-(J1-GPIO18)*
X3133579Y-1015999D02*
G75*
G03*
X3204289Y-986711I1J99999D01*
G01*
X859711Y-986711D02*
X283289Y-410289D01*
X1651000Y-1016000D02*
X930421Y-1016000D01*
X254000Y-339579D02*
X254000Y254000D01*
D22*
G04 #@! TO.N,Net-(U2-GND)*
X-381000Y-2159000D02*
X-2286000Y-2159000D01*
D20*
G04 #@! TO.N,Net-(J1-GND-Pad1)*
X3302000Y-1651000D02*
X1057421Y-1651000D01*
X986711Y-1621711D02*
X0Y-635000D01*
G04 #@! TO.N,Net-(J1-GPIO12)*
X0Y-313579D02*
X0Y254000D01*
X-631711Y-986711D02*
X-29289Y-384289D01*
X-2413000Y-1016000D02*
X-702421Y-1016000D01*
G04 #@! TO.N,Net-(J1-GND-Pad1)*
X-1400579Y254000D02*
X-762000Y254000D01*
X-3302000Y-889000D02*
X-2626421Y-889000D01*
X-2555711Y-859711D02*
X-1471289Y224711D01*
D19*
G04 #@! TO.N,/open*
X1016000Y2130848D02*
X1016000Y2116500D01*
X-1805579Y2386000D02*
X719426Y2386000D01*
X-2033000Y2200000D02*
X-1876289Y2356711D01*
X790137Y2356711D02*
X1016000Y2130848D01*
D20*
X1016000Y2116500D02*
X1016000Y2032000D01*
D21*
G04 #@! TO.N,Net-(U2-VO+)*
X-2159000Y0D02*
X-2159000Y212579D01*
X-1355579Y1016000D02*
X1736579Y1016000D01*
X-2129711Y283289D02*
X-1426289Y986711D01*
X1807289Y1045289D02*
X2794000Y2032000D01*
D20*
G04 #@! TO.N,Net-(J1-GPIO18)*
X1651000Y-1016000D02*
X3133579Y-1016000D01*
X3204289Y-986711D02*
X3302000Y-889000D01*
G04 #@! TO.N,Net-(J1-GPIO12)*
X-3018711Y-1621711D02*
X-2413000Y-1016000D01*
X-3302000Y-1651000D02*
X-3089421Y-1651000D01*
G04 #@! TD*
G04 #@! TA.AperFunction,Conductor*
G04 #@! TO.N,/lock*
G36*
X-2475051Y2185714D02*
G01*
X-2474304Y2185221D01*
X-2474163Y2184936D01*
X-2427503Y2045315D01*
X-2427566Y2044422D01*
X-2427785Y2044117D01*
X-2462196Y2009706D01*
X-2463024Y2009363D01*
X-2463231Y2009382D01*
X-2605471Y2035009D01*
X-2606224Y2035493D01*
X-2606373Y2035789D01*
X-2609263Y2044422D01*
X-2668435Y2221172D01*
X-2668373Y2222065D01*
X-2667697Y2222653D01*
X-2667104Y2222692D01*
X-2475051Y2185714D01*
G37*
G04 #@! TD.AperFunction*
G04 #@! TD*
G04 #@! TA.AperFunction,Conductor*
G04 #@! TO.N,/lock*
G36*
X424107Y2066751D02*
G01*
X507622Y2032256D01*
X508255Y2031624D01*
X508256Y2031621D01*
X540091Y1954528D01*
X540091Y1953632D01*
X539481Y1953010D01*
X406202Y1894436D01*
X405307Y1894417D01*
X404904Y1894680D01*
X370651Y1928932D01*
X370309Y1929759D01*
X370386Y1930179D01*
X422570Y2066088D01*
X423186Y2066738D01*
X424082Y2066761D01*
X424107Y2066751D01*
G37*
G04 #@! TD.AperFunction*
G04 #@! TD*
G04 #@! TA.AperFunction,Conductor*
G04 #@! TO.N,Net-(J1-GPIO18)*
G36*
X1606945Y-917075D02*
G01*
X1606992Y-917168D01*
X1647690Y-1008359D01*
X1650887Y-1015523D01*
X1650911Y-1016418D01*
X1650887Y-1016477D01*
X1606992Y-1114831D01*
X1606342Y-1115447D01*
X1605447Y-1115422D01*
X1605353Y-1115375D01*
X1441599Y-1023835D01*
X1441044Y-1023132D01*
X1441000Y-1022814D01*
X1441000Y-1009186D01*
X1441343Y-1008359D01*
X1441599Y-1008165D01*
X1605353Y-916624D01*
X1606242Y-916520D01*
X1606945Y-917075D01*
G37*
G04 #@! TD.AperFunction*
G04 #@! TD*
G04 #@! TA.AperFunction,Conductor*
G04 #@! TO.N,Net-(J1-GPIO18)*
G36*
X255071Y251347D02*
G01*
X255090Y251301D01*
X332338Y52964D01*
X332319Y52069D01*
X332287Y52003D01*
X261827Y-84367D01*
X261143Y-84945D01*
X260787Y-85000D01*
X247212Y-85000D01*
X246385Y-84657D01*
X246173Y-84367D01*
X175713Y52003D01*
X175637Y52895D01*
X175661Y52961D01*
X252910Y251301D01*
X253529Y251947D01*
X254425Y251966D01*
X255071Y251347D01*
G37*
G04 #@! TD.AperFunction*
G04 #@! TD*
G04 #@! TA.AperFunction,Conductor*
G04 #@! TO.N,Net-(U2-GND)*
G36*
X-552434Y-2059307D02*
G01*
X-450268Y-2118684D01*
X-382641Y-2157988D01*
X-382097Y-2158700D01*
X-382217Y-2159588D01*
X-382641Y-2160012D01*
X-552433Y-2258692D01*
X-553321Y-2258812D01*
X-553517Y-2258740D01*
X-680327Y-2199316D01*
X-680930Y-2198654D01*
X-681000Y-2198256D01*
X-681000Y-2119744D01*
X-680657Y-2118916D01*
X-680327Y-2118685D01*
X-553517Y-2059260D01*
X-552623Y-2059219D01*
X-552434Y-2059307D01*
G37*
G04 #@! TD.AperFunction*
G04 #@! TD*
G04 #@! TA.AperFunction,Conductor*
G04 #@! TO.N,Net-(J1-GND-Pad1)*
G36*
X3271832Y-1578175D02*
G01*
X3271872Y-1578260D01*
X3301913Y-1650551D01*
X3301914Y-1651446D01*
X3301913Y-1651448D01*
X3301913Y-1651449D01*
X3271872Y-1723739D01*
X3271238Y-1724372D01*
X3270342Y-1724371D01*
X3270257Y-1724331D01*
X3142636Y-1658826D01*
X3142056Y-1658143D01*
X3142000Y-1657785D01*
X3142000Y-1644215D01*
X3142343Y-1643387D01*
X3142636Y-1643174D01*
X3270257Y-1577668D01*
X3271150Y-1577596D01*
X3271832Y-1578175D01*
G37*
G04 #@! TD.AperFunction*
G04 #@! TD*
G04 #@! TA.AperFunction,Conductor*
G04 #@! TO.N,Net-(J1-GND-Pad1)*
G36*
X36733Y-620155D02*
G01*
X37365Y-620789D01*
X37379Y-620824D01*
X61608Y-685560D01*
X61577Y-686455D01*
X61339Y-686798D01*
X51797Y-696339D01*
X50970Y-696682D01*
X50560Y-696608D01*
X-14176Y-672379D01*
X-14830Y-671768D01*
X-14861Y-670873D01*
X-14849Y-670841D01*
X-256Y-635380D01*
X375Y-634746D01*
X35838Y-620153D01*
X36733Y-620155D01*
G37*
G04 #@! TD.AperFunction*
G04 #@! TD*
G04 #@! TA.AperFunction,Conductor*
G04 #@! TO.N,Net-(J1-GPIO12)*
G36*
X1071Y251347D02*
G01*
X1090Y251301D01*
X78338Y52964D01*
X78319Y52069D01*
X78287Y52003D01*
X7827Y-84367D01*
X7143Y-84945D01*
X6787Y-85000D01*
X-6787Y-85000D01*
X-7615Y-84657D01*
X-7827Y-84367D01*
X-78287Y52003D01*
X-78363Y52895D01*
X-78339Y52961D01*
X-1090Y251301D01*
X-471Y251947D01*
X425Y251966D01*
X1071Y251347D01*
G37*
G04 #@! TD.AperFunction*
G04 #@! TD*
G04 #@! TA.AperFunction,Conductor*
G04 #@! TO.N,Net-(J1-GPIO12)*
G36*
X-2367447Y-916577D02*
G01*
X-2367354Y-916624D01*
X-2203599Y-1008165D01*
X-2203044Y-1008868D01*
X-2203000Y-1009186D01*
X-2203000Y-1022814D01*
X-2203343Y-1023641D01*
X-2203599Y-1023835D01*
X-2367353Y-1115375D01*
X-2368242Y-1115480D01*
X-2368945Y-1114925D01*
X-2368991Y-1114832D01*
X-2412887Y-1016476D01*
X-2412912Y-1015582D01*
X-2412889Y-1015527D01*
X-2368992Y-917169D01*
X-2368342Y-916553D01*
X-2367447Y-916577D01*
G37*
G04 #@! TD.AperFunction*
G04 #@! TD*
G04 #@! TA.AperFunction,Conductor*
G04 #@! TO.N,Net-(J1-GND-Pad1)*
G36*
X-846210Y338211D02*
G01*
X-785004Y277077D01*
X-762729Y254828D01*
X-762386Y254001D01*
X-762728Y253173D01*
X-762729Y253172D01*
X-846210Y169789D01*
X-847037Y169447D01*
X-847825Y169752D01*
X-931618Y246152D01*
X-931999Y246963D01*
X-932000Y247017D01*
X-932000Y260983D01*
X-931657Y261811D01*
X-931620Y261846D01*
X-847825Y338248D01*
X-846983Y338552D01*
X-846210Y338211D01*
G37*
G04 #@! TD.AperFunction*
G04 #@! TD*
G04 #@! TA.AperFunction,Conductor*
G04 #@! TO.N,Net-(J1-GND-Pad1)*
G36*
X-3270342Y-815629D02*
G01*
X-3270258Y-815668D01*
X-3142636Y-881174D01*
X-3142056Y-881856D01*
X-3142000Y-882215D01*
X-3142000Y-895785D01*
X-3142343Y-896613D01*
X-3142636Y-896826D01*
X-3270257Y-962331D01*
X-3271150Y-962404D01*
X-3271832Y-961825D01*
X-3271872Y-961739D01*
X-3279149Y-944229D01*
X-3301914Y-889449D01*
X-3301915Y-888554D01*
X-3271872Y-816260D01*
X-3271238Y-815628D01*
X-3270342Y-815629D01*
G37*
G04 #@! TD.AperFunction*
G04 #@! TD*
G04 #@! TA.AperFunction,Conductor*
G04 #@! TO.N,/open*
G36*
X-1862467Y2397223D02*
G01*
X-1862090Y2396736D01*
X-1843457Y2351750D01*
X-1843410Y2350992D01*
X-1878428Y2223903D01*
X-1878978Y2223196D01*
X-1879366Y2223059D01*
X-2072116Y2191288D01*
X-2072988Y2191491D01*
X-2073461Y2192252D01*
X-2073405Y2192843D01*
X-2006260Y2376702D01*
X-2005654Y2377361D01*
X-2005324Y2377459D01*
X-1863334Y2397447D01*
X-1862467Y2397223D01*
G37*
G04 #@! TD.AperFunction*
G04 #@! TD*
G04 #@! TA.AperFunction,Conductor*
G04 #@! TO.N,Net-(U2-VO+)*
G36*
X-2109076Y199657D02*
G01*
X-2108771Y199127D01*
X-2066870Y39254D01*
X-2066992Y38367D01*
X-2067554Y37877D01*
X-2158551Y86D01*
X-2159447Y85D01*
X-2159449Y86D01*
X-2250447Y37877D01*
X-2251079Y38511D01*
X-2251130Y39254D01*
X-2209229Y199127D01*
X-2208688Y199840D01*
X-2208097Y200000D01*
X-2109903Y200000D01*
X-2109076Y199657D01*
G37*
G04 #@! TD.AperFunction*
G04 #@! TD*
G04 #@! TA.AperFunction,Conductor*
G04 #@! TO.N,Net-(U2-VO+)*
G36*
X2709940Y2066820D02*
G01*
X2793622Y2032256D01*
X2794255Y2031624D01*
X2794256Y2031621D01*
X2826159Y1954364D01*
X2826158Y1953469D01*
X2825719Y1952939D01*
X2709943Y1876959D01*
X2709064Y1876791D01*
X2708474Y1877110D01*
X2639076Y1946507D01*
X2638734Y1947335D01*
X2638895Y1947927D01*
X2641841Y1952939D01*
X2708485Y2066332D01*
X2709199Y2066871D01*
X2709940Y2066820D01*
G37*
G04 #@! TD.AperFunction*
G04 #@! TD*
G04 #@! TA.AperFunction,Conductor*
G04 #@! TO.N,Net-(J1-GPIO18)*
G36*
X1696553Y-916577D02*
G01*
X1696646Y-916624D01*
X1860401Y-1008165D01*
X1860956Y-1008868D01*
X1861000Y-1009186D01*
X1861000Y-1022814D01*
X1860657Y-1023641D01*
X1860401Y-1023835D01*
X1696647Y-1115375D01*
X1695758Y-1115480D01*
X1695055Y-1114925D01*
X1695009Y-1114832D01*
X1651113Y-1016476D01*
X1651088Y-1015582D01*
X1651111Y-1015527D01*
X1695008Y-917169D01*
X1695658Y-916553D01*
X1696553Y-916577D01*
G37*
G04 #@! TD.AperFunction*
G04 #@! TD*
G04 #@! TA.AperFunction,Conductor*
G04 #@! TO.N,Net-(J1-GPIO18)*
G36*
X3229315Y-858891D02*
G01*
X3301634Y-888759D01*
X3302267Y-889391D01*
X3302269Y-889394D01*
X3332112Y-961693D01*
X3332111Y-962589D01*
X3331477Y-963221D01*
X3331347Y-963266D01*
X3202178Y-999522D01*
X3201288Y-999415D01*
X3200889Y-999045D01*
X3193323Y-987722D01*
X3193148Y-986844D01*
X3193167Y-986765D01*
X3199559Y-963266D01*
X3227741Y-859666D01*
X3228289Y-858958D01*
X3229177Y-858844D01*
X3229315Y-858891D01*
G37*
G04 #@! TD.AperFunction*
G04 #@! TD*
G04 #@! TA.AperFunction,Conductor*
G04 #@! TO.N,Net-(J1-GPIO12)*
G36*
X-2514003Y-977234D02*
G01*
X-2413417Y-1015743D01*
X-2412767Y-1016358D01*
X-2412743Y-1016417D01*
X-2374234Y-1117002D01*
X-2374259Y-1117897D01*
X-2374909Y-1118513D01*
X-2375009Y-1118546D01*
X-2555529Y-1169609D01*
X-2556418Y-1169504D01*
X-2556674Y-1169310D01*
X-2566310Y-1159674D01*
X-2566653Y-1158847D01*
X-2566609Y-1158529D01*
X-2555201Y-1118198D01*
X-2515547Y-978008D01*
X-2514992Y-977306D01*
X-2514102Y-977201D01*
X-2514003Y-977234D01*
G37*
G04 #@! TD.AperFunction*
G04 #@! TD*
G04 #@! TA.AperFunction,Conductor*
G04 #@! TO.N,Net-(J1-GPIO12)*
G36*
X-3270342Y-1577629D02*
G01*
X-3270258Y-1577668D01*
X-3142636Y-1643174D01*
X-3142056Y-1643856D01*
X-3142000Y-1644215D01*
X-3142000Y-1657785D01*
X-3142343Y-1658613D01*
X-3142636Y-1658826D01*
X-3270257Y-1724331D01*
X-3271150Y-1724404D01*
X-3271832Y-1723825D01*
X-3271872Y-1723739D01*
X-3279149Y-1706229D01*
X-3301914Y-1651449D01*
X-3301915Y-1650554D01*
X-3271872Y-1578260D01*
X-3271238Y-1577628D01*
X-3270342Y-1577629D01*
G37*
G04 #@! TD.AperFunction*
G04 #@! TD*
M02*
