G04 #@! TF.GenerationSoftware,KiCad,Pcbnew,7.0.5*
G04 #@! TF.CreationDate,2023-07-05T20:45:45+08:00*
G04 #@! TF.ProjectId,exMoudle,65784d6f-7564-46c6-952e-6b696361645f,rev?*
G04 #@! TF.SameCoordinates,PX4433b78PY969def3*
G04 #@! TF.FileFunction,Copper,L2,Bot*
G04 #@! TF.FilePolarity,Positive*
%FSLAX45Y45*%
G04 Gerber Fmt 4.5, Leading zero omitted, Abs format (unit mm)*
G04 Created by KiCad (PCBNEW 7.0.5) date 2023-07-05 20:45:45*
%MOMM*%
%LPD*%
G01*
G04 APERTURE LIST*
G04 #@! TA.AperFunction,ComponentPad*
%ADD10C,2.200000*%
G04 #@! TD*
G04 #@! TA.AperFunction,ComponentPad*
%ADD11C,1.600000*%
G04 #@! TD*
G04 #@! TA.AperFunction,ComponentPad*
%ADD12O,1.600000X1.600000*%
G04 #@! TD*
G04 #@! TA.AperFunction,ComponentPad*
%ADD13C,5.000000*%
G04 #@! TD*
G04 #@! TA.AperFunction,ComponentPad*
%ADD14R,1.700000X1.700000*%
G04 #@! TD*
G04 #@! TA.AperFunction,ComponentPad*
%ADD15O,1.700000X1.700000*%
G04 #@! TD*
G04 #@! TA.AperFunction,ComponentPad*
%ADD16R,1.712000X3.644000*%
G04 #@! TD*
G04 #@! TA.AperFunction,ComponentPad*
%ADD17O,1.712000X3.644000*%
G04 #@! TD*
G04 #@! TA.AperFunction,ComponentPad*
%ADD18O,1.700000X3.644000*%
G04 #@! TD*
G04 #@! TA.AperFunction,ViaPad*
%ADD19C,4.000000*%
G04 #@! TD*
G04 #@! TA.AperFunction,ViaPad*
%ADD20C,5.000000*%
G04 #@! TD*
G04 #@! TA.AperFunction,ViaPad*
%ADD21C,10.000000*%
G04 #@! TD*
G04 #@! TA.AperFunction,ViaPad*
%ADD22C,0.800000*%
G04 #@! TD*
G04 #@! TA.AperFunction,Conductor*
%ADD23C,0.800000*%
G04 #@! TD*
G04 #@! TA.AperFunction,Conductor*
%ADD24C,0.300000*%
G04 #@! TD*
G04 #@! TA.AperFunction,Conductor*
%ADD25C,1.000000*%
G04 #@! TD*
G04 #@! TA.AperFunction,Conductor*
%ADD26C,0.250000*%
G04 #@! TD*
G04 APERTURE END LIST*
D10*
G04 #@! TO.P,SW10,1,1*
G04 #@! TO.N,unconnected-(SW10-Pad1)*
X-2528000Y11014000D03*
G04 #@! TO.P,SW10,2,2*
G04 #@! TO.N,Net-(J1-GPIO5)*
X-2274000Y10379000D03*
G04 #@! TD*
G04 #@! TO.P,SW7,1,1*
G04 #@! TO.N,unconnected-(SW7-Pad1)*
X-2528000Y8994000D03*
G04 #@! TO.P,SW7,2,2*
G04 #@! TO.N,Net-(J1-GPIO4)*
X-2274000Y8359000D03*
G04 #@! TD*
D11*
G04 #@! TO.P,R3,1*
G04 #@! TO.N,GND*
X-1563500Y743830D03*
D12*
G04 #@! TO.P,R3,2*
G04 #@! TO.N,Net-(J1-GPIO13)*
X-2579500Y743830D03*
G04 #@! TD*
D13*
G04 #@! TO.P,REF\u002A\u002A,1*
G04 #@! TO.N,N/C*
X2500000Y13000000D03*
G04 #@! TD*
D10*
G04 #@! TO.P,SW9,1,1*
G04 #@! TO.N,unconnected-(SW9-Pad1)*
X1512000Y8994000D03*
G04 #@! TO.P,SW9,2,2*
G04 #@! TO.N,Net-(J1-GPIO5)*
X1766000Y8359000D03*
G04 #@! TD*
G04 #@! TO.P,SW6,1,1*
G04 #@! TO.N,unconnected-(SW6-Pad1)*
X1512000Y6974000D03*
G04 #@! TO.P,SW6,2,2*
G04 #@! TO.N,Net-(J1-GPIO4)*
X1766000Y6339000D03*
G04 #@! TD*
G04 #@! TO.P,SW1,1,1*
G04 #@! TO.N,unconnected-(SW1-Pad1)*
X-2528000Y4954000D03*
G04 #@! TO.P,SW1,2,2*
G04 #@! TO.N,Net-(J1-GPIO3)*
X-2274000Y4319000D03*
G04 #@! TD*
D11*
G04 #@! TO.P,R4,1*
G04 #@! TO.N,Net-(J1-GPIO8)*
X-208833Y743830D03*
D12*
G04 #@! TO.P,R4,2*
G04 #@! TO.N,GND*
X-1224833Y743830D03*
G04 #@! TD*
D10*
G04 #@! TO.P,SW11,1,1*
G04 #@! TO.N,unconnected-(SW11-Pad1)*
X-508000Y11014000D03*
G04 #@! TO.P,SW11,2,2*
G04 #@! TO.N,Net-(J1-GPIO5)*
X-254000Y10379000D03*
G04 #@! TD*
G04 #@! TO.P,SW4,1,1*
G04 #@! TO.N,unconnected-(SW4-Pad1)*
X-2528000Y6974000D03*
G04 #@! TO.P,SW4,2,2*
G04 #@! TO.N,Net-(J1-GPIO3)*
X-2274000Y6339000D03*
G04 #@! TD*
G04 #@! TO.P,SW5,1,1*
G04 #@! TO.N,unconnected-(SW5-Pad1)*
X-508000Y6974000D03*
G04 #@! TO.P,SW5,2,2*
G04 #@! TO.N,Net-(J1-GPIO4)*
X-254000Y6339000D03*
G04 #@! TD*
G04 #@! TO.P,SW8,1,1*
G04 #@! TO.N,unconnected-(SW8-Pad1)*
X-508000Y8994000D03*
G04 #@! TO.P,SW8,2,2*
G04 #@! TO.N,Net-(J1-GPIO4)*
X-254000Y8359000D03*
G04 #@! TD*
D11*
G04 #@! TO.P,R2,1*
G04 #@! TO.N,GND*
X1145833Y743830D03*
D12*
G04 #@! TO.P,R2,2*
G04 #@! TO.N,Net-(J1-GPIO12)*
X129833Y743830D03*
G04 #@! TD*
D13*
G04 #@! TO.P,REF\u002A\u002A,1*
G04 #@! TO.N,/touch_pad*
X-2500000Y300000D03*
G04 #@! TD*
G04 #@! TO.P,REF\u002A\u002A,1*
G04 #@! TO.N,N/C*
X2500000Y300000D03*
G04 #@! TD*
G04 #@! TO.P,REF\u002A\u002A,1*
G04 #@! TO.N,N/C*
X-2500000Y13000000D03*
G04 #@! TD*
D14*
G04 #@! TO.P,J3,1,Pin_1*
G04 #@! TO.N,Net-(J1-3v3)*
X2564000Y2204330D03*
D15*
G04 #@! TO.P,J3,2,Pin_2*
G04 #@! TO.N,GND*
X2564000Y1950330D03*
G04 #@! TO.P,J3,3,Pin_3*
G04 #@! TO.N,/Lidar_TX*
X2564000Y1696330D03*
G04 #@! TO.P,J3,4,Pin_4*
G04 #@! TO.N,/Lidar_RX*
X2564000Y1442330D03*
G04 #@! TO.P,J3,5,Pin_5*
G04 #@! TO.N,Net-(J1-GPIO015)*
X2564000Y1188330D03*
G04 #@! TD*
D10*
G04 #@! TO.P,SW2,1,1*
G04 #@! TO.N,unconnected-(SW2-Pad1)*
X-508000Y4954000D03*
G04 #@! TO.P,SW2,2,2*
G04 #@! TO.N,Net-(J1-GPIO3)*
X-254000Y4319000D03*
G04 #@! TD*
G04 #@! TO.P,SW3,1,1*
G04 #@! TO.N,unconnected-(SW3-Pad1)*
X1512000Y4954000D03*
G04 #@! TO.P,SW3,2,2*
G04 #@! TO.N,Net-(J1-GPIO3)*
X1766000Y4319000D03*
G04 #@! TD*
D11*
G04 #@! TO.P,R1,1*
G04 #@! TO.N,Net-(J1-GPIO9)*
X2500500Y743830D03*
D12*
G04 #@! TO.P,R1,2*
G04 #@! TO.N,GND*
X1484500Y743830D03*
G04 #@! TD*
D10*
G04 #@! TO.P,SW12,1,1*
G04 #@! TO.N,unconnected-(SW12-Pad1)*
X1512000Y11014000D03*
G04 #@! TO.P,SW12,2,2*
G04 #@! TO.N,Net-(J1-GPIO5)*
X1766000Y10379000D03*
G04 #@! TD*
D16*
G04 #@! TO.P,J1,1,GND*
G04 #@! TO.N,GND*
X1499400Y3371530D03*
D17*
G04 #@! TO.P,J1,2,GPIO1*
G04 #@! TO.N,/Lidar_RX*
X1245400Y3371530D03*
G04 #@! TO.P,J1,3,GPIO2*
G04 #@! TO.N,/Lidar_TX*
X991400Y3371530D03*
D18*
G04 #@! TO.P,J1,4,GPIO3*
G04 #@! TO.N,Net-(J1-GPIO3)*
X738000Y3371530D03*
G04 #@! TO.P,J1,5,GPIO4*
G04 #@! TO.N,Net-(J1-GPIO4)*
X484000Y3371530D03*
G04 #@! TO.P,J1,6,GPIO5*
G04 #@! TO.N,Net-(J1-GPIO5)*
X230000Y3371530D03*
G04 #@! TO.P,J1,7,GND*
G04 #@! TO.N,GND*
X-24000Y3371530D03*
G04 #@! TO.P,J1,8,UART2_TX*
G04 #@! TO.N,/FR_RX*
X-278000Y3371530D03*
G04 #@! TO.P,J1,9,UART2_RX*
G04 #@! TO.N,/FR_TX*
X-532000Y3371530D03*
G04 #@! TO.P,J1,10,GPIO8*
G04 #@! TO.N,Net-(J1-GPIO8)*
X-786000Y3371530D03*
G04 #@! TO.P,J1,11,GPIO9*
G04 #@! TO.N,Net-(J1-GPIO9)*
X-1040000Y3371530D03*
G04 #@! TO.P,J1,12,REST*
G04 #@! TO.N,unconnected-(J1-REST-Pad12)*
X-1294000Y3371530D03*
G04 #@! TO.P,J1,13,3V3*
G04 #@! TO.N,unconnected-(J1-3V3-Pad13)*
X-1548000Y3371530D03*
G04 #@! TO.P,J1,14,GND*
G04 #@! TO.N,GND*
X-1802000Y3371530D03*
G04 #@! TO.P,J1,15,PWB*
G04 #@! TO.N,unconnected-(J1-PWB-Pad15)*
X-2056000Y3371530D03*
G04 #@! TO.P,J1,16,5V*
G04 #@! TO.N,+5V*
X-2310000Y3371530D03*
D16*
G04 #@! TO.P,J1,17,GND*
G04 #@! TO.N,GND*
X1499400Y1399130D03*
D17*
G04 #@! TO.P,J1,18,3v3*
G04 #@! TO.N,Net-(J1-3v3)*
X1245400Y1399130D03*
G04 #@! TO.P,J1,19,GPIO18*
G04 #@! TO.N,unconnected-(J1-GPIO18-Pad19)*
X991400Y1399130D03*
G04 #@! TO.P,J1,20,GPIO17*
G04 #@! TO.N,unconnected-(J1-GPIO17-Pad20)*
X737400Y1399130D03*
D18*
G04 #@! TO.P,J1,21,GPIO16*
G04 #@! TO.N,unconnected-(J1-GPIO16-Pad21)*
X484000Y1399130D03*
G04 #@! TO.P,J1,22,GPIO015*
G04 #@! TO.N,Net-(J1-GPIO015)*
X230000Y1399130D03*
D17*
G04 #@! TO.P,J1,23,GPIO014*
G04 #@! TO.N,/touch_pad*
X-24600Y1399130D03*
D18*
G04 #@! TO.P,J1,24,GPIO13*
G04 #@! TO.N,Net-(J1-GPIO13)*
X-278000Y1399130D03*
G04 #@! TO.P,J1,25,GND*
G04 #@! TO.N,GND*
X-532000Y1399130D03*
G04 #@! TO.P,J1,26,3V3*
G04 #@! TO.N,unconnected-(J1-3V3-Pad26)*
X-786000Y1399130D03*
G04 #@! TO.P,J1,27,GPIO12*
G04 #@! TO.N,Net-(J1-GPIO12)*
X-1040000Y1399130D03*
G04 #@! TO.P,J1,28,GPIO11*
G04 #@! TO.N,unconnected-(J1-GPIO11-Pad28)*
X-1294000Y1399130D03*
G04 #@! TO.P,J1,29,GPIO10*
G04 #@! TO.N,unconnected-(J1-GPIO10-Pad29)*
X-1548000Y1399130D03*
G04 #@! TO.P,J1,30,GPIO0*
G04 #@! TO.N,unconnected-(J1-GPIO0-Pad30)*
X-1802000Y1399130D03*
G04 #@! TO.P,J1,31,5V*
G04 #@! TO.N,unconnected-(J1-5V-Pad31)*
X-2056000Y1399130D03*
G04 #@! TO.P,J1,32,GND*
G04 #@! TO.N,GND*
X-2310000Y1399130D03*
G04 #@! TD*
D14*
G04 #@! TO.P,J2,1,Pin_1*
G04 #@! TO.N,GND*
X2564000Y2648830D03*
D15*
G04 #@! TO.P,J2,2,Pin_2*
G04 #@! TO.N,/FR_TX*
X2564000Y2902830D03*
G04 #@! TO.P,J2,3,Pin_3*
G04 #@! TO.N,/FR_RX*
X2564000Y3156830D03*
G04 #@! TO.P,J2,4,Pin_4*
G04 #@! TO.N,+5V*
X2564000Y3410830D03*
G04 #@! TD*
D19*
G04 #@! TO.N,/touch_pad*
X-1944500Y299330D03*
D20*
G04 #@! TO.N,GND*
X-1675000Y12535000D03*
X1675000Y12535000D03*
D21*
X849500Y12634500D03*
D22*
G04 #@! TO.N,Net-(J1-GPIO4)*
X532000Y3982330D03*
X532000Y4680830D03*
G04 #@! TO.N,Net-(J1-GPIO5)*
X278000Y4172830D03*
G04 #@! TO.N,Net-(J1-GPIO015)*
X1738500Y1061330D03*
G04 #@! TO.N,/Lidar_RX*
X1230500Y2775830D03*
G04 #@! TO.N,/FR_TX*
X103500Y3641880D03*
G04 #@! TD*
D23*
G04 #@! TO.N,+5V*
X2183000Y3791830D02*
X-2135000Y3791830D01*
X-2135000Y3791830D02*
X-2310000Y3616830D01*
X-2310000Y3616830D02*
X-2310000Y3274330D01*
X2564000Y3410830D02*
X2183000Y3791830D01*
G04 #@! TO.N,GND*
X1802000Y2648830D02*
X1500000Y2950830D01*
X-2310000Y1496330D02*
X-1802000Y2004330D01*
D24*
X-2310000Y1036830D02*
X-2310000Y1496330D01*
D23*
X-1802000Y2004330D02*
X-1802000Y3274330D01*
X1500000Y759330D02*
X1484500Y743830D01*
X-532000Y2766330D02*
X-532000Y1496330D01*
D25*
X786000Y362830D02*
X786000Y383997D01*
D23*
X-24000Y3274330D02*
X-532000Y2766330D01*
X2110000Y1496330D02*
X1500000Y1496330D01*
D24*
X-2017000Y743830D02*
X-2310000Y1036830D01*
X-1563500Y743830D02*
X-1224833Y743830D01*
D23*
X2564000Y1950330D02*
X2110000Y1496330D01*
D25*
X-843833Y362830D02*
X786000Y362830D01*
D23*
X1500000Y2950830D02*
X1500000Y3274330D01*
D24*
X-1563500Y743830D02*
X-2017000Y743830D01*
D25*
X786000Y383997D02*
X1145833Y743830D01*
D23*
X2564000Y2648830D02*
X1802000Y2648830D01*
D24*
X1145833Y743830D02*
X1484500Y743830D01*
D25*
X-1224833Y743830D02*
X-843833Y362830D01*
D23*
X1500000Y1496330D02*
X1500000Y759330D01*
D26*
G04 #@! TO.N,Net-(J1-GPIO4)*
X532000Y4680830D02*
X532000Y3982330D01*
G04 #@! TO.N,Net-(J1-GPIO5)*
X405000Y6998000D02*
X1766000Y8359000D01*
X405000Y4299830D02*
X405000Y6998000D01*
X278000Y4172830D02*
X405000Y4299830D01*
D23*
G04 #@! TO.N,Net-(J1-3v3)*
X2564000Y2204330D02*
X1637750Y2204330D01*
X1246000Y1812580D02*
X1246000Y1496330D01*
X1637750Y2204330D02*
X1246000Y1812580D01*
D24*
G04 #@! TO.N,Net-(J1-GPIO12)*
X-39500Y553330D02*
X-611000Y553330D01*
X-611000Y553330D02*
X-1040000Y982330D01*
X-1040000Y982330D02*
X-1040000Y1496330D01*
X129833Y743830D02*
X151000Y743830D01*
X151000Y743830D02*
X-39500Y553330D01*
G04 #@! TO.N,Net-(J1-GPIO015)*
X2056000Y1188330D02*
X1929000Y1061330D01*
X1929000Y1061330D02*
X1738500Y1061330D01*
X2564000Y1188330D02*
X2056000Y1188330D01*
G04 #@! TO.N,/Lidar_RX*
X1230500Y2775830D02*
X1230500Y3258830D01*
X1230500Y3258830D02*
X1246000Y3274330D01*
G04 #@! TO.N,/FR_RX*
X-51000Y3716830D02*
X-278000Y3489830D01*
X-278000Y3489830D02*
X-278000Y3274330D01*
X2004000Y3716830D02*
X-51000Y3716830D01*
X2564000Y3156830D02*
X2004000Y3716830D01*
G04 #@! TO.N,/FR_TX*
X1824950Y3641880D02*
X2564000Y2902830D01*
X103500Y3641880D02*
X1824950Y3641880D01*
G04 #@! TO.N,Net-(J1-GPIO8)*
X-208833Y743830D02*
X-652000Y1186997D01*
X-652000Y3140330D02*
X-786000Y3274330D01*
X-652000Y1186997D02*
X-652000Y3140330D01*
G04 #@! TD*
G04 #@! TA.AperFunction,Conductor*
G04 #@! TO.N,+5V*
G36*
X-2321549Y3659350D02*
G01*
X-2266424Y3604225D01*
X-2266143Y3603772D01*
X-2231599Y3501637D01*
X-2231601Y3500880D01*
X-2308927Y3277564D01*
X-2309521Y3276894D01*
X-2310415Y3276841D01*
X-2311085Y3277435D01*
X-2311146Y3277587D01*
X-2383388Y3501258D01*
X-2384933Y3506043D01*
X-2384904Y3506840D01*
X-2323461Y3658961D01*
X-2322833Y3659599D01*
X-2321938Y3659607D01*
X-2321549Y3659350D01*
G37*
G04 #@! TD.AperFunction*
G04 #@! TD*
G04 #@! TA.AperFunction,Conductor*
G04 #@! TO.N,GND*
G36*
X-1593666Y816659D02*
G01*
X-1593650Y816623D01*
X-1563587Y744279D01*
X-1563586Y743384D01*
X-1563586Y743381D01*
X-1563587Y743381D01*
X-1593650Y671037D01*
X-1594284Y670404D01*
X-1595180Y670405D01*
X-1595216Y670421D01*
X-1722815Y728518D01*
X-1723426Y729173D01*
X-1723500Y729583D01*
X-1723500Y758077D01*
X-1723157Y758904D01*
X-1722815Y759142D01*
X-1595215Y817239D01*
X-1594321Y817270D01*
X-1593666Y816659D01*
G37*
G04 #@! TD.AperFunction*
G04 #@! TD*
G04 #@! TA.AperFunction,Conductor*
G04 #@! TO.N,GND*
G36*
X1090096Y799541D02*
G01*
X1090262Y799404D01*
X1145905Y743900D01*
X1201407Y688258D01*
X1201749Y687431D01*
X1201405Y686604D01*
X1201240Y686466D01*
X1068853Y595886D01*
X1067977Y595702D01*
X1067365Y596024D01*
X998027Y665362D01*
X997685Y666189D01*
X997889Y666850D01*
X1011311Y686466D01*
X1088470Y799237D01*
X1089220Y799726D01*
X1090096Y799541D01*
G37*
G04 #@! TD.AperFunction*
G04 #@! TD*
G04 #@! TA.AperFunction,Conductor*
G04 #@! TO.N,GND*
G36*
X-2217449Y1644195D02*
G01*
X-2162104Y1588850D01*
X-2161761Y1588023D01*
X-2161884Y1587500D01*
X-2224513Y1462096D01*
X-2225190Y1461509D01*
X-2226007Y1461538D01*
X-2309622Y1496074D01*
X-2310255Y1496706D01*
X-2342132Y1573901D01*
X-2342132Y1574797D01*
X-2341625Y1575368D01*
X-2218849Y1644388D01*
X-2217960Y1644494D01*
X-2217449Y1644195D01*
G37*
G04 #@! TD.AperFunction*
G04 #@! TD*
G04 #@! TA.AperFunction,Conductor*
G04 #@! TO.N,GND*
G36*
X1177513Y817255D02*
G01*
X1177546Y817240D01*
X1305148Y759142D01*
X1305759Y758487D01*
X1305833Y758077D01*
X1305833Y729583D01*
X1305491Y728755D01*
X1305148Y728518D01*
X1177549Y670421D01*
X1176654Y670390D01*
X1175999Y671001D01*
X1175985Y671033D01*
X1145920Y743381D01*
X1145919Y744276D01*
X1175984Y816623D01*
X1176618Y817256D01*
X1177513Y817255D01*
G37*
G04 #@! TD.AperFunction*
G04 #@! TD*
G04 #@! TA.AperFunction,Conductor*
G04 #@! TO.N,Net-(J1-GPIO8)*
G36*
X-701282Y3309051D02*
G01*
X-700650Y3308417D01*
X-700616Y3308323D01*
X-655400Y3165406D01*
X-655477Y3164514D01*
X-655688Y3164226D01*
X-675870Y3144044D01*
X-676697Y3143702D01*
X-677101Y3143773D01*
X-817386Y3195380D01*
X-818044Y3195987D01*
X-818080Y3196882D01*
X-818064Y3196925D01*
X-786256Y3273952D01*
X-785624Y3274585D01*
X-702178Y3309052D01*
X-701282Y3309051D01*
G37*
G04 #@! TD.AperFunction*
G04 #@! TD*
G04 #@! TA.AperFunction,Conductor*
G04 #@! TO.N,Net-(J1-GPIO5)*
G36*
X1664969Y8397777D02*
G01*
X1765583Y8359257D01*
X1766233Y8358642D01*
X1766257Y8358583D01*
X1804776Y8257970D01*
X1804752Y8257075D01*
X1804102Y8256459D01*
X1804028Y8256434D01*
X1627020Y8201876D01*
X1626128Y8201960D01*
X1625848Y8202167D01*
X1609167Y8218848D01*
X1608824Y8219675D01*
X1608876Y8220019D01*
X1663434Y8397029D01*
X1664005Y8397718D01*
X1664896Y8397802D01*
X1664969Y8397777D01*
G37*
G04 #@! TD.AperFunction*
G04 #@! TD*
G04 #@! TA.AperFunction,Conductor*
G04 #@! TO.N,GND*
G36*
X1585762Y1580929D02*
G01*
X1669974Y1536659D01*
X1670547Y1535970D01*
X1670600Y1535623D01*
X1670600Y1457032D01*
X1670257Y1456205D01*
X1669980Y1456000D01*
X1585767Y1411139D01*
X1584876Y1411052D01*
X1584387Y1411346D01*
X1539790Y1456205D01*
X1500723Y1495502D01*
X1500383Y1496330D01*
X1500726Y1497155D01*
X1584391Y1580722D01*
X1585218Y1581064D01*
X1585762Y1580929D01*
G37*
G04 #@! TD.AperFunction*
G04 #@! TD*
G04 #@! TA.AperFunction,Conductor*
G04 #@! TO.N,/FR_TX*
G36*
X2455100Y3033386D02*
G01*
X2587129Y2984817D01*
X2595386Y2981780D01*
X2596044Y2981172D01*
X2596080Y2980278D01*
X2596064Y2980235D01*
X2564256Y2903208D01*
X2563624Y2902575D01*
X2563621Y2902574D01*
X2486595Y2870766D01*
X2485699Y2870767D01*
X2485067Y2871401D01*
X2485050Y2871444D01*
X2473365Y2903208D01*
X2433444Y3011729D01*
X2433480Y3012624D01*
X2433714Y3012960D01*
X2453870Y3033116D01*
X2454697Y3033458D01*
X2455100Y3033386D01*
G37*
G04 #@! TD.AperFunction*
G04 #@! TD*
G04 #@! TA.AperFunction,Conductor*
G04 #@! TO.N,GND*
G36*
X-1801552Y3274244D02*
G01*
X-1724428Y3242200D01*
X-1723795Y3241566D01*
X-1723750Y3240803D01*
X-1761761Y3105184D01*
X-1762314Y3104480D01*
X-1762887Y3104330D01*
X-1841113Y3104330D01*
X-1841940Y3104673D01*
X-1842239Y3105184D01*
X-1880250Y3240803D01*
X-1880143Y3241692D01*
X-1879572Y3242200D01*
X-1802449Y3274243D01*
X-1801553Y3274244D01*
X-1801552Y3274244D01*
G37*
G04 #@! TD.AperFunction*
G04 #@! TD*
G04 #@! TA.AperFunction,Conductor*
G04 #@! TO.N,GND*
G36*
X1500825Y3273604D02*
G01*
X1584391Y3189939D01*
X1584734Y3189112D01*
X1584599Y3188568D01*
X1540329Y3104355D01*
X1539641Y3103783D01*
X1539293Y3103730D01*
X1460702Y3103730D01*
X1459875Y3104073D01*
X1459670Y3104350D01*
X1414809Y3188563D01*
X1414722Y3189454D01*
X1415016Y3189942D01*
X1499172Y3273607D01*
X1500000Y3273947D01*
X1500825Y3273604D01*
G37*
G04 #@! TD.AperFunction*
G04 #@! TD*
G04 #@! TA.AperFunction,Conductor*
G04 #@! TO.N,GND*
G36*
X1454334Y816659D02*
G01*
X1454349Y816623D01*
X1484413Y744279D01*
X1484414Y743384D01*
X1484413Y743381D01*
X1484413Y743381D01*
X1454349Y671037D01*
X1453716Y670404D01*
X1452820Y670405D01*
X1452784Y670421D01*
X1325185Y728518D01*
X1324574Y729173D01*
X1324500Y729583D01*
X1324500Y758077D01*
X1324843Y758904D01*
X1325185Y759142D01*
X1452784Y817239D01*
X1453679Y817270D01*
X1454334Y816659D01*
G37*
G04 #@! TD.AperFunction*
G04 #@! TD*
G04 #@! TA.AperFunction,Conductor*
G04 #@! TO.N,GND*
G36*
X1501029Y1492970D02*
G01*
X1501115Y1492762D01*
X1584860Y1217390D01*
X1584776Y1216505D01*
X1540329Y1131956D01*
X1539641Y1131383D01*
X1539293Y1131330D01*
X1460702Y1131330D01*
X1459875Y1131673D01*
X1459670Y1131950D01*
X1446608Y1156470D01*
X1414628Y1216502D01*
X1414542Y1217393D01*
X1498877Y1492764D01*
X1499447Y1493455D01*
X1500339Y1493540D01*
X1501029Y1492970D01*
G37*
G04 #@! TD.AperFunction*
G04 #@! TD*
G04 #@! TA.AperFunction,Conductor*
G04 #@! TO.N,Net-(J1-GPIO12)*
G36*
X-1038948Y1493362D02*
G01*
X-1038894Y1493233D01*
X-961624Y1269847D01*
X-961668Y1268974D01*
X-1024686Y1132609D01*
X-1025344Y1132002D01*
X-1025748Y1131930D01*
X-1054252Y1131930D01*
X-1055079Y1132273D01*
X-1055314Y1132609D01*
X-1118332Y1268974D01*
X-1118376Y1269847D01*
X-1041106Y1493233D01*
X-1040511Y1493903D01*
X-1039617Y1493957D01*
X-1038948Y1493362D01*
G37*
G04 #@! TD.AperFunction*
G04 #@! TD*
G04 #@! TA.AperFunction,Conductor*
G04 #@! TO.N,GND*
G36*
X2486428Y1982462D02*
G01*
X2563622Y1950586D01*
X2564255Y1949954D01*
X2564256Y1949951D01*
X2596132Y1872758D01*
X2596131Y1871863D01*
X2595624Y1871292D01*
X2472849Y1802272D01*
X2471960Y1802166D01*
X2471449Y1802465D01*
X2416135Y1857779D01*
X2415792Y1858606D01*
X2415942Y1859179D01*
X2484962Y1981954D01*
X2485666Y1982507D01*
X2486428Y1982462D01*
G37*
G04 #@! TD.AperFunction*
G04 #@! TD*
G04 #@! TA.AperFunction,Conductor*
G04 #@! TO.N,GND*
G36*
X1539826Y900404D02*
G01*
X1540154Y899757D01*
X1564289Y745179D01*
X1564078Y744308D01*
X1563314Y743842D01*
X1563135Y743828D01*
X1484734Y743730D01*
X1484284Y743820D01*
X1463103Y752622D01*
X1411648Y774005D01*
X1411015Y774639D01*
X1411007Y775512D01*
X1459709Y900003D01*
X1460330Y900649D01*
X1460799Y900747D01*
X1538998Y900747D01*
X1539826Y900404D01*
G37*
G04 #@! TD.AperFunction*
G04 #@! TD*
G04 #@! TA.AperFunction,Conductor*
G04 #@! TO.N,Net-(J1-3v3)*
G36*
X1285938Y1666468D02*
G01*
X1286238Y1665954D01*
X1324206Y1529488D01*
X1324097Y1528600D01*
X1323523Y1528093D01*
X1246441Y1496411D01*
X1245558Y1496409D01*
X1167292Y1528093D01*
X1166654Y1528721D01*
X1166606Y1529500D01*
X1205757Y1665963D01*
X1206314Y1666664D01*
X1206882Y1666811D01*
X1285111Y1666811D01*
X1285938Y1666468D01*
G37*
G04 #@! TD.AperFunction*
G04 #@! TD*
G04 #@! TA.AperFunction,Conductor*
G04 #@! TO.N,GND*
G36*
X-1167607Y799402D02*
G01*
X-1167470Y799236D01*
X-1076890Y666850D01*
X-1076705Y665973D01*
X-1077028Y665362D01*
X-1146365Y596024D01*
X-1147192Y595682D01*
X-1147853Y595886D01*
X-1280240Y686466D01*
X-1280729Y687216D01*
X-1280545Y688093D01*
X-1280408Y688258D01*
X-1224904Y743901D01*
X-1169262Y799404D01*
X-1168434Y799746D01*
X-1167607Y799402D01*
G37*
G04 #@! TD.AperFunction*
G04 #@! TD*
G04 #@! TA.AperFunction,Conductor*
G04 #@! TO.N,GND*
G36*
X-2308948Y1493362D02*
G01*
X-2308894Y1493233D01*
X-2231624Y1269847D01*
X-2231668Y1268974D01*
X-2294686Y1132609D01*
X-2295344Y1132002D01*
X-2295748Y1131930D01*
X-2324252Y1131930D01*
X-2325079Y1132273D01*
X-2325314Y1132609D01*
X-2388332Y1268974D01*
X-2388376Y1269847D01*
X-2311106Y1493233D01*
X-2310511Y1493903D01*
X-2309618Y1493957D01*
X-2308948Y1493362D01*
G37*
G04 #@! TD.AperFunction*
G04 #@! TD*
G04 #@! TA.AperFunction,Conductor*
G04 #@! TO.N,GND*
G36*
X-1531820Y817255D02*
G01*
X-1531787Y817240D01*
X-1404185Y759142D01*
X-1403574Y758487D01*
X-1403500Y758077D01*
X-1403500Y729583D01*
X-1403843Y728755D01*
X-1404185Y728518D01*
X-1531784Y670421D01*
X-1532679Y670390D01*
X-1533334Y671001D01*
X-1533348Y671033D01*
X-1563414Y743381D01*
X-1563415Y744276D01*
X-1533349Y816623D01*
X-1532716Y817256D01*
X-1531820Y817255D01*
G37*
G04 #@! TD.AperFunction*
G04 #@! TD*
G04 #@! TA.AperFunction,Conductor*
G04 #@! TO.N,/Lidar_RX*
G36*
X1246441Y3274248D02*
G01*
X1323241Y3242683D01*
X1323876Y3242051D01*
X1323879Y3241156D01*
X1323807Y3241011D01*
X1245839Y3107274D01*
X1245126Y3106732D01*
X1244828Y3106694D01*
X1216320Y3106694D01*
X1215493Y3107036D01*
X1215220Y3107464D01*
X1166701Y3241112D01*
X1166741Y3242006D01*
X1167361Y3242595D01*
X1245558Y3274251D01*
X1246441Y3274248D01*
G37*
G04 #@! TD.AperFunction*
G04 #@! TD*
G04 #@! TA.AperFunction,Conductor*
G04 #@! TO.N,GND*
G36*
X-1255000Y816659D02*
G01*
X-1254984Y816623D01*
X-1224920Y744279D01*
X-1224919Y743384D01*
X-1224920Y743381D01*
X-1224920Y743381D01*
X-1254984Y671037D01*
X-1255618Y670404D01*
X-1256513Y670405D01*
X-1256549Y670421D01*
X-1384148Y728518D01*
X-1384759Y729173D01*
X-1384833Y729583D01*
X-1384833Y758077D01*
X-1384491Y758904D01*
X-1384148Y759142D01*
X-1256549Y817239D01*
X-1255654Y817270D01*
X-1255000Y816659D01*
G37*
G04 #@! TD.AperFunction*
G04 #@! TD*
G04 #@! TA.AperFunction,Conductor*
G04 #@! TO.N,+5V*
G36*
X2472849Y3558888D02*
G01*
X2517655Y3533699D01*
X2595624Y3489868D01*
X2596178Y3489164D01*
X2596132Y3488401D01*
X2564256Y3411208D01*
X2563624Y3410575D01*
X2563621Y3410574D01*
X2486429Y3378698D01*
X2485533Y3378698D01*
X2484962Y3379206D01*
X2423576Y3488401D01*
X2415942Y3501981D01*
X2415836Y3502870D01*
X2416135Y3503381D01*
X2471449Y3558695D01*
X2472276Y3559038D01*
X2472849Y3558888D01*
G37*
G04 #@! TD.AperFunction*
G04 #@! TD*
G04 #@! TA.AperFunction,Conductor*
G04 #@! TO.N,Net-(J1-GPIO8)*
G36*
X-310659Y867310D02*
G01*
X-179352Y818164D01*
X-178697Y817553D01*
X-178666Y816658D01*
X-178680Y816622D01*
X-208577Y744209D01*
X-209210Y743575D01*
X-209212Y743574D01*
X-281626Y713677D01*
X-282521Y713678D01*
X-283154Y714312D01*
X-283168Y714348D01*
X-321460Y816658D01*
X-332313Y845655D01*
X-332282Y846550D01*
X-332045Y846892D01*
X-311896Y867041D01*
X-311069Y867384D01*
X-310659Y867310D01*
G37*
G04 #@! TD.AperFunction*
G04 #@! TD*
G04 #@! TA.AperFunction,Conductor*
G04 #@! TO.N,/FR_RX*
G36*
X2455100Y3287386D02*
G01*
X2587129Y3238817D01*
X2595386Y3235780D01*
X2596044Y3235172D01*
X2596080Y3234278D01*
X2596064Y3234235D01*
X2564256Y3157208D01*
X2563624Y3156575D01*
X2563621Y3156574D01*
X2486595Y3124766D01*
X2485699Y3124767D01*
X2485067Y3125401D01*
X2485050Y3125444D01*
X2473365Y3157208D01*
X2433444Y3265729D01*
X2433480Y3266624D01*
X2433714Y3266960D01*
X2453870Y3287116D01*
X2454697Y3287458D01*
X2455100Y3287386D01*
G37*
G04 #@! TD.AperFunction*
G04 #@! TD*
G04 #@! TA.AperFunction,Conductor*
G04 #@! TO.N,Net-(J1-GPIO5)*
G36*
X326301Y4237666D02*
G01*
X342836Y4221131D01*
X343178Y4220304D01*
X343075Y4219823D01*
X315421Y4158554D01*
X314768Y4157941D01*
X313909Y4157953D01*
X278380Y4172574D01*
X277746Y4173205D01*
X277744Y4173210D01*
X263123Y4208739D01*
X263125Y4209634D01*
X263724Y4210251D01*
X324993Y4237905D01*
X325888Y4237933D01*
X326301Y4237666D01*
G37*
G04 #@! TD.AperFunction*
G04 #@! TD*
G04 #@! TA.AperFunction,Conductor*
G04 #@! TO.N,Net-(J1-3v3)*
G36*
X2479611Y2288720D02*
G01*
X2563271Y2205158D01*
X2563614Y2204331D01*
X2563272Y2203503D01*
X2563271Y2203502D01*
X2479611Y2119940D01*
X2478783Y2119598D01*
X2478237Y2119734D01*
X2394623Y2164000D01*
X2394052Y2164690D01*
X2394000Y2165034D01*
X2394000Y2243626D01*
X2394343Y2244453D01*
X2394622Y2244659D01*
X2478237Y2288926D01*
X2479128Y2289010D01*
X2479611Y2288720D01*
G37*
G04 #@! TD.AperFunction*
G04 #@! TD*
G04 #@! TA.AperFunction,Conductor*
G04 #@! TO.N,Net-(J1-GPIO015)*
G36*
X1817706Y1076599D02*
G01*
X1818379Y1076009D01*
X1818500Y1075492D01*
X1818500Y1047168D01*
X1818157Y1046341D01*
X1817706Y1046060D01*
X1754842Y1024726D01*
X1753949Y1024785D01*
X1753387Y1025384D01*
X1751718Y1029386D01*
X1738587Y1060880D01*
X1738585Y1061775D01*
X1753387Y1097276D01*
X1754021Y1097908D01*
X1754842Y1097934D01*
X1817706Y1076599D01*
G37*
G04 #@! TD.AperFunction*
G04 #@! TD*
G04 #@! TA.AperFunction,Conductor*
G04 #@! TO.N,Net-(J1-GPIO12)*
G36*
X57160Y773934D02*
G01*
X129454Y744086D01*
X130088Y743454D01*
X130089Y743451D01*
X160027Y670939D01*
X160026Y670043D01*
X159455Y669439D01*
X40740Y611971D01*
X39846Y611919D01*
X39403Y612196D01*
X19253Y632347D01*
X18910Y633174D01*
X18948Y633471D01*
X28382Y669439D01*
X55583Y773149D01*
X56124Y773862D01*
X57011Y773984D01*
X57160Y773934D01*
G37*
G04 #@! TD.AperFunction*
G04 #@! TD*
G04 #@! TA.AperFunction,Conductor*
G04 #@! TO.N,/FR_TX*
G36*
X182706Y3657149D02*
G01*
X183379Y3656559D01*
X183500Y3656041D01*
X183500Y3627718D01*
X183157Y3626891D01*
X182706Y3626610D01*
X119842Y3605276D01*
X118949Y3605335D01*
X118387Y3605934D01*
X116718Y3609936D01*
X103587Y3641430D01*
X103585Y3642325D01*
X118387Y3677826D01*
X119021Y3678458D01*
X119842Y3678484D01*
X182706Y3657149D01*
G37*
G04 #@! TD.AperFunction*
G04 #@! TD*
G04 #@! TA.AperFunction,Conductor*
G04 #@! TO.N,GND*
G36*
X-107993Y3309122D02*
G01*
X-24378Y3274586D01*
X-23745Y3273954D01*
X-23744Y3273951D01*
X8132Y3196758D01*
X8131Y3195863D01*
X7624Y3195292D01*
X-115151Y3126272D01*
X-116040Y3126166D01*
X-116551Y3126465D01*
X-171896Y3181810D01*
X-172239Y3182637D01*
X-172116Y3183160D01*
X-165325Y3196758D01*
X-109487Y3308564D01*
X-108810Y3309151D01*
X-107993Y3309122D01*
G37*
G04 #@! TD.AperFunction*
G04 #@! TD*
G04 #@! TA.AperFunction,Conductor*
G04 #@! TO.N,/Lidar_RX*
G36*
X1245489Y2855487D02*
G01*
X1245770Y2855036D01*
X1267104Y2792173D01*
X1267045Y2791279D01*
X1266446Y2790717D01*
X1230950Y2775918D01*
X1230055Y2775916D01*
X1217560Y2781125D01*
X1194554Y2790717D01*
X1193922Y2791351D01*
X1193896Y2792172D01*
X1215231Y2855036D01*
X1215821Y2855709D01*
X1216338Y2855830D01*
X1244662Y2855830D01*
X1245489Y2855487D01*
G37*
G04 #@! TD.AperFunction*
G04 #@! TD*
G04 #@! TA.AperFunction,Conductor*
G04 #@! TO.N,Net-(J1-GPIO015)*
G36*
X2531920Y1265778D02*
G01*
X2531939Y1265736D01*
X2563913Y1188779D01*
X2563914Y1187883D01*
X2563913Y1187881D01*
X2531939Y1110924D01*
X2531305Y1110291D01*
X2530409Y1110292D01*
X2530367Y1110311D01*
X2394679Y1173016D01*
X2394072Y1173674D01*
X2394000Y1174078D01*
X2394000Y1202582D01*
X2394343Y1203409D01*
X2394679Y1203644D01*
X2530367Y1266349D01*
X2531262Y1266385D01*
X2531920Y1265778D01*
G37*
G04 #@! TD.AperFunction*
G04 #@! TD*
G04 #@! TA.AperFunction,Conductor*
G04 #@! TO.N,GND*
G36*
X2479611Y2733220D02*
G01*
X2563271Y2649658D01*
X2563614Y2648831D01*
X2563272Y2648003D01*
X2563271Y2648002D01*
X2479611Y2564440D01*
X2478783Y2564098D01*
X2478237Y2564234D01*
X2394623Y2608500D01*
X2394052Y2609190D01*
X2394000Y2609534D01*
X2394000Y2688126D01*
X2394343Y2688953D01*
X2394622Y2689159D01*
X2478237Y2733426D01*
X2479128Y2733510D01*
X2479611Y2733220D01*
G37*
G04 #@! TD.AperFunction*
G04 #@! TD*
G04 #@! TA.AperFunction,Conductor*
G04 #@! TO.N,Net-(J1-GPIO4)*
G36*
X544519Y4061987D02*
G01*
X544786Y4061574D01*
X568555Y3998695D01*
X568527Y3997800D01*
X567911Y3997202D01*
X532450Y3982418D01*
X531555Y3982416D01*
X515455Y3989128D01*
X496089Y3997202D01*
X495457Y3997837D01*
X495445Y3998695D01*
X519214Y4061574D01*
X519827Y4062226D01*
X520308Y4062330D01*
X543692Y4062330D01*
X544519Y4061987D01*
G37*
G04 #@! TD.AperFunction*
G04 #@! TD*
G04 #@! TA.AperFunction,Conductor*
G04 #@! TO.N,GND*
G36*
X-492060Y1665987D02*
G01*
X-491761Y1665476D01*
X-453750Y1529856D01*
X-453857Y1528967D01*
X-454428Y1528460D01*
X-531551Y1496416D01*
X-532447Y1496416D01*
X-532449Y1496416D01*
X-609572Y1528460D01*
X-610205Y1529094D01*
X-610250Y1529856D01*
X-572240Y1665476D01*
X-571686Y1666180D01*
X-571113Y1666330D01*
X-492887Y1666330D01*
X-492060Y1665987D01*
G37*
G04 #@! TD.AperFunction*
G04 #@! TD*
G04 #@! TA.AperFunction,Conductor*
G04 #@! TO.N,Net-(J1-GPIO4)*
G36*
X567911Y4665958D02*
G01*
X568543Y4665323D01*
X568555Y4664464D01*
X544786Y4601586D01*
X544173Y4600934D01*
X543692Y4600830D01*
X520308Y4600830D01*
X519481Y4601173D01*
X519214Y4601586D01*
X495445Y4664464D01*
X495473Y4665359D01*
X496089Y4665958D01*
X531550Y4680742D01*
X532445Y4680744D01*
X567911Y4665958D01*
G37*
G04 #@! TD.AperFunction*
G04 #@! TD*
M02*
