G04 #@! TF.GenerationSoftware,KiCad,Pcbnew,7.0.5*
G04 #@! TF.CreationDate,2023-07-06T09:19:53+08:00*
G04 #@! TF.ProjectId,exMoudle,65784d6f-7564-46c6-952e-6b696361645f,rev?*
G04 #@! TF.SameCoordinates,PX4433b78PY969def3*
G04 #@! TF.FileFunction,Copper,L2,Bot*
G04 #@! TF.FilePolarity,Positive*
%FSLAX45Y45*%
G04 Gerber Fmt 4.5, Leading zero omitted, Abs format (unit mm)*
G04 Created by KiCad (PCBNEW 7.0.5) date 2023-07-06 09:19:53*
%MOMM*%
%LPD*%
G01*
G04 APERTURE LIST*
G04 #@! TA.AperFunction,ComponentPad*
%ADD10C,2.200000*%
G04 #@! TD*
G04 #@! TA.AperFunction,ComponentPad*
%ADD11C,1.600000*%
G04 #@! TD*
G04 #@! TA.AperFunction,ComponentPad*
%ADD12O,1.600000X1.600000*%
G04 #@! TD*
G04 #@! TA.AperFunction,ComponentPad*
%ADD13C,5.000000*%
G04 #@! TD*
G04 #@! TA.AperFunction,ComponentPad*
%ADD14R,1.700000X1.700000*%
G04 #@! TD*
G04 #@! TA.AperFunction,ComponentPad*
%ADD15O,1.700000X1.700000*%
G04 #@! TD*
G04 #@! TA.AperFunction,ComponentPad*
%ADD16R,1.712000X3.644000*%
G04 #@! TD*
G04 #@! TA.AperFunction,ComponentPad*
%ADD17O,1.712000X3.644000*%
G04 #@! TD*
G04 #@! TA.AperFunction,ComponentPad*
%ADD18O,1.700000X3.644000*%
G04 #@! TD*
G04 #@! TA.AperFunction,ViaPad*
%ADD19C,0.800000*%
G04 #@! TD*
G04 #@! TA.AperFunction,ViaPad*
%ADD20C,5.000000*%
G04 #@! TD*
G04 #@! TA.AperFunction,ViaPad*
%ADD21C,10.000000*%
G04 #@! TD*
G04 #@! TA.AperFunction,ViaPad*
%ADD22C,4.000000*%
G04 #@! TD*
G04 #@! TA.AperFunction,Conductor*
%ADD23C,0.800000*%
G04 #@! TD*
G04 #@! TA.AperFunction,Conductor*
%ADD24C,0.300000*%
G04 #@! TD*
G04 #@! TA.AperFunction,Conductor*
%ADD25C,1.000000*%
G04 #@! TD*
G04 #@! TA.AperFunction,Conductor*
%ADD26C,0.250000*%
G04 #@! TD*
G04 APERTURE END LIST*
D10*
G04 #@! TO.P,SW10,1,1*
G04 #@! TO.N,unconnected-(SW10-Pad1)*
X-2528000Y11014000D03*
G04 #@! TO.P,SW10,2,2*
G04 #@! TO.N,Net-(J1-GPIO5)*
X-2274000Y10379000D03*
G04 #@! TD*
G04 #@! TO.P,SW7,1,1*
G04 #@! TO.N,unconnected-(SW7-Pad1)*
X-2528000Y8994000D03*
G04 #@! TO.P,SW7,2,2*
G04 #@! TO.N,Net-(J1-GPIO4)*
X-2274000Y8359000D03*
G04 #@! TD*
D11*
G04 #@! TO.P,R3,1*
G04 #@! TO.N,GND*
X-1563500Y743830D03*
D12*
G04 #@! TO.P,R3,2*
G04 #@! TO.N,Net-(J1-GPIO13)*
X-2579500Y743830D03*
G04 #@! TD*
D13*
G04 #@! TO.P,REF\u002A\u002A,1*
G04 #@! TO.N,N/C*
X2500000Y13000000D03*
G04 #@! TD*
D10*
G04 #@! TO.P,SW9,1,1*
G04 #@! TO.N,unconnected-(SW9-Pad1)*
X1512000Y8994000D03*
G04 #@! TO.P,SW9,2,2*
G04 #@! TO.N,Net-(J1-GPIO5)*
X1766000Y8359000D03*
G04 #@! TD*
G04 #@! TO.P,SW6,1,1*
G04 #@! TO.N,unconnected-(SW6-Pad1)*
X1512000Y6974000D03*
G04 #@! TO.P,SW6,2,2*
G04 #@! TO.N,Net-(J1-GPIO4)*
X1766000Y6339000D03*
G04 #@! TD*
G04 #@! TO.P,SW1,1,1*
G04 #@! TO.N,unconnected-(SW1-Pad1)*
X-2528000Y4954000D03*
G04 #@! TO.P,SW1,2,2*
G04 #@! TO.N,Net-(J1-GPIO3)*
X-2274000Y4319000D03*
G04 #@! TD*
D11*
G04 #@! TO.P,R4,1*
G04 #@! TO.N,Net-(J1-GPIO8)*
X-208833Y743830D03*
D12*
G04 #@! TO.P,R4,2*
G04 #@! TO.N,GND*
X-1224833Y743830D03*
G04 #@! TD*
D10*
G04 #@! TO.P,SW11,1,1*
G04 #@! TO.N,unconnected-(SW11-Pad1)*
X-508000Y11014000D03*
G04 #@! TO.P,SW11,2,2*
G04 #@! TO.N,Net-(J1-GPIO5)*
X-254000Y10379000D03*
G04 #@! TD*
G04 #@! TO.P,SW4,1,1*
G04 #@! TO.N,unconnected-(SW4-Pad1)*
X-2528000Y6974000D03*
G04 #@! TO.P,SW4,2,2*
G04 #@! TO.N,Net-(J1-GPIO3)*
X-2274000Y6339000D03*
G04 #@! TD*
G04 #@! TO.P,SW5,1,1*
G04 #@! TO.N,unconnected-(SW5-Pad1)*
X-508000Y6974000D03*
G04 #@! TO.P,SW5,2,2*
G04 #@! TO.N,Net-(J1-GPIO4)*
X-254000Y6339000D03*
G04 #@! TD*
G04 #@! TO.P,SW8,1,1*
G04 #@! TO.N,unconnected-(SW8-Pad1)*
X-508000Y8994000D03*
G04 #@! TO.P,SW8,2,2*
G04 #@! TO.N,Net-(J1-GPIO4)*
X-254000Y8359000D03*
G04 #@! TD*
D11*
G04 #@! TO.P,R2,1*
G04 #@! TO.N,GND*
X1145833Y743830D03*
D12*
G04 #@! TO.P,R2,2*
G04 #@! TO.N,Net-(J1-GPIO12)*
X129833Y743830D03*
G04 #@! TD*
D13*
G04 #@! TO.P,REF\u002A\u002A,1*
G04 #@! TO.N,/touch_pad*
X-2500000Y300000D03*
G04 #@! TD*
G04 #@! TO.P,REF\u002A\u002A,1*
G04 #@! TO.N,N/C*
X2500000Y300000D03*
G04 #@! TD*
G04 #@! TO.P,REF\u002A\u002A,1*
G04 #@! TO.N,N/C*
X-2500000Y13000000D03*
G04 #@! TD*
D14*
G04 #@! TO.P,J3,1,Pin_1*
G04 #@! TO.N,Net-(J1-3v3)*
X2564000Y2204330D03*
D15*
G04 #@! TO.P,J3,2,Pin_2*
G04 #@! TO.N,GND*
X2564000Y1950330D03*
G04 #@! TO.P,J3,3,Pin_3*
G04 #@! TO.N,/Lidar_TX*
X2564000Y1696330D03*
G04 #@! TO.P,J3,4,Pin_4*
G04 #@! TO.N,/Lidar_RX*
X2564000Y1442330D03*
G04 #@! TO.P,J3,5,Pin_5*
G04 #@! TO.N,Net-(J1-GPIO015)*
X2564000Y1188330D03*
G04 #@! TD*
D10*
G04 #@! TO.P,SW2,1,1*
G04 #@! TO.N,unconnected-(SW2-Pad1)*
X-508000Y4954000D03*
G04 #@! TO.P,SW2,2,2*
G04 #@! TO.N,Net-(J1-GPIO3)*
X-254000Y4319000D03*
G04 #@! TD*
G04 #@! TO.P,SW3,1,1*
G04 #@! TO.N,unconnected-(SW3-Pad1)*
X1512000Y4954000D03*
G04 #@! TO.P,SW3,2,2*
G04 #@! TO.N,Net-(J1-GPIO3)*
X1766000Y4319000D03*
G04 #@! TD*
D11*
G04 #@! TO.P,R1,1*
G04 #@! TO.N,Net-(J1-GPIO9)*
X2500500Y743830D03*
D12*
G04 #@! TO.P,R1,2*
G04 #@! TO.N,GND*
X1484500Y743830D03*
G04 #@! TD*
D10*
G04 #@! TO.P,SW12,1,1*
G04 #@! TO.N,unconnected-(SW12-Pad1)*
X1512000Y11014000D03*
G04 #@! TO.P,SW12,2,2*
G04 #@! TO.N,Net-(J1-GPIO5)*
X1766000Y10379000D03*
G04 #@! TD*
D16*
G04 #@! TO.P,J1,1,GND*
G04 #@! TO.N,GND*
X1499400Y3371530D03*
D17*
G04 #@! TO.P,J1,2,GPIO1*
G04 #@! TO.N,/Lidar_RX*
X1245400Y3371530D03*
G04 #@! TO.P,J1,3,GPIO2*
G04 #@! TO.N,/Lidar_TX*
X991400Y3371530D03*
D18*
G04 #@! TO.P,J1,4,GPIO3*
G04 #@! TO.N,Net-(J1-GPIO3)*
X738000Y3371530D03*
G04 #@! TO.P,J1,5,GPIO4*
G04 #@! TO.N,Net-(J1-GPIO4)*
X484000Y3371530D03*
G04 #@! TO.P,J1,6,GPIO5*
G04 #@! TO.N,Net-(J1-GPIO5)*
X230000Y3371530D03*
G04 #@! TO.P,J1,7,GND*
G04 #@! TO.N,GND*
X-24000Y3371530D03*
G04 #@! TO.P,J1,8,UART2_TX*
G04 #@! TO.N,/FR_RX*
X-278000Y3371530D03*
G04 #@! TO.P,J1,9,UART2_RX*
G04 #@! TO.N,/FR_TX*
X-532000Y3371530D03*
G04 #@! TO.P,J1,10,GPIO8*
G04 #@! TO.N,Net-(J1-GPIO8)*
X-786000Y3371530D03*
G04 #@! TO.P,J1,11,GPIO9*
G04 #@! TO.N,Net-(J1-GPIO9)*
X-1040000Y3371530D03*
G04 #@! TO.P,J1,12,REST*
G04 #@! TO.N,unconnected-(J1-REST-Pad12)*
X-1294000Y3371530D03*
G04 #@! TO.P,J1,13,3V3*
G04 #@! TO.N,unconnected-(J1-3V3-Pad13)*
X-1548000Y3371530D03*
G04 #@! TO.P,J1,14,GND*
G04 #@! TO.N,GND*
X-1802000Y3371530D03*
G04 #@! TO.P,J1,15,PWB*
G04 #@! TO.N,unconnected-(J1-PWB-Pad15)*
X-2056000Y3371530D03*
G04 #@! TO.P,J1,16,5V*
G04 #@! TO.N,+5V*
X-2310000Y3371530D03*
D16*
G04 #@! TO.P,J1,17,GND*
G04 #@! TO.N,GND*
X1499400Y1399130D03*
D17*
G04 #@! TO.P,J1,18,3v3*
G04 #@! TO.N,Net-(J1-3v3)*
X1245400Y1399130D03*
G04 #@! TO.P,J1,19,GPIO18*
G04 #@! TO.N,unconnected-(J1-GPIO18-Pad19)*
X991400Y1399130D03*
G04 #@! TO.P,J1,20,GPIO17*
G04 #@! TO.N,unconnected-(J1-GPIO17-Pad20)*
X737400Y1399130D03*
D18*
G04 #@! TO.P,J1,21,GPIO16*
G04 #@! TO.N,unconnected-(J1-GPIO16-Pad21)*
X484000Y1399130D03*
G04 #@! TO.P,J1,22,GPIO015*
G04 #@! TO.N,Net-(J1-GPIO015)*
X230000Y1399130D03*
D17*
G04 #@! TO.P,J1,23,GPIO014*
G04 #@! TO.N,/touch_pad*
X-24600Y1399130D03*
D18*
G04 #@! TO.P,J1,24,GPIO13*
G04 #@! TO.N,Net-(J1-GPIO13)*
X-278000Y1399130D03*
G04 #@! TO.P,J1,25,GND*
G04 #@! TO.N,GND*
X-532000Y1399130D03*
G04 #@! TO.P,J1,26,3V3*
G04 #@! TO.N,unconnected-(J1-3V3-Pad26)*
X-786000Y1399130D03*
G04 #@! TO.P,J1,27,GPIO12*
G04 #@! TO.N,Net-(J1-GPIO12)*
X-1040000Y1399130D03*
G04 #@! TO.P,J1,28,GPIO11*
G04 #@! TO.N,unconnected-(J1-GPIO11-Pad28)*
X-1294000Y1399130D03*
G04 #@! TO.P,J1,29,GPIO10*
G04 #@! TO.N,unconnected-(J1-GPIO10-Pad29)*
X-1548000Y1399130D03*
G04 #@! TO.P,J1,30,GPIO0*
G04 #@! TO.N,unconnected-(J1-GPIO0-Pad30)*
X-1802000Y1399130D03*
G04 #@! TO.P,J1,31,5V*
G04 #@! TO.N,unconnected-(J1-5V-Pad31)*
X-2056000Y1399130D03*
G04 #@! TO.P,J1,32,GND*
G04 #@! TO.N,GND*
X-2310000Y1399130D03*
G04 #@! TD*
D14*
G04 #@! TO.P,J2,1,Pin_1*
G04 #@! TO.N,GND*
X2564000Y2648830D03*
D15*
G04 #@! TO.P,J2,2,Pin_2*
G04 #@! TO.N,/FR_TX*
X2564000Y2902830D03*
G04 #@! TO.P,J2,3,Pin_3*
G04 #@! TO.N,/FR_RX*
X2564000Y3156830D03*
G04 #@! TO.P,J2,4,Pin_4*
G04 #@! TO.N,+5V*
X2564000Y3410830D03*
G04 #@! TD*
D19*
G04 #@! TO.N,GND*
X-1563500Y4109330D03*
D20*
X-1675000Y12535000D03*
X1675000Y12535000D03*
D21*
X849500Y12634500D03*
D19*
G04 #@! TO.N,Net-(J1-GPIO4)*
X532000Y3982330D03*
X532000Y4680830D03*
G04 #@! TO.N,Net-(J1-GPIO5)*
X278000Y4172830D03*
G04 #@! TO.N,Net-(J1-GPIO015)*
X1738500Y1061330D03*
G04 #@! TO.N,/Lidar_RX*
X1230500Y2775830D03*
D22*
G04 #@! TO.N,/touch_pad*
X-1944500Y299330D03*
D19*
G04 #@! TO.N,/FR_TX*
X103500Y3641880D03*
G04 #@! TD*
D23*
G04 #@! TO.N,GND*
X-1675000Y12348830D02*
X-1675000Y12535000D01*
X-1563500Y4109330D02*
X-1055500Y4617330D01*
X-1055500Y11729330D02*
X-1675000Y12348830D01*
X-1055500Y4617330D02*
X-1055500Y11729330D01*
G04 #@! TO.N,+5V*
X2183000Y3791830D02*
X-2135000Y3791830D01*
X-2135000Y3791830D02*
X-2310000Y3616830D01*
X-2310000Y3616830D02*
X-2310000Y3274330D01*
X2564000Y3410830D02*
X2183000Y3791830D01*
G04 #@! TO.N,GND*
X1802000Y2648830D02*
X1500000Y2950830D01*
X-2310000Y1496330D02*
X-1802000Y2004330D01*
D24*
X-2310000Y1036830D02*
X-2310000Y1496330D01*
D23*
X-1802000Y2004330D02*
X-1802000Y3274330D01*
X1500000Y759330D02*
X1484500Y743830D01*
X-532000Y2766330D02*
X-532000Y1496330D01*
D25*
X786000Y362830D02*
X786000Y383997D01*
D23*
X-24000Y3274330D02*
X-532000Y2766330D01*
X2110000Y1496330D02*
X1500000Y1496330D01*
D24*
X-2017000Y743830D02*
X-2310000Y1036830D01*
X-1563500Y743830D02*
X-1224833Y743830D01*
D23*
X2564000Y1950330D02*
X2110000Y1496330D01*
D25*
X-843833Y362830D02*
X786000Y362830D01*
D23*
X1500000Y2950830D02*
X1500000Y3274330D01*
D24*
X-1563500Y743830D02*
X-2017000Y743830D01*
D25*
X786000Y383997D02*
X1145833Y743830D01*
D23*
X2564000Y2648830D02*
X1802000Y2648830D01*
D24*
X1145833Y743830D02*
X1484500Y743830D01*
D25*
X-1224833Y743830D02*
X-843833Y362830D01*
D23*
X1500000Y1496330D02*
X1500000Y759330D01*
D26*
G04 #@! TO.N,Net-(J1-GPIO4)*
X532000Y4680830D02*
X532000Y3982330D01*
G04 #@! TO.N,Net-(J1-GPIO5)*
X405000Y6998000D02*
X1766000Y8359000D01*
X405000Y4299830D02*
X405000Y6998000D01*
X278000Y4172830D02*
X405000Y4299830D01*
D23*
G04 #@! TO.N,Net-(J1-3v3)*
X2564000Y2204330D02*
X1637750Y2204330D01*
X1246000Y1812580D02*
X1246000Y1496330D01*
X1637750Y2204330D02*
X1246000Y1812580D01*
D24*
G04 #@! TO.N,Net-(J1-GPIO12)*
X-39500Y553330D02*
X-611000Y553330D01*
X-611000Y553330D02*
X-1040000Y982330D01*
X-1040000Y982330D02*
X-1040000Y1496330D01*
X129833Y743830D02*
X151000Y743830D01*
X151000Y743830D02*
X-39500Y553330D01*
G04 #@! TO.N,Net-(J1-GPIO015)*
X2056000Y1188330D02*
X1929000Y1061330D01*
X1929000Y1061330D02*
X1738500Y1061330D01*
X2564000Y1188330D02*
X2056000Y1188330D01*
G04 #@! TO.N,/Lidar_RX*
X1230500Y2775830D02*
X1230500Y3258830D01*
X1230500Y3258830D02*
X1246000Y3274330D01*
G04 #@! TO.N,/FR_RX*
X-51000Y3716830D02*
X-278000Y3489830D01*
X-278000Y3489830D02*
X-278000Y3274330D01*
X2004000Y3716830D02*
X-51000Y3716830D01*
X2564000Y3156830D02*
X2004000Y3716830D01*
G04 #@! TO.N,/FR_TX*
X1824950Y3641880D02*
X2564000Y2902830D01*
X103500Y3641880D02*
X1824950Y3641880D01*
G04 #@! TO.N,Net-(J1-GPIO8)*
X-208833Y743830D02*
X-652000Y1186997D01*
X-652000Y3140330D02*
X-786000Y3274330D01*
X-652000Y1186997D02*
X-652000Y3140330D01*
G04 #@! TD*
M02*
