M48
; DRILL file {KiCad 7.0.5} date Thu Jul  6 09:19:56 2023
; FORMAT={-:-/ absolute / metric / decimal}
; #@! TF.CreationDate,2023-07-06T09:19:56+08:00
; #@! TF.GenerationSoftware,Kicad,Pcbnew,7.0.5
; #@! TF.FileFunction,Plated,1,2,PTH
FMAT,2
METRIC
; #@! TA.AperFunction,Plated,PTH,ViaDrill
T1C0.400
; #@! TA.AperFunction,Plated,PTH,ComponentDrill
T2C0.800
; #@! TA.AperFunction,Plated,PTH,ComponentDrill
T3C1.000
; #@! TA.AperFunction,Plated,PTH,ComponentDrill
T4C1.500
; #@! TA.AperFunction,Plated,PTH,ViaDrill
T5C2.500
; #@! TA.AperFunction,Plated,PTH,ComponentDrill
T6C3.000
; #@! TA.AperFunction,Plated,PTH,ViaDrill
T7C3.500
; #@! TA.AperFunction,Plated,PTH,ViaDrill
T8C8.000
%
G90
G05
T1
X-15.635Y41.093
X1.035Y36.419
X2.78Y41.728
X5.32Y46.808
X5.32Y39.823
X12.305Y27.758
X17.385Y10.613
T2
X-25.795Y7.438
X-15.635Y7.438
X-12.248Y7.438
X-2.088Y7.438
X1.298Y7.438
X11.458Y7.438
X14.845Y7.438
X25.005Y7.438
T3
X-23.1Y32.743
X-23.1Y14.963
X-20.56Y32.743
X-20.56Y14.963
X-18.02Y32.743
X-18.02Y14.963
X-15.48Y32.743
X-15.48Y14.963
X-12.94Y32.743
X-12.94Y14.963
X-10.4Y32.743
X-10.4Y14.963
X-7.86Y32.743
X-7.86Y14.963
X-5.32Y32.743
X-5.32Y14.963
X-2.78Y32.743
X-2.78Y14.963
X-0.24Y32.743
X-0.24Y14.963
X2.3Y32.743
X2.3Y14.963
X4.84Y32.743
X4.84Y14.963
X7.38Y32.743
X7.38Y14.963
X9.92Y32.743
X9.92Y14.963
X12.46Y32.743
X12.46Y14.963
X15.0Y32.743
X15.0Y14.963
X25.64Y34.108
X25.64Y31.568
X25.64Y29.028
X25.64Y26.488
X25.64Y22.043
X25.64Y19.503
X25.64Y16.963
X25.64Y14.423
X25.64Y11.883
T4
X-25.28Y110.14
X-25.28Y89.94
X-25.28Y69.74
X-25.28Y49.54
X-22.74Y103.79
X-22.74Y83.59
X-22.74Y63.39
X-22.74Y43.19
X-5.08Y110.14
X-5.08Y89.94
X-5.08Y69.74
X-5.08Y49.54
X-2.54Y103.79
X-2.54Y83.59
X-2.54Y63.39
X-2.54Y43.19
X15.12Y110.14
X15.12Y89.94
X15.12Y69.74
X15.12Y49.54
X17.66Y103.79
X17.66Y83.59
X17.66Y63.39
X17.66Y43.19
T5
X-19.445Y2.993
T6
X-25.0Y130.0
X-25.0Y3.0
X25.0Y130.0
X25.0Y3.0
T7
X-16.75Y125.35
X16.75Y125.35
T8
X8.495Y126.345
T0
M30
