G04 #@! TF.GenerationSoftware,KiCad,Pcbnew,7.0.5*
G04 #@! TF.CreationDate,2023-07-05T20:45:45+08:00*
G04 #@! TF.ProjectId,exMoudle,65784d6f-7564-46c6-952e-6b696361645f,rev?*
G04 #@! TF.SameCoordinates,PX4433b78PY969def3*
G04 #@! TF.FileFunction,Copper,L1,Top*
G04 #@! TF.FilePolarity,Positive*
%FSLAX45Y45*%
G04 Gerber Fmt 4.5, Leading zero omitted, Abs format (unit mm)*
G04 Created by KiCad (PCBNEW 7.0.5) date 2023-07-05 20:45:45*
%MOMM*%
%LPD*%
G01*
G04 APERTURE LIST*
G04 #@! TA.AperFunction,ComponentPad*
%ADD10C,2.200000*%
G04 #@! TD*
G04 #@! TA.AperFunction,ComponentPad*
%ADD11C,1.600000*%
G04 #@! TD*
G04 #@! TA.AperFunction,ComponentPad*
%ADD12O,1.600000X1.600000*%
G04 #@! TD*
G04 #@! TA.AperFunction,ComponentPad*
%ADD13C,5.000000*%
G04 #@! TD*
G04 #@! TA.AperFunction,ComponentPad*
%ADD14R,1.700000X1.700000*%
G04 #@! TD*
G04 #@! TA.AperFunction,ComponentPad*
%ADD15O,1.700000X1.700000*%
G04 #@! TD*
G04 #@! TA.AperFunction,ComponentPad*
%ADD16R,1.712000X3.644000*%
G04 #@! TD*
G04 #@! TA.AperFunction,ComponentPad*
%ADD17O,1.712000X3.644000*%
G04 #@! TD*
G04 #@! TA.AperFunction,ComponentPad*
%ADD18O,1.700000X3.644000*%
G04 #@! TD*
G04 #@! TA.AperFunction,ViaPad*
%ADD19C,4.000000*%
G04 #@! TD*
G04 #@! TA.AperFunction,ViaPad*
%ADD20C,5.000000*%
G04 #@! TD*
G04 #@! TA.AperFunction,ViaPad*
%ADD21C,10.000000*%
G04 #@! TD*
G04 #@! TA.AperFunction,ViaPad*
%ADD22C,0.800000*%
G04 #@! TD*
G04 #@! TA.AperFunction,Conductor*
%ADD23C,0.800000*%
G04 #@! TD*
G04 #@! TA.AperFunction,Conductor*
%ADD24C,2.000000*%
G04 #@! TD*
G04 #@! TA.AperFunction,Conductor*
%ADD25C,1.000000*%
G04 #@! TD*
G04 #@! TA.AperFunction,Conductor*
%ADD26C,0.250000*%
G04 #@! TD*
G04 #@! TA.AperFunction,Conductor*
%ADD27C,0.300000*%
G04 #@! TD*
G04 APERTURE END LIST*
D10*
G04 #@! TO.P,SW10,1,1*
G04 #@! TO.N,unconnected-(SW10-Pad1)*
X-2528000Y11014000D03*
G04 #@! TO.P,SW10,2,2*
G04 #@! TO.N,Net-(J1-GPIO5)*
X-2274000Y10379000D03*
G04 #@! TD*
G04 #@! TO.P,SW7,1,1*
G04 #@! TO.N,unconnected-(SW7-Pad1)*
X-2528000Y8994000D03*
G04 #@! TO.P,SW7,2,2*
G04 #@! TO.N,Net-(J1-GPIO4)*
X-2274000Y8359000D03*
G04 #@! TD*
D11*
G04 #@! TO.P,R3,1*
G04 #@! TO.N,GND*
X-1563500Y743830D03*
D12*
G04 #@! TO.P,R3,2*
G04 #@! TO.N,Net-(J1-GPIO13)*
X-2579500Y743830D03*
G04 #@! TD*
D13*
G04 #@! TO.P,REF\u002A\u002A,1*
G04 #@! TO.N,N/C*
X2500000Y13000000D03*
G04 #@! TD*
D10*
G04 #@! TO.P,SW9,1,1*
G04 #@! TO.N,unconnected-(SW9-Pad1)*
X1512000Y8994000D03*
G04 #@! TO.P,SW9,2,2*
G04 #@! TO.N,Net-(J1-GPIO5)*
X1766000Y8359000D03*
G04 #@! TD*
G04 #@! TO.P,SW6,1,1*
G04 #@! TO.N,unconnected-(SW6-Pad1)*
X1512000Y6974000D03*
G04 #@! TO.P,SW6,2,2*
G04 #@! TO.N,Net-(J1-GPIO4)*
X1766000Y6339000D03*
G04 #@! TD*
G04 #@! TO.P,SW1,1,1*
G04 #@! TO.N,unconnected-(SW1-Pad1)*
X-2528000Y4954000D03*
G04 #@! TO.P,SW1,2,2*
G04 #@! TO.N,Net-(J1-GPIO3)*
X-2274000Y4319000D03*
G04 #@! TD*
D11*
G04 #@! TO.P,R4,1*
G04 #@! TO.N,Net-(J1-GPIO8)*
X-208833Y743830D03*
D12*
G04 #@! TO.P,R4,2*
G04 #@! TO.N,GND*
X-1224833Y743830D03*
G04 #@! TD*
D10*
G04 #@! TO.P,SW11,1,1*
G04 #@! TO.N,unconnected-(SW11-Pad1)*
X-508000Y11014000D03*
G04 #@! TO.P,SW11,2,2*
G04 #@! TO.N,Net-(J1-GPIO5)*
X-254000Y10379000D03*
G04 #@! TD*
G04 #@! TO.P,SW4,1,1*
G04 #@! TO.N,unconnected-(SW4-Pad1)*
X-2528000Y6974000D03*
G04 #@! TO.P,SW4,2,2*
G04 #@! TO.N,Net-(J1-GPIO3)*
X-2274000Y6339000D03*
G04 #@! TD*
G04 #@! TO.P,SW5,1,1*
G04 #@! TO.N,unconnected-(SW5-Pad1)*
X-508000Y6974000D03*
G04 #@! TO.P,SW5,2,2*
G04 #@! TO.N,Net-(J1-GPIO4)*
X-254000Y6339000D03*
G04 #@! TD*
G04 #@! TO.P,SW8,1,1*
G04 #@! TO.N,unconnected-(SW8-Pad1)*
X-508000Y8994000D03*
G04 #@! TO.P,SW8,2,2*
G04 #@! TO.N,Net-(J1-GPIO4)*
X-254000Y8359000D03*
G04 #@! TD*
D11*
G04 #@! TO.P,R2,1*
G04 #@! TO.N,GND*
X1145833Y743830D03*
D12*
G04 #@! TO.P,R2,2*
G04 #@! TO.N,Net-(J1-GPIO12)*
X129833Y743830D03*
G04 #@! TD*
D13*
G04 #@! TO.P,REF\u002A\u002A,1*
G04 #@! TO.N,/touch_pad*
X-2500000Y300000D03*
G04 #@! TD*
G04 #@! TO.P,REF\u002A\u002A,1*
G04 #@! TO.N,N/C*
X2500000Y300000D03*
G04 #@! TD*
G04 #@! TO.P,REF\u002A\u002A,1*
G04 #@! TO.N,N/C*
X-2500000Y13000000D03*
G04 #@! TD*
D14*
G04 #@! TO.P,J3,1,Pin_1*
G04 #@! TO.N,Net-(J1-3v3)*
X2564000Y2204330D03*
D15*
G04 #@! TO.P,J3,2,Pin_2*
G04 #@! TO.N,GND*
X2564000Y1950330D03*
G04 #@! TO.P,J3,3,Pin_3*
G04 #@! TO.N,/Lidar_TX*
X2564000Y1696330D03*
G04 #@! TO.P,J3,4,Pin_4*
G04 #@! TO.N,/Lidar_RX*
X2564000Y1442330D03*
G04 #@! TO.P,J3,5,Pin_5*
G04 #@! TO.N,Net-(J1-GPIO015)*
X2564000Y1188330D03*
G04 #@! TD*
D10*
G04 #@! TO.P,SW2,1,1*
G04 #@! TO.N,unconnected-(SW2-Pad1)*
X-508000Y4954000D03*
G04 #@! TO.P,SW2,2,2*
G04 #@! TO.N,Net-(J1-GPIO3)*
X-254000Y4319000D03*
G04 #@! TD*
G04 #@! TO.P,SW3,1,1*
G04 #@! TO.N,unconnected-(SW3-Pad1)*
X1512000Y4954000D03*
G04 #@! TO.P,SW3,2,2*
G04 #@! TO.N,Net-(J1-GPIO3)*
X1766000Y4319000D03*
G04 #@! TD*
D11*
G04 #@! TO.P,R1,1*
G04 #@! TO.N,Net-(J1-GPIO9)*
X2500500Y743830D03*
D12*
G04 #@! TO.P,R1,2*
G04 #@! TO.N,GND*
X1484500Y743830D03*
G04 #@! TD*
D10*
G04 #@! TO.P,SW12,1,1*
G04 #@! TO.N,unconnected-(SW12-Pad1)*
X1512000Y11014000D03*
G04 #@! TO.P,SW12,2,2*
G04 #@! TO.N,Net-(J1-GPIO5)*
X1766000Y10379000D03*
G04 #@! TD*
D16*
G04 #@! TO.P,J1,1,GND*
G04 #@! TO.N,GND*
X1499400Y3371530D03*
D17*
G04 #@! TO.P,J1,2,GPIO1*
G04 #@! TO.N,/Lidar_RX*
X1245400Y3371530D03*
G04 #@! TO.P,J1,3,GPIO2*
G04 #@! TO.N,/Lidar_TX*
X991400Y3371530D03*
D18*
G04 #@! TO.P,J1,4,GPIO3*
G04 #@! TO.N,Net-(J1-GPIO3)*
X738000Y3371530D03*
G04 #@! TO.P,J1,5,GPIO4*
G04 #@! TO.N,Net-(J1-GPIO4)*
X484000Y3371530D03*
G04 #@! TO.P,J1,6,GPIO5*
G04 #@! TO.N,Net-(J1-GPIO5)*
X230000Y3371530D03*
G04 #@! TO.P,J1,7,GND*
G04 #@! TO.N,GND*
X-24000Y3371530D03*
G04 #@! TO.P,J1,8,UART2_TX*
G04 #@! TO.N,/FR_RX*
X-278000Y3371530D03*
G04 #@! TO.P,J1,9,UART2_RX*
G04 #@! TO.N,/FR_TX*
X-532000Y3371530D03*
G04 #@! TO.P,J1,10,GPIO8*
G04 #@! TO.N,Net-(J1-GPIO8)*
X-786000Y3371530D03*
G04 #@! TO.P,J1,11,GPIO9*
G04 #@! TO.N,Net-(J1-GPIO9)*
X-1040000Y3371530D03*
G04 #@! TO.P,J1,12,REST*
G04 #@! TO.N,unconnected-(J1-REST-Pad12)*
X-1294000Y3371530D03*
G04 #@! TO.P,J1,13,3V3*
G04 #@! TO.N,unconnected-(J1-3V3-Pad13)*
X-1548000Y3371530D03*
G04 #@! TO.P,J1,14,GND*
G04 #@! TO.N,GND*
X-1802000Y3371530D03*
G04 #@! TO.P,J1,15,PWB*
G04 #@! TO.N,unconnected-(J1-PWB-Pad15)*
X-2056000Y3371530D03*
G04 #@! TO.P,J1,16,5V*
G04 #@! TO.N,+5V*
X-2310000Y3371530D03*
D16*
G04 #@! TO.P,J1,17,GND*
G04 #@! TO.N,GND*
X1499400Y1399130D03*
D17*
G04 #@! TO.P,J1,18,3v3*
G04 #@! TO.N,Net-(J1-3v3)*
X1245400Y1399130D03*
G04 #@! TO.P,J1,19,GPIO18*
G04 #@! TO.N,unconnected-(J1-GPIO18-Pad19)*
X991400Y1399130D03*
G04 #@! TO.P,J1,20,GPIO17*
G04 #@! TO.N,unconnected-(J1-GPIO17-Pad20)*
X737400Y1399130D03*
D18*
G04 #@! TO.P,J1,21,GPIO16*
G04 #@! TO.N,unconnected-(J1-GPIO16-Pad21)*
X484000Y1399130D03*
G04 #@! TO.P,J1,22,GPIO015*
G04 #@! TO.N,Net-(J1-GPIO015)*
X230000Y1399130D03*
D17*
G04 #@! TO.P,J1,23,GPIO014*
G04 #@! TO.N,/touch_pad*
X-24600Y1399130D03*
D18*
G04 #@! TO.P,J1,24,GPIO13*
G04 #@! TO.N,Net-(J1-GPIO13)*
X-278000Y1399130D03*
G04 #@! TO.P,J1,25,GND*
G04 #@! TO.N,GND*
X-532000Y1399130D03*
G04 #@! TO.P,J1,26,3V3*
G04 #@! TO.N,unconnected-(J1-3V3-Pad26)*
X-786000Y1399130D03*
G04 #@! TO.P,J1,27,GPIO12*
G04 #@! TO.N,Net-(J1-GPIO12)*
X-1040000Y1399130D03*
G04 #@! TO.P,J1,28,GPIO11*
G04 #@! TO.N,unconnected-(J1-GPIO11-Pad28)*
X-1294000Y1399130D03*
G04 #@! TO.P,J1,29,GPIO10*
G04 #@! TO.N,unconnected-(J1-GPIO10-Pad29)*
X-1548000Y1399130D03*
G04 #@! TO.P,J1,30,GPIO0*
G04 #@! TO.N,unconnected-(J1-GPIO0-Pad30)*
X-1802000Y1399130D03*
G04 #@! TO.P,J1,31,5V*
G04 #@! TO.N,unconnected-(J1-5V-Pad31)*
X-2056000Y1399130D03*
G04 #@! TO.P,J1,32,GND*
G04 #@! TO.N,GND*
X-2310000Y1399130D03*
G04 #@! TD*
D14*
G04 #@! TO.P,J2,1,Pin_1*
G04 #@! TO.N,GND*
X2564000Y2648830D03*
D15*
G04 #@! TO.P,J2,2,Pin_2*
G04 #@! TO.N,/FR_TX*
X2564000Y2902830D03*
G04 #@! TO.P,J2,3,Pin_3*
G04 #@! TO.N,/FR_RX*
X2564000Y3156830D03*
G04 #@! TO.P,J2,4,Pin_4*
G04 #@! TO.N,+5V*
X2564000Y3410830D03*
G04 #@! TD*
D19*
G04 #@! TO.N,/touch_pad*
X-1944500Y299330D03*
D20*
G04 #@! TO.N,GND*
X-1675000Y12535000D03*
X1675000Y12535000D03*
D21*
X849500Y12634500D03*
D22*
G04 #@! TO.N,Net-(J1-GPIO4)*
X532000Y3982330D03*
X532000Y4680830D03*
G04 #@! TO.N,Net-(J1-GPIO5)*
X278000Y4172830D03*
G04 #@! TO.N,Net-(J1-GPIO015)*
X1738500Y1061330D03*
G04 #@! TO.N,/Lidar_RX*
X1230500Y2775830D03*
G04 #@! TO.N,/FR_TX*
X103500Y3641880D03*
G04 #@! TD*
D23*
G04 #@! TO.N,/touch_pad*
X-1945170Y300000D02*
X-1944500Y299330D01*
X-2500000Y300000D02*
X-1945170Y300000D01*
X-39500Y680330D02*
X-39500Y1480830D01*
X-420500Y299330D02*
X-39500Y680330D01*
X-1944500Y299330D02*
X-420500Y299330D01*
X-39500Y1480830D02*
X-24000Y1496330D01*
D24*
G04 #@! TO.N,GND*
X849500Y12634500D02*
X1575500Y12634500D01*
D23*
X2310000Y2394830D02*
X2310000Y2077330D01*
X2564000Y2648830D02*
X2310000Y2394830D01*
X-1802000Y3488830D02*
X-2698000Y4384830D01*
D25*
X-532000Y1013330D02*
X-532000Y1496330D01*
D24*
X-1675000Y12535000D02*
X750000Y12535000D01*
D23*
X2310000Y2077330D02*
X2437000Y1950330D01*
X-2698000Y4384830D02*
X-2698000Y11512000D01*
X-2698000Y11512000D02*
X-1675000Y12535000D01*
D25*
X-801500Y743830D02*
X-532000Y1013330D01*
D23*
X-1802000Y3358830D02*
X-1802000Y3488830D01*
D25*
X-1224833Y743830D02*
X-801500Y743830D01*
D23*
X2437000Y1950330D02*
X2564000Y1950330D01*
D26*
G04 #@! TO.N,Net-(J1-GPIO4)*
X-254000Y6339000D02*
X532000Y5553000D01*
X-254000Y8359000D02*
X-2274000Y8359000D01*
X532000Y3982330D02*
X532000Y3322330D01*
X532000Y5553000D02*
X532000Y4680830D01*
X1766000Y6339000D02*
X-254000Y6339000D01*
X-254000Y8359000D02*
X-254000Y6339000D01*
X532000Y3322330D02*
X484000Y3274330D01*
G04 #@! TO.N,Net-(J1-GPIO5)*
X278000Y4172830D02*
X230000Y4124830D01*
X230000Y4124830D02*
X230000Y3274330D01*
X1766000Y10379000D02*
X1766000Y8359000D01*
X1766000Y10379000D02*
X-254000Y10379000D01*
X-2274000Y10379000D02*
X-254000Y10379000D01*
D27*
G04 #@! TO.N,Net-(J1-GPIO015)*
X230000Y1181830D02*
X230000Y1496330D01*
X1738500Y1061330D02*
X350500Y1061330D01*
X350500Y1061330D02*
X230000Y1181830D01*
G04 #@! TO.N,/Lidar_RX*
X2564000Y1442330D02*
X1230500Y2775830D01*
G04 #@! TO.N,/Lidar_TX*
X2564000Y1696330D02*
X992000Y3268330D01*
X992000Y3268330D02*
X992000Y3274330D01*
G04 #@! TO.N,Net-(J1-GPIO13)*
X-2452500Y616830D02*
X-801500Y616830D01*
X-801500Y616830D02*
X-278000Y1140330D01*
X-278000Y1140330D02*
X-278000Y1496330D01*
X-2579500Y743830D02*
X-2452500Y616830D01*
G04 #@! TO.N,/FR_TX*
X103500Y3641880D02*
X-409803Y3641880D01*
X-532000Y3489830D02*
X-532000Y3274330D01*
X-532000Y3519683D02*
X-532000Y3274330D01*
X-409803Y3641880D02*
X-532000Y3519683D01*
G04 #@! TO.N,Net-(J1-GPIO9)*
X24000Y1759830D02*
X-1040000Y2823830D01*
X2500500Y743830D02*
X1484500Y1759830D01*
X-1040000Y2823830D02*
X-1040000Y3274330D01*
X1484500Y1759830D02*
X24000Y1759830D01*
D26*
G04 #@! TO.N,Net-(J1-GPIO3)*
X1313170Y4319000D02*
X738000Y3743830D01*
X1766000Y4319000D02*
X1313170Y4319000D01*
X738000Y4030330D02*
X738000Y3446563D01*
X449330Y4319000D02*
X738000Y4030330D01*
X-2274000Y6339000D02*
X-2274000Y4319000D01*
X-254000Y4319000D02*
X449330Y4319000D01*
X738000Y3446563D02*
X738000Y3274330D01*
X738000Y3743830D02*
X738000Y3446563D01*
X-254000Y4319000D02*
X-2274000Y4319000D01*
G04 #@! TD*
G04 #@! TA.AperFunction,Conductor*
G04 #@! TO.N,Net-(J1-GPIO4)*
G36*
X-152075Y6377752D02*
G01*
X-151459Y6377102D01*
X-151434Y6377029D01*
X-139792Y6339257D01*
X-96876Y6200020D01*
X-96960Y6199129D01*
X-97167Y6198848D01*
X-113848Y6182167D01*
X-114675Y6181824D01*
X-115020Y6181876D01*
X-292028Y6236434D01*
X-292718Y6237005D01*
X-292802Y6237896D01*
X-292777Y6237969D01*
X-254257Y6338583D01*
X-253642Y6339233D01*
X-253587Y6339256D01*
X-152970Y6377776D01*
X-152075Y6377752D01*
G37*
G04 #@! TD.AperFunction*
G04 #@! TD*
G04 #@! TA.AperFunction,Conductor*
G04 #@! TO.N,Net-(J1-GPIO4)*
G36*
X-208435Y6438449D02*
G01*
X-208365Y6438415D01*
X-44623Y6351829D01*
X-44052Y6351140D01*
X-44000Y6350795D01*
X-44000Y6327205D01*
X-44343Y6326378D01*
X-44623Y6326171D01*
X-208365Y6239585D01*
X-209256Y6239501D01*
X-209946Y6240072D01*
X-209980Y6240142D01*
X-253887Y6338523D01*
X-253912Y6339418D01*
X-253889Y6339474D01*
X-209980Y6437858D01*
X-209330Y6438474D01*
X-208435Y6438449D01*
G37*
G04 #@! TD.AperFunction*
G04 #@! TD*
G04 #@! TA.AperFunction,Conductor*
G04 #@! TO.N,/Lidar_RX*
G36*
X2455100Y1572886D02*
G01*
X2587129Y1524317D01*
X2595386Y1521280D01*
X2596044Y1520672D01*
X2596080Y1519778D01*
X2596064Y1519735D01*
X2564256Y1442708D01*
X2563624Y1442075D01*
X2563621Y1442074D01*
X2486595Y1410266D01*
X2485699Y1410267D01*
X2485067Y1410901D01*
X2485050Y1410944D01*
X2473365Y1442708D01*
X2433444Y1551229D01*
X2433480Y1552124D01*
X2433714Y1552460D01*
X2453870Y1572616D01*
X2454697Y1572958D01*
X2455100Y1572886D01*
G37*
G04 #@! TD.AperFunction*
G04 #@! TD*
G04 #@! TA.AperFunction,Conductor*
G04 #@! TO.N,Net-(J1-GPIO5)*
G36*
X242591Y3638387D02*
G01*
X242819Y3638066D01*
X308321Y3501692D01*
X308372Y3500803D01*
X231106Y3277426D01*
X230511Y3276757D01*
X229617Y3276703D01*
X228948Y3277298D01*
X228894Y3277426D01*
X151628Y3500803D01*
X151679Y3501692D01*
X217181Y3638066D01*
X217848Y3638664D01*
X218236Y3638730D01*
X241764Y3638730D01*
X242591Y3638387D01*
G37*
G04 #@! TD.AperFunction*
G04 #@! TD*
G04 #@! TA.AperFunction,Conductor*
G04 #@! TO.N,Net-(J1-GPIO5)*
G36*
X242226Y4187651D02*
G01*
X277550Y4173115D01*
X278184Y4172483D01*
X278186Y4172480D01*
X292876Y4136918D01*
X292876Y4136022D01*
X292280Y4135407D01*
X242731Y4112817D01*
X242246Y4112712D01*
X219091Y4112712D01*
X218263Y4113055D01*
X217921Y4113882D01*
X217974Y4114231D01*
X224730Y4135875D01*
X240664Y4186918D01*
X241238Y4187605D01*
X242129Y4187686D01*
X242226Y4187651D01*
G37*
G04 #@! TD.AperFunction*
G04 #@! TD*
G04 #@! TA.AperFunction,Conductor*
G04 #@! TO.N,Net-(J1-GPIO13)*
G36*
X-276878Y1493333D02*
G01*
X-276825Y1493204D01*
X-199632Y1269871D01*
X-199686Y1268977D01*
X-199695Y1268959D01*
X-272603Y1125223D01*
X-273283Y1124640D01*
X-274176Y1124709D01*
X-274474Y1124925D01*
X-294411Y1144862D01*
X-294631Y1145167D01*
X-356311Y1268962D01*
X-356373Y1269855D01*
X-356371Y1269859D01*
X-279036Y1493205D01*
X-278441Y1493874D01*
X-277548Y1493928D01*
X-276878Y1493333D01*
G37*
G04 #@! TD.AperFunction*
G04 #@! TD*
G04 #@! TA.AperFunction,Conductor*
G04 #@! TO.N,/Lidar_RX*
G36*
X1267340Y2790719D02*
G01*
X1267939Y2790157D01*
X1297304Y2730620D01*
X1297363Y2729726D01*
X1297082Y2729275D01*
X1277055Y2709248D01*
X1276228Y2708905D01*
X1275710Y2709026D01*
X1216173Y2738391D01*
X1215583Y2739065D01*
X1215609Y2739886D01*
X1230244Y2775450D01*
X1230875Y2776084D01*
X1266444Y2790721D01*
X1267340Y2790719D01*
G37*
G04 #@! TD.AperFunction*
G04 #@! TD*
G04 #@! TA.AperFunction,Conductor*
G04 #@! TO.N,Net-(J1-GPIO3)*
G36*
X1721946Y4417928D02*
G01*
X1721980Y4417858D01*
X1765887Y4319477D01*
X1765911Y4318582D01*
X1765887Y4318523D01*
X1721980Y4220142D01*
X1721330Y4219526D01*
X1720435Y4219551D01*
X1720365Y4219585D01*
X1556623Y4306171D01*
X1556052Y4306860D01*
X1556000Y4307205D01*
X1556000Y4330795D01*
X1556343Y4331623D01*
X1556623Y4331830D01*
X1720365Y4418416D01*
X1721256Y4418499D01*
X1721946Y4417928D01*
G37*
G04 #@! TD.AperFunction*
G04 #@! TD*
G04 #@! TA.AperFunction,Conductor*
G04 #@! TO.N,Net-(J1-GPIO4)*
G36*
X544330Y3621579D02*
G01*
X544658Y3620936D01*
X568946Y3469069D01*
X568863Y3468415D01*
X485515Y3277697D01*
X484870Y3277076D01*
X483975Y3277093D01*
X483354Y3277739D01*
X483294Y3277947D01*
X479220Y3299385D01*
X434417Y3535184D01*
X434600Y3536060D01*
X434734Y3536224D01*
X519156Y3621574D01*
X519982Y3621922D01*
X543502Y3621922D01*
X544330Y3621579D01*
G37*
G04 #@! TD.AperFunction*
G04 #@! TD*
G04 #@! TA.AperFunction,Conductor*
G04 #@! TO.N,Net-(J1-GPIO4)*
G36*
X-241377Y6548657D02*
G01*
X-241170Y6548377D01*
X-154585Y6384635D01*
X-154501Y6383744D01*
X-155072Y6383054D01*
X-155142Y6383020D01*
X-253523Y6339113D01*
X-254418Y6339088D01*
X-254477Y6339113D01*
X-352858Y6383020D01*
X-353474Y6383670D01*
X-353449Y6384565D01*
X-353415Y6384635D01*
X-266830Y6548377D01*
X-266140Y6548948D01*
X-265795Y6549000D01*
X-242205Y6549000D01*
X-241377Y6548657D01*
G37*
G04 #@! TD.AperFunction*
G04 #@! TD*
G04 #@! TA.AperFunction,Conductor*
G04 #@! TO.N,GND*
G36*
X-1676521Y12534084D02*
G01*
X-1675902Y12533437D01*
X-1675903Y12532586D01*
X-1765866Y12303023D01*
X-1766487Y12302378D01*
X-1766586Y12302340D01*
X-1892549Y12260425D01*
X-1893443Y12260489D01*
X-1893746Y12260708D01*
X-1949289Y12316251D01*
X-1949632Y12317078D01*
X-1949570Y12317453D01*
X-1906504Y12444576D01*
X-1905914Y12445249D01*
X-1905821Y12445290D01*
X-1677416Y12534104D01*
X-1676521Y12534084D01*
G37*
G04 #@! TD.AperFunction*
G04 #@! TD*
G04 #@! TA.AperFunction,Conductor*
G04 #@! TO.N,Net-(J1-GPIO3)*
G36*
X-2261378Y4528657D02*
G01*
X-2261171Y4528377D01*
X-2174585Y4364635D01*
X-2174501Y4363744D01*
X-2175072Y4363054D01*
X-2175142Y4363020D01*
X-2273523Y4319113D01*
X-2274418Y4319089D01*
X-2274477Y4319113D01*
X-2372858Y4363020D01*
X-2373474Y4363670D01*
X-2373450Y4364565D01*
X-2373415Y4364635D01*
X-2286830Y4528377D01*
X-2286140Y4528948D01*
X-2285795Y4529000D01*
X-2262205Y4529000D01*
X-2261378Y4528657D01*
G37*
G04 #@! TD.AperFunction*
G04 #@! TD*
G04 #@! TA.AperFunction,Conductor*
G04 #@! TO.N,Net-(J1-GPIO3)*
G36*
X-298054Y4417928D02*
G01*
X-298020Y4417858D01*
X-254113Y4319477D01*
X-254088Y4318582D01*
X-254113Y4318523D01*
X-298020Y4220142D01*
X-298670Y4219526D01*
X-299565Y4219551D01*
X-299635Y4219585D01*
X-463377Y4306171D01*
X-463948Y4306860D01*
X-464000Y4307205D01*
X-464000Y4330795D01*
X-463657Y4331623D01*
X-463377Y4331830D01*
X-299635Y4418416D01*
X-298744Y4418499D01*
X-298054Y4417928D01*
G37*
G04 #@! TD.AperFunction*
G04 #@! TD*
G04 #@! TA.AperFunction,Conductor*
G04 #@! TO.N,Net-(J1-GPIO5)*
G36*
X-208435Y10478450D02*
G01*
X-208365Y10478415D01*
X-44623Y10391830D01*
X-44052Y10391140D01*
X-44000Y10390795D01*
X-44000Y10367205D01*
X-44343Y10366378D01*
X-44623Y10366171D01*
X-208365Y10279585D01*
X-209256Y10279501D01*
X-209946Y10280072D01*
X-209980Y10280142D01*
X-253887Y10378523D01*
X-253912Y10379418D01*
X-253889Y10379473D01*
X-209980Y10477858D01*
X-209330Y10478474D01*
X-208435Y10478450D01*
G37*
G04 #@! TD.AperFunction*
G04 #@! TD*
G04 #@! TA.AperFunction,Conductor*
G04 #@! TO.N,GND*
G36*
X2479944Y2683648D02*
G01*
X2563622Y2649086D01*
X2564255Y2648454D01*
X2564256Y2648452D01*
X2598818Y2564775D01*
X2598817Y2563879D01*
X2598325Y2563316D01*
X2447959Y2475894D01*
X2447071Y2475775D01*
X2446543Y2476079D01*
X2391249Y2531373D01*
X2390906Y2532201D01*
X2391064Y2532789D01*
X2478486Y2683155D01*
X2479198Y2683698D01*
X2479944Y2683648D01*
G37*
G04 #@! TD.AperFunction*
G04 #@! TD*
G04 #@! TA.AperFunction,Conductor*
G04 #@! TO.N,Net-(J1-GPIO3)*
G36*
X-2273526Y6338889D02*
G01*
X-2175142Y6294980D01*
X-2174526Y6294330D01*
X-2174551Y6293435D01*
X-2174585Y6293365D01*
X-2261171Y6129623D01*
X-2261860Y6129052D01*
X-2262205Y6129000D01*
X-2285795Y6129000D01*
X-2286623Y6129343D01*
X-2286830Y6129623D01*
X-2373415Y6293365D01*
X-2373499Y6294256D01*
X-2372928Y6294946D01*
X-2372860Y6294979D01*
X-2274477Y6338887D01*
X-2273582Y6338912D01*
X-2273526Y6338889D01*
G37*
G04 #@! TD.AperFunction*
G04 #@! TD*
G04 #@! TA.AperFunction,Conductor*
G04 #@! TO.N,Net-(J1-GPIO9)*
G36*
X-1039551Y3274243D02*
G01*
X-962594Y3242269D01*
X-961961Y3241635D01*
X-961962Y3240739D01*
X-961981Y3240697D01*
X-1024686Y3105009D01*
X-1025344Y3104402D01*
X-1025748Y3104330D01*
X-1054252Y3104330D01*
X-1055079Y3104673D01*
X-1055314Y3105009D01*
X-1118019Y3240697D01*
X-1118055Y3241592D01*
X-1117448Y3242250D01*
X-1117409Y3242268D01*
X-1040449Y3274243D01*
X-1039553Y3274244D01*
X-1039551Y3274243D01*
G37*
G04 #@! TD.AperFunction*
G04 #@! TD*
G04 #@! TA.AperFunction,Conductor*
G04 #@! TO.N,GND*
G36*
X2531405Y2028496D02*
G01*
X2531842Y2027967D01*
X2562696Y1953574D01*
X2563885Y1950708D01*
X2563885Y1949812D01*
X2563884Y1949811D01*
X2531964Y1872983D01*
X2531330Y1872351D01*
X2530434Y1872352D01*
X2530339Y1872397D01*
X2485630Y1895939D01*
X2379715Y1951711D01*
X2379143Y1952400D01*
X2379225Y1953292D01*
X2379433Y1953574D01*
X2434631Y2008772D01*
X2435222Y2009090D01*
X2530526Y2028665D01*
X2531405Y2028496D01*
G37*
G04 #@! TD.AperFunction*
G04 #@! TD*
G04 #@! TA.AperFunction,Conductor*
G04 #@! TO.N,Net-(J1-GPIO5)*
G36*
X1766474Y10378889D02*
G01*
X1864858Y10334980D01*
X1865474Y10334330D01*
X1865449Y10333435D01*
X1865415Y10333365D01*
X1778829Y10169623D01*
X1778140Y10169052D01*
X1777795Y10169000D01*
X1754205Y10169000D01*
X1753377Y10169343D01*
X1753170Y10169623D01*
X1666585Y10333365D01*
X1666501Y10334256D01*
X1667072Y10334946D01*
X1667140Y10334979D01*
X1765523Y10378887D01*
X1766418Y10378912D01*
X1766474Y10378889D01*
G37*
G04 #@! TD.AperFunction*
G04 #@! TD*
G04 #@! TA.AperFunction,Conductor*
G04 #@! TO.N,Net-(J1-GPIO4)*
G36*
X1721946Y6437928D02*
G01*
X1721980Y6437858D01*
X1765887Y6339477D01*
X1765911Y6338582D01*
X1765887Y6338523D01*
X1721980Y6240142D01*
X1721330Y6239526D01*
X1720435Y6239551D01*
X1720365Y6239585D01*
X1556623Y6326171D01*
X1556052Y6326860D01*
X1556000Y6327205D01*
X1556000Y6350795D01*
X1556343Y6351622D01*
X1556623Y6351829D01*
X1720365Y6438415D01*
X1721256Y6438499D01*
X1721946Y6437928D01*
G37*
G04 #@! TD.AperFunction*
G04 #@! TD*
G04 #@! TA.AperFunction,Conductor*
G04 #@! TO.N,GND*
G36*
X-530948Y1493362D02*
G01*
X-530894Y1493233D01*
X-453576Y1269707D01*
X-453536Y1269086D01*
X-481806Y1132862D01*
X-482310Y1132122D01*
X-482952Y1131930D01*
X-581048Y1131930D01*
X-581875Y1132273D01*
X-582194Y1132862D01*
X-610464Y1269087D01*
X-610425Y1269706D01*
X-533106Y1493233D01*
X-532511Y1493903D01*
X-531618Y1493957D01*
X-530948Y1493362D01*
G37*
G04 #@! TD.AperFunction*
G04 #@! TD*
G04 #@! TA.AperFunction,Conductor*
G04 #@! TO.N,Net-(J1-GPIO4)*
G36*
X-2228435Y8458450D02*
G01*
X-2228365Y8458415D01*
X-2064623Y8371829D01*
X-2064052Y8371140D01*
X-2064000Y8370795D01*
X-2064000Y8347205D01*
X-2064343Y8346378D01*
X-2064623Y8346171D01*
X-2228365Y8259585D01*
X-2229256Y8259501D01*
X-2229946Y8260072D01*
X-2229980Y8260142D01*
X-2273887Y8358523D01*
X-2273912Y8359418D01*
X-2273889Y8359474D01*
X-2229980Y8457858D01*
X-2229330Y8458474D01*
X-2228435Y8458450D01*
G37*
G04 #@! TD.AperFunction*
G04 #@! TD*
G04 #@! TA.AperFunction,Conductor*
G04 #@! TO.N,Net-(J1-GPIO5)*
G36*
X1721946Y10477928D02*
G01*
X1721980Y10477858D01*
X1765887Y10379477D01*
X1765911Y10378582D01*
X1765887Y10378523D01*
X1721980Y10280142D01*
X1721330Y10279526D01*
X1720435Y10279551D01*
X1720365Y10279585D01*
X1556623Y10366171D01*
X1556052Y10366860D01*
X1556000Y10367205D01*
X1556000Y10390795D01*
X1556343Y10391623D01*
X1556623Y10391830D01*
X1720365Y10478416D01*
X1721256Y10478499D01*
X1721946Y10477928D01*
G37*
G04 #@! TD.AperFunction*
G04 #@! TD*
G04 #@! TA.AperFunction,Conductor*
G04 #@! TO.N,GND*
G36*
X-1881048Y3624488D02*
G01*
X-1806107Y3553324D01*
X-1805743Y3552505D01*
X-1805743Y3552491D01*
X-1801946Y3275446D01*
X-1802277Y3274614D01*
X-1803099Y3274260D01*
X-1803116Y3274260D01*
X-1886018Y3274329D01*
X-1886845Y3274672D01*
X-1887169Y3275297D01*
X-1938339Y3568106D01*
X-1938144Y3568980D01*
X-1938014Y3569134D01*
X-1882681Y3624467D01*
X-1881854Y3624810D01*
X-1881048Y3624488D01*
G37*
G04 #@! TD.AperFunction*
G04 #@! TD*
G04 #@! TA.AperFunction,Conductor*
G04 #@! TO.N,Net-(J1-GPIO4)*
G36*
X544519Y4760487D02*
G01*
X544786Y4760074D01*
X568555Y4697196D01*
X568527Y4696301D01*
X567911Y4695702D01*
X532450Y4680918D01*
X531555Y4680916D01*
X531550Y4680918D01*
X496089Y4695702D01*
X495457Y4696337D01*
X495445Y4697195D01*
X519214Y4760074D01*
X519827Y4760726D01*
X520308Y4760830D01*
X543692Y4760830D01*
X544519Y4760487D01*
G37*
G04 #@! TD.AperFunction*
G04 #@! TD*
G04 #@! TA.AperFunction,Conductor*
G04 #@! TO.N,Net-(J1-GPIO13)*
G36*
X-2505812Y773982D02*
G01*
X-2505180Y773348D01*
X-2505166Y773312D01*
X-2456020Y642005D01*
X-2456051Y641110D01*
X-2456289Y640767D01*
X-2476437Y620619D01*
X-2477265Y620276D01*
X-2477675Y620350D01*
X-2608982Y669496D01*
X-2609636Y670107D01*
X-2609667Y671001D01*
X-2609655Y671033D01*
X-2579756Y743451D01*
X-2579124Y744085D01*
X-2579124Y744085D01*
X-2506708Y773983D01*
X-2505812Y773982D01*
G37*
G04 #@! TD.AperFunction*
G04 #@! TD*
G04 #@! TA.AperFunction,Conductor*
G04 #@! TO.N,/Lidar_TX*
G36*
X2455100Y1826886D02*
G01*
X2587129Y1778317D01*
X2595386Y1775280D01*
X2596044Y1774672D01*
X2596080Y1773778D01*
X2596064Y1773735D01*
X2564256Y1696708D01*
X2563624Y1696075D01*
X2563621Y1696074D01*
X2486595Y1664266D01*
X2485699Y1664267D01*
X2485067Y1664901D01*
X2485050Y1664944D01*
X2473365Y1696708D01*
X2433444Y1805229D01*
X2433480Y1806124D01*
X2433714Y1806460D01*
X2453870Y1826616D01*
X2454697Y1826958D01*
X2455100Y1826886D01*
G37*
G04 #@! TD.AperFunction*
G04 #@! TD*
G04 #@! TA.AperFunction,Conductor*
G04 #@! TO.N,Net-(J1-GPIO4)*
G36*
X-298054Y8457928D02*
G01*
X-298020Y8457858D01*
X-254113Y8359477D01*
X-254088Y8358582D01*
X-254113Y8358523D01*
X-298020Y8260142D01*
X-298670Y8259526D01*
X-299565Y8259551D01*
X-299635Y8259585D01*
X-463377Y8346171D01*
X-463948Y8346860D01*
X-464000Y8347205D01*
X-464000Y8370795D01*
X-463657Y8371622D01*
X-463377Y8371829D01*
X-299635Y8458416D01*
X-298744Y8458499D01*
X-298054Y8457928D01*
G37*
G04 #@! TD.AperFunction*
G04 #@! TD*
G04 #@! TA.AperFunction,Conductor*
G04 #@! TO.N,Net-(J1-GPIO5)*
G36*
X-298054Y10477928D02*
G01*
X-298020Y10477858D01*
X-254113Y10379477D01*
X-254088Y10378582D01*
X-254113Y10378523D01*
X-298020Y10280142D01*
X-298670Y10279526D01*
X-299565Y10279551D01*
X-299635Y10279585D01*
X-463377Y10366171D01*
X-463948Y10366860D01*
X-464000Y10367205D01*
X-464000Y10390795D01*
X-463657Y10391623D01*
X-463377Y10391830D01*
X-299635Y10478416D01*
X-298744Y10478499D01*
X-298054Y10477928D01*
G37*
G04 #@! TD.AperFunction*
G04 #@! TD*
G04 #@! TA.AperFunction,Conductor*
G04 #@! TO.N,Net-(J1-GPIO3)*
G36*
X-2228435Y4418450D02*
G01*
X-2228365Y4418415D01*
X-2064623Y4331830D01*
X-2064052Y4331140D01*
X-2064000Y4330795D01*
X-2064000Y4307205D01*
X-2064343Y4306378D01*
X-2064623Y4306171D01*
X-2228365Y4219585D01*
X-2229256Y4219501D01*
X-2229946Y4220072D01*
X-2229980Y4220142D01*
X-2273887Y4318524D01*
X-2273912Y4319418D01*
X-2273889Y4319474D01*
X-2229980Y4417858D01*
X-2229330Y4418474D01*
X-2228435Y4418450D01*
G37*
G04 #@! TD.AperFunction*
G04 #@! TD*
G04 #@! TA.AperFunction,Conductor*
G04 #@! TO.N,/FR_TX*
G36*
X88051Y3678425D02*
G01*
X88613Y3677826D01*
X103412Y3642330D01*
X103414Y3641435D01*
X103412Y3641430D01*
X88613Y3605934D01*
X87979Y3605302D01*
X87157Y3605276D01*
X24294Y3626610D01*
X23621Y3627201D01*
X23500Y3627718D01*
X23500Y3656041D01*
X23843Y3656869D01*
X24294Y3657149D01*
X87158Y3678484D01*
X88051Y3678425D01*
G37*
G04 #@! TD.AperFunction*
G04 #@! TD*
G04 #@! TA.AperFunction,Conductor*
G04 #@! TO.N,Net-(J1-GPIO5)*
G36*
X1778622Y8568657D02*
G01*
X1778829Y8568377D01*
X1865415Y8404635D01*
X1865499Y8403744D01*
X1864928Y8403054D01*
X1864858Y8403020D01*
X1766477Y8359113D01*
X1765582Y8359088D01*
X1765523Y8359113D01*
X1667142Y8403020D01*
X1666526Y8403670D01*
X1666550Y8404565D01*
X1666585Y8404635D01*
X1753170Y8568377D01*
X1753860Y8568948D01*
X1754205Y8569000D01*
X1777795Y8569000D01*
X1778622Y8568657D01*
G37*
G04 #@! TD.AperFunction*
G04 #@! TD*
G04 #@! TA.AperFunction,Conductor*
G04 #@! TO.N,Net-(J1-GPIO4)*
G36*
X-253526Y8358889D02*
G01*
X-155142Y8314980D01*
X-154526Y8314330D01*
X-154551Y8313435D01*
X-154585Y8313365D01*
X-241170Y8149623D01*
X-241860Y8149052D01*
X-242205Y8149000D01*
X-265795Y8149000D01*
X-266623Y8149343D01*
X-266830Y8149623D01*
X-353415Y8313365D01*
X-353499Y8314256D01*
X-352928Y8314946D01*
X-352860Y8314979D01*
X-254477Y8358887D01*
X-253582Y8358912D01*
X-253526Y8358889D01*
G37*
G04 #@! TD.AperFunction*
G04 #@! TD*
G04 #@! TA.AperFunction,Conductor*
G04 #@! TO.N,Net-(J1-GPIO4)*
G36*
X567911Y3967458D02*
G01*
X568543Y3966823D01*
X568555Y3965964D01*
X544786Y3903086D01*
X544173Y3902433D01*
X543692Y3902330D01*
X520308Y3902330D01*
X519481Y3902673D01*
X519214Y3903086D01*
X495445Y3965964D01*
X495473Y3966859D01*
X496089Y3967458D01*
X531550Y3982242D01*
X532445Y3982244D01*
X567911Y3967458D01*
G37*
G04 #@! TD.AperFunction*
G04 #@! TD*
G04 #@! TA.AperFunction,Conductor*
G04 #@! TO.N,Net-(J1-GPIO015)*
G36*
X1723051Y1097875D02*
G01*
X1723613Y1097276D01*
X1738412Y1061780D01*
X1738414Y1060885D01*
X1738412Y1060880D01*
X1723613Y1025384D01*
X1722979Y1024752D01*
X1722157Y1024726D01*
X1659294Y1046060D01*
X1658621Y1046651D01*
X1658500Y1047168D01*
X1658500Y1075492D01*
X1658843Y1076319D01*
X1659294Y1076599D01*
X1722157Y1097934D01*
X1723051Y1097875D01*
G37*
G04 #@! TD.AperFunction*
G04 #@! TD*
G04 #@! TA.AperFunction,Conductor*
G04 #@! TO.N,/Lidar_TX*
G36*
X1076690Y3308669D02*
G01*
X1077320Y3308033D01*
X1077361Y3307915D01*
X1119275Y3162740D01*
X1119175Y3161850D01*
X1118978Y3161588D01*
X1098796Y3141406D01*
X1097968Y3141063D01*
X1097540Y3141144D01*
X959759Y3195406D01*
X959115Y3196028D01*
X959099Y3196923D01*
X959109Y3196947D01*
X991741Y3273957D01*
X992376Y3274583D01*
X1075795Y3308673D01*
X1076690Y3308669D01*
G37*
G04 #@! TD.AperFunction*
G04 #@! TD*
G04 #@! TA.AperFunction,Conductor*
G04 #@! TO.N,Net-(J1-GPIO5)*
G36*
X-2228435Y10478450D02*
G01*
X-2228365Y10478415D01*
X-2064623Y10391830D01*
X-2064052Y10391140D01*
X-2064000Y10390795D01*
X-2064000Y10367205D01*
X-2064343Y10366378D01*
X-2064623Y10366171D01*
X-2228365Y10279585D01*
X-2229256Y10279501D01*
X-2229946Y10280072D01*
X-2229980Y10280142D01*
X-2273887Y10378524D01*
X-2273912Y10379418D01*
X-2273889Y10379474D01*
X-2229980Y10477858D01*
X-2229330Y10478474D01*
X-2228435Y10478450D01*
G37*
G04 #@! TD.AperFunction*
G04 #@! TD*
G04 #@! TA.AperFunction,Conductor*
G04 #@! TO.N,Net-(J1-GPIO9)*
G36*
X2398674Y867310D02*
G01*
X2529982Y818164D01*
X2530636Y817553D01*
X2530667Y816658D01*
X2530653Y816622D01*
X2500756Y744209D01*
X2500124Y743575D01*
X2500121Y743574D01*
X2427708Y713677D01*
X2426812Y713678D01*
X2426180Y714312D01*
X2426166Y714348D01*
X2387873Y816658D01*
X2377020Y845655D01*
X2377051Y846550D01*
X2377288Y846892D01*
X2397437Y867041D01*
X2398265Y867384D01*
X2398674Y867310D01*
G37*
G04 #@! TD.AperFunction*
G04 #@! TD*
G04 #@! TA.AperFunction,Conductor*
G04 #@! TO.N,Net-(J1-GPIO3)*
G36*
X-208435Y4418450D02*
G01*
X-208365Y4418415D01*
X-44623Y4331830D01*
X-44052Y4331140D01*
X-44000Y4330795D01*
X-44000Y4307205D01*
X-44343Y4306378D01*
X-44623Y4306171D01*
X-208365Y4219585D01*
X-209256Y4219501D01*
X-209946Y4220072D01*
X-209980Y4220142D01*
X-253887Y4318524D01*
X-253912Y4319418D01*
X-253889Y4319474D01*
X-209980Y4417858D01*
X-209330Y4418474D01*
X-208435Y4418450D01*
G37*
G04 #@! TD.AperFunction*
G04 #@! TD*
G04 #@! TA.AperFunction,Conductor*
G04 #@! TO.N,Net-(J1-GPIO015)*
G36*
X231141Y1492814D02*
G01*
X231252Y1492580D01*
X308408Y1269754D01*
X308426Y1269044D01*
X275975Y1157440D01*
X275679Y1156940D01*
X255603Y1136864D01*
X254775Y1136521D01*
X253948Y1136864D01*
X253861Y1136961D01*
X170601Y1241148D01*
X170352Y1242008D01*
X170376Y1242143D01*
X229007Y1492464D01*
X229530Y1493192D01*
X230413Y1493337D01*
X231141Y1492814D01*
G37*
G04 #@! TD.AperFunction*
G04 #@! TD*
G04 #@! TA.AperFunction,Conductor*
G04 #@! TO.N,GND*
G36*
X-1223450Y823571D02*
G01*
X-1065788Y794009D01*
X-1065038Y793520D01*
X-1064833Y792859D01*
X-1064833Y694801D01*
X-1065176Y693974D01*
X-1065788Y693651D01*
X-1223450Y664089D01*
X-1224326Y664274D01*
X-1224815Y665024D01*
X-1224835Y665238D01*
X-1224933Y743828D01*
X-1224835Y822422D01*
X-1224492Y823249D01*
X-1223664Y823590D01*
X-1223450Y823571D01*
G37*
G04 #@! TD.AperFunction*
G04 #@! TD*
M02*
